<svg id="Layer_1" data-name="Layer 1" xmlns="http://www.w3.org/2000/svg" viewBox="0 0 489.19 123.03"><defs><style>.cls-1{fill:#282828;}.cls-2{fill:#10a84b;}</style></defs><path class="cls-1" d="M234.87,90.2a1.25,1.25,0,0,1,1.27.32,1,1,0,0,1,.06,1.29,8.25,8.25,0,0,1-1.13,1.51A8.57,8.57,0,0,1,233,94.93a13.15,13.15,0,0,1-3.18,1.28,16.89,16.89,0,0,1-4.41.52,11.48,11.48,0,0,1-5.92-1.42,8.13,8.13,0,0,1-3.32-3.26.64.64,0,0,0-.67-.41,1.23,1.23,0,0,0-.72.35c-.12.11-.47.43-1.07,1a14.63,14.63,0,0,1-2.54,1.68,22.72,22.72,0,0,1-4,1.61,17.84,17.84,0,0,1-5.31.73,22.68,22.68,0,0,1-8.63-1.45,16.12,16.12,0,0,1-5.66-3.72,13.58,13.58,0,0,1-3.12-5.14,17.78,17.78,0,0,1-.95-5.69,12.88,12.88,0,0,1,2.56-8,15.52,15.52,0,0,1,6.68-5.08,21.3,21.3,0,0,1,4.59-1.25c1.59-.25,3.18-.51,4.76-.78s3.13-.6,4.65-1a13.77,13.77,0,0,0,4.3-2,7.55,7.55,0,0,0,3-3.7,13.56,13.56,0,0,0,.84-4.79,12.69,12.69,0,0,0-.5-3.55,9.69,9.69,0,0,0-1.38-3,7.41,7.41,0,0,0-2.08-2,5.37,5.37,0,0,0-6.21.52,9.32,9.32,0,0,0-1.82,3.06c-.44,1.2-.86,2.44-1.24,3.73a8.38,8.38,0,0,1-1.85,3.32,6.48,6.48,0,0,1-2.68,1.65,10.15,10.15,0,0,1-3.15.55,7.05,7.05,0,0,1-2.77-.52,6.25,6.25,0,0,1-2.08-1.42,5.85,5.85,0,0,1-1.3-2.08,7.2,7.2,0,0,1-.44-2.51,8.13,8.13,0,0,1,.87-3.58,8.35,8.35,0,0,1,3.09-3.24,19.3,19.3,0,0,1,6-2.34,42.53,42.53,0,0,1,9.53-.89,40,40,0,0,1,10.94,1.3,19.09,19.09,0,0,1,7.39,3.78,14.31,14.31,0,0,1,4.16,6.15,24.85,24.85,0,0,1,1.3,8.35c0,3.73-.11,7.24-.34,10.51s-.4,6.17-.5,8.69a42.72,42.72,0,0,0,.15,6.24q.28,2.46,1.62,3a3,3,0,0,0,1.44.26A14.27,14.27,0,0,0,234.87,90.2Zm-20-25.82a.45.45,0,0,0-.29-.46.42.42,0,0,0-.52.17q-.47.52-.84,1c-.25.3-.59.67-1,1.09-.73.77-1.48,1.49-2.25,2.17s-1.54,1.36-2.31,2-1.53,1.23-2.28,1.85a18.28,18.28,0,0,0-2.11,2A11.55,11.55,0,0,0,201,78a12.83,12.83,0,0,0-.73,4.36,11.19,11.19,0,0,0,.47,3.15,8.45,8.45,0,0,0,1.41,2.83,7.39,7.39,0,0,0,2.43,2,7.48,7.48,0,0,0,3.55.78,6,6,0,0,0,3.38-.87,6.52,6.52,0,0,0,2-2.07,8.59,8.59,0,0,0,1-2.46,9.36,9.36,0,0,0,.29-1.93Z" transform="translate(-5.41 -22.59)"/><path class="cls-1" d="M271.51,87.14c.7-.35,1.2-.31,1.51.11a1.14,1.14,0,0,1,.05,1.33A14.83,14.83,0,0,1,270.45,92a17.35,17.35,0,0,1-3.62,2.66,18,18,0,0,1-4.41,1.73,20.81,20.81,0,0,1-5.06.61,22.61,22.61,0,0,1-5.71-.75,12.84,12.84,0,0,1-5.09-2.69,14,14,0,0,1-3.66-5.26,21.58,21.58,0,0,1-1.42-8.46V47.35a.41.41,0,0,0-.46-.47H234.1a4.69,4.69,0,0,1-1.7-.17.79.79,0,0,1-.32-.75,2.63,2.63,0,0,1,.66-1.59,2,2,0,0,1,1.65-.84h6.69c.27,0,.4-.15.4-.46V29.27c0-.85.35-1.33,1-1.45q1.44-.29,3.09-.78c1.1-.32,2.21-.71,3.35-1.15s2.25-.92,3.35-1.44a28.59,28.59,0,0,0,3-1.65,1.35,1.35,0,0,1,1.19-.12c.36.16.54.54.54,1.16V43.13c0,.27.16.4.47.4h32.52a4.6,4.6,0,0,1,1.7.18c.22.11.32.36.32.75a2.39,2.39,0,0,1-.81,1.59,2.46,2.46,0,0,1-1.79.83h-32a.37.37,0,0,0-.41.41V82.81a6.27,6.27,0,0,0,2,4.76,5.63,5.63,0,0,0,2.08,1.24,7.32,7.32,0,0,0,2.39.41,14.34,14.34,0,0,0,4.62-.72A24.94,24.94,0,0,0,271.51,87.14Z" transform="translate(-5.41 -22.59)"/><path class="cls-1" d="M337.24,93.84a1.18,1.18,0,0,1,.66.37.68.68,0,0,1,.15.55,1,1,0,0,1-.32.52,1,1,0,0,1-.72.23H316.1a1.56,1.56,0,0,1-1-.29,1.09,1.09,0,0,1-.38-.92V90.89a22.2,22.2,0,0,1-6.29,4.25A22.54,22.54,0,0,1,298.83,97a26.09,26.09,0,0,1-7.94-1,16,16,0,0,1-5.31-2.78,12.11,12.11,0,0,1-3.24-4,18.83,18.83,0,0,1-1.62-4.68,29.59,29.59,0,0,1-.57-4.82c-.06-1.6-.09-3.09-.09-4.48V52.6a6.74,6.74,0,0,0-.92-3.72c-.62-1-2.14-2-4.7-2-.75-.19-2.16-2.4-2.12-2.6a.94.94,0,0,1,.32-.52,1.05,1.05,0,0,1,.72-.23h20.91q1.38,0,1.38,1.5V78.82a34.38,34.38,0,0,0,.44,4.62,13.33,13.33,0,0,0,1.38,4.19,8.07,8.07,0,0,0,2.83,3,9,9,0,0,0,4.88,1.15,8.58,8.58,0,0,0,5.11-1.35A8.74,8.74,0,0,0,313.15,87a14.28,14.28,0,0,0,1.27-4.59,42.75,42.75,0,0,0,.29-4.82v-25a6.74,6.74,0,0,0-.92-3.72,7.43,7.43,0,0,0-2.11-2.2,7.93,7.93,0,0,0-2.31-1.07l-1.59-.4a.89.89,0,0,1-.66-.35.71.71,0,0,1-.15-.58,1,1,0,0,1,.32-.52,1.05,1.05,0,0,1,.72-.23h20.91c.92,0,1.39.5,1.39,1.5V86.45a6.68,6.68,0,0,0,.92,3.72,7.51,7.51,0,0,0,2.11,2.19,8.34,8.34,0,0,0,2.31,1.1A13.49,13.49,0,0,0,337.24,93.84Z" transform="translate(-5.41 -22.59)"/><path class="cls-1" d="M376,42.09a12.24,12.24,0,0,1,4.1.6,7.68,7.68,0,0,1,2.72,1.62,6.06,6.06,0,0,1,1.5,2.37,8.79,8.79,0,0,1,.46,2.86A5.49,5.49,0,0,1,383,53.87a6.85,6.85,0,0,1-4.71,1.56,6.53,6.53,0,0,1-3.52-.81,11.1,11.1,0,0,1-2.17-1.76L371,51.1a2.43,2.43,0,0,0-1.85-.81A4.2,4.2,0,0,0,367,51a6.14,6.14,0,0,0-2.08,2.52,20,20,0,0,0-1.59,5.08,45.3,45.3,0,0,0-.63,8.37v20a7.14,7.14,0,0,0,.78,3.63,6.19,6.19,0,0,0,1.79,2,6.44,6.44,0,0,0,2,1,13.74,13.74,0,0,0,1.44.32,1.17,1.17,0,0,1,.67.37.67.67,0,0,1,.14.55,1,1,0,0,1-.31.52,1,1,0,0,1-.73.23H341.35a1,1,0,0,1-.72-.23.91.91,0,0,1-.32-.52.67.67,0,0,1,.14-.55,1.17,1.17,0,0,1,.67-.37,13.2,13.2,0,0,0,1.44-.32,6.33,6.33,0,0,0,2-1,6.19,6.19,0,0,0,1.79-2,7.14,7.14,0,0,0,.78-3.63V54.33a.84.84,0,0,0-.69-.92,8,8,0,0,1-.84-.17L344,52.83c-.62-.15-1.19-.29-1.71-.4s-.83-.19-.95-.23q-.75-.18-.78-.78t.84-.84a50.52,50.52,0,0,0,4.88-1.42c1.75-.59,3.51-1.27,5.28-2s3.49-1.56,5.14-2.42a45.56,45.56,0,0,0,4.45-2.63,1.59,1.59,0,0,1,1.07-.29c.37,0,.55.33.55.87v8.26a14.84,14.84,0,0,1,5.49-6.65A14.26,14.26,0,0,1,376,42.09Z" transform="translate(-5.41 -22.59)"/><path class="cls-1" d="M401.2,64.9c-.62,0-.93.33-.93,1a42.88,42.88,0,0,0,1,10.11,19.11,19.11,0,0,0,3,6.9,12,12,0,0,0,5,4,17.37,17.37,0,0,0,6.9,1.27,20.1,20.1,0,0,0,5.34-.64,22.86,22.86,0,0,0,6.91-3.06,13,13,0,0,1,1.61-1,1,1,0,0,1,1.27.15c.31.32.31.82,0,1.47-.11.23-.37.68-.78,1.36a17.33,17.33,0,0,1-1.76,2.34,25.81,25.81,0,0,1-2.88,2.77,22.18,22.18,0,0,1-4.14,2.65,26.19,26.19,0,0,1-5.48,2,28.22,28.22,0,0,1-6.9.78,28.74,28.74,0,0,1-10.46-1.82,22.16,22.16,0,0,1-8-5.29,24,24,0,0,1-5.14-8.43A32.48,32.48,0,0,1,384,70.22a30.39,30.39,0,0,1,2.26-12.07,26.75,26.75,0,0,1,5.89-8.81,25.44,25.44,0,0,1,17.67-7.25,23.27,23.27,0,0,1,7.94,1.24,20.91,20.91,0,0,1,5.95,3.24A19.54,19.54,0,0,1,427.85,51a29.09,29.09,0,0,1,2.66,4.88,23.51,23.51,0,0,1,1.41,4.56,19.38,19.38,0,0,1,.4,3.41.86.86,0,0,1-.37.81,1.87,1.87,0,0,1-1,.23Zm-.64-3.81q-.12.75.69.75l1.16,0,2.4-.08,3-.12,3.09-.12,2.54-.08a10.66,10.66,0,0,0,1.36-.09,3.69,3.69,0,0,0,1.93-.81,3,3,0,0,0,1-2.6,19,19,0,0,0-.46-3.87,16.66,16.66,0,0,0-1.47-4.15,11.07,11.07,0,0,0-2.57-3.32,5.58,5.58,0,0,0-3.81-1.36,5.22,5.22,0,0,0-3.12.95,8.68,8.68,0,0,0-2.29,2.48A16.67,16.67,0,0,0,402.47,52a35,35,0,0,0-1,3.61c-.27,1.18-.47,2.26-.61,3.24S400.6,60.59,400.56,61.09Z" transform="translate(-5.41 -22.59)"/><path class="cls-1" d="M440.58,38.63l-1.5-1.53a12.16,12.16,0,0,1-1.33-1.65,8.49,8.49,0,0,1-.95-2,7.66,7.66,0,0,1-.38-2.49,8,8,0,0,1,.64-3.17,8.15,8.15,0,0,1,1.76-2.63,8.48,8.48,0,0,1,2.66-1.79,8.27,8.27,0,0,1,3.32-.66,7.26,7.26,0,0,1,3.29.75,8.11,8.11,0,0,1,2.57,2,9,9,0,0,1,1.65,2.89,10.37,10.37,0,0,1,.57,3.43,18.86,18.86,0,0,1-1.3,7.11,22,22,0,0,1-3.37,5.77,27.21,27.21,0,0,1-4.63,4.48,34.15,34.15,0,0,1-5,3.2c-.54.31-.95.28-1.24-.08s-.17-.84.37-1.42A14.36,14.36,0,0,0,440,48a14.83,14.83,0,0,0,1.47-3.4,9.19,9.19,0,0,0,.35-3.32A4.1,4.1,0,0,0,440.58,38.63Z" transform="translate(-5.41 -22.59)"/><path class="cls-1" d="M453.88,91.53c0-.08-.09-.63-.26-1.65s-.36-2.15-.55-3.38-.38-2.39-.55-3.49-.28-1.78-.32-2.05c-.08-.54.08-.86.46-1a.73.73,0,0,1,.87.32,10.28,10.28,0,0,0,.75,1.21c.46.7,1.1,1.55,1.91,2.55s1.78,2.08,2.91,3.23a27.86,27.86,0,0,0,3.81,3.21,21.21,21.21,0,0,0,4.6,2.42,14.55,14.55,0,0,0,5.31,1A7.16,7.16,0,0,0,478,92.1a6.24,6.24,0,0,0,1.88-4.73,11.69,11.69,0,0,0-.41-3.06,7.73,7.73,0,0,0-1.73-3,16.06,16.06,0,0,0-3.81-3,40.18,40.18,0,0,0-6.64-3,25.79,25.79,0,0,1-6.42-3.18,17.61,17.61,0,0,1-4.21-4.13,15.51,15.51,0,0,1-2.34-4.91,21,21,0,0,1-.72-5.57,17.23,17.23,0,0,1,.81-4.94,13,13,0,0,1,2.91-5,16.49,16.49,0,0,1,5.75-3.93,23.37,23.37,0,0,1,9.3-1.59,35.46,35.46,0,0,1,6.64.58,45.58,45.58,0,0,1,5.34,1.3A31.13,31.13,0,0,1,488,45.32c.9.43,1.41.66,1.53.7s.37.21.4.29a1.62,1.62,0,0,1,.12.4c0,.08.1.61.29,1.59s.38,2.05.58,3.2.38,2.22.57,3.18a15.64,15.64,0,0,1,.29,1.62.71.71,0,0,1-.4.84.69.69,0,0,1-.93-.32,35.73,35.73,0,0,0-2.54-3.12,30.17,30.17,0,0,0-9.73-7.19,15.1,15.1,0,0,0-6.44-1.42q-3.59,0-5.25,1.91a6.74,6.74,0,0,0-1.68,4.62,8.93,8.93,0,0,0,.41,2.68,5.7,5.7,0,0,0,1.73,2.52,16.59,16.59,0,0,0,3.84,2.45,43.73,43.73,0,0,0,6.73,2.51q8.43,2.61,12.76,7a15.78,15.78,0,0,1,4.33,11.49,17.67,17.67,0,0,1-1.21,6.62,13.66,13.66,0,0,1-3.75,5.25,18.32,18.32,0,0,1-6.47,3.5A30.79,30.79,0,0,1,473.8,97a44.58,44.58,0,0,1-8.11-.67,46.89,46.89,0,0,1-6-1.47,26.64,26.64,0,0,1-3.84-1.53q-1.38-.72-1.62-.9a.9.9,0,0,1-.2-.34A2.63,2.63,0,0,1,453.88,91.53Z" transform="translate(-5.41 -22.59)"/><path class="cls-1" d="M181.71,94.83a1.27,1.27,0,0,1,.68.38.69.69,0,0,1,.14.56.93.93,0,0,1-.32.53,1,1,0,0,1-.73.23H152a1,1,0,0,1-.73-.23,1,1,0,0,1-.32-.53.67.67,0,0,1,.15-.56,1.2,1.2,0,0,1,.67-.38,12.12,12.12,0,0,0,1.61-.38,8.45,8.45,0,0,0,2.35-1.11,7.63,7.63,0,0,0,2.14-2.23,6.8,6.8,0,0,0,.94-3.79V62a50.08,50.08,0,0,0-.38-5.08,15,15,0,0,0-1.35-4.75,9.86,9.86,0,0,0-13.53-3.55A8.27,8.27,0,0,0,140.78,52a13,13,0,0,0-1.12,4.26c-.14,1.5-.2,2.84-.2,4v27a6.88,6.88,0,0,0,.93,3.79,7.66,7.66,0,0,0,2.15,2.23,8.53,8.53,0,0,0,2.34,1.11,12.52,12.52,0,0,0,1.62.38,1.2,1.2,0,0,1,.67.38.67.67,0,0,1,.15.56,1,1,0,0,1-.32.53,1.06,1.06,0,0,1-.74.23H116.8a1,1,0,0,1-.73-.23.88.88,0,0,1-.32-.53.66.66,0,0,1,.14-.56,1.23,1.23,0,0,1,.68-.38,12.12,12.12,0,0,0,1.61-.38,8.58,8.58,0,0,0,2.35-1.11,7.76,7.76,0,0,0,2.14-2.23,6.8,6.8,0,0,0,.94-3.79V54.69a.86.86,0,0,0-.7-.94,6.68,6.68,0,0,1-.86-.18l-1.67-.4-1.73-.42c-.53-.11-.85-.19-1-.23-.51-.12-.77-.38-.79-.79s.26-.7.85-.85q2.3-.54,5-1.44c1.78-.61,3.57-1.29,5.37-2.06s3.54-1.58,5.22-2.46a45.81,45.81,0,0,0,4.52-2.67A1.6,1.6,0,0,1,138.9,42c.37,0,.56.33.56.88v5a22.24,22.24,0,0,1,2.81-2.14A20,20,0,0,1,145.82,44a25.09,25.09,0,0,1,4.41-1.23,28.63,28.63,0,0,1,5.37-.47,26.25,26.25,0,0,1,8.06,1.06,16.18,16.18,0,0,1,5.4,2.81,12.39,12.39,0,0,1,3.29,4.05A19,19,0,0,1,174,54.93a30.47,30.47,0,0,1,.59,4.9c.06,1.62.09,3.13.09,4.54V87.32a6.8,6.8,0,0,0,.94,3.79,7.63,7.63,0,0,0,2.14,2.23,8.45,8.45,0,0,0,2.35,1.11A12.12,12.12,0,0,0,181.71,94.83Z" transform="translate(-5.41 -22.59)"/><path class="cls-1" d="M119.93,114.71h17.91V119h-13.5v9h11.81v4.2H124.34v12.47h-4.41Z" transform="translate(-5.41 -22.59)"/><path class="cls-1" d="M190.19,114.71h4.41v29.88h-4.41Z" transform="translate(-5.41 -22.59)"/><path class="cls-1" d="M275,145.62l-23-22.84,1.28.41.12,21.4h-4.45V113.76h.21l22.72,22.89-1-.29-.08-21.65h4.36v30.91Z" transform="translate(-5.41 -22.59)"/><path class="cls-1" d="M329.48,114.71h19.63V119H333.88v8.52h13.54v4.24H333.88v8.64h15.81v4.24H329.48Z" transform="translate(-5.41 -22.59)"/><path class="cls-1" d="M417.93,120.43a20.12,20.12,0,0,0-3.38-1.4,11.59,11.59,0,0,0-3.49-.58,5.86,5.86,0,0,0-3.67,1,3.45,3.45,0,0,0-1.36,2.86,3.15,3.15,0,0,0,.91,2.23,7.84,7.84,0,0,0,2.35,1.64c1,.47,2,.91,3,1.32a24.47,24.47,0,0,1,2.7,1.17,11.39,11.39,0,0,1,2.43,1.67,7.29,7.29,0,0,1,1.73,2.45,9,9,0,0,1,.63,3.56,8.05,8.05,0,0,1-4.55,7.39,11.57,11.57,0,0,1-5.33,1.13,15.5,15.5,0,0,1-3.68-.43,19.09,19.09,0,0,1-6.24-2.74l2-3.41a17.51,17.51,0,0,0,2.26,1.33,14,14,0,0,0,2.66,1,10,10,0,0,0,2.61.37,8,8,0,0,0,2.68-.47,5.14,5.14,0,0,0,2.18-1.48,3.94,3.94,0,0,0,.86-2.66,3.72,3.72,0,0,0-.76-2.37,6.67,6.67,0,0,0-2-1.66,19.63,19.63,0,0,0-2.7-1.24c-.93-.35-1.88-.75-2.84-1.19a14.68,14.68,0,0,1-2.68-1.59,7,7,0,0,1-2-2.3,6.92,6.92,0,0,1-.76-3.4,7.63,7.63,0,0,1,1.13-4.18,7.76,7.76,0,0,1,3.15-2.81,11.15,11.15,0,0,1,4.65-1.16,16.75,16.75,0,0,1,5.23.74,20.9,20.9,0,0,1,3.95,1.77Z" transform="translate(-5.41 -22.59)"/><path class="cls-1" d="M469.91,114.71h19.93V119H482v25.64h-4.4V119h-7.66Z" transform="translate(-5.41 -22.59)"/><path class="cls-2" d="M95.09,22.67c0,16.66-3.21,61.84-22,89.32C65,123.94,52.8,126.52,42.49,126a37.82,37.82,0,0,1-6.84-1c-1.57,6.37-3.3,13.12-3.32,19.52a.4.4,0,0,1-.44.41c-2.13-.24-5-2.27-7.75-2a.34.34,0,0,1-.36-.4c6.37-33.12,26.35-72.42,47.56-97.82-37.78,33.73-49.19,73.87-49.19,73.87-6.37-4.35-12.51-8.7-15.63-18.15-2.82-8.53-.23-17.82,7.35-28.92C33.17,43.26,72,23.71,95.09,22.67Z" transform="translate(-5.41 -22.59)"/></svg>