<?xml version="1.0" encoding="utf-8"?>
<!-- Generator: Adobe Illustrator 26.3.1, SVG Export Plug-In . SVG Version: 6.00 Build 0)  -->
<svg version="1.1" id="Layer_1" xmlns="http://www.w3.org/2000/svg" xmlns:xlink="http://www.w3.org/1999/xlink" x="0px" y="0px"
	 viewBox="0 0 401.4 123" style="enable-background:new 0 0 401.4 123;" xml:space="preserve">
<style type="text/css">
	.st0{fill:#231F20;}
	.st1{fill:#231F20;stroke:#000000;stroke-width:0.25;stroke-miterlimit:10;}
	.st2{fill:#282827;}
	.st3{fill:#0BA74B;}
</style>
<g>
	<path class="st0" d="M187.9,108.5c1.3,0,2.2,0.3,3,0.8c0.7,0.5,1.1,1.3,1.1,2.3c0,0.7-0.2,1.4-0.5,1.9c-0.4,0.5-0.9,0.9-1.5,1.1
		s-1.3,0.4-2.1,0.4l-0.4-1.3c1,0,1.9,0.1,2.6,0.4c0.8,0.3,1.4,0.7,1.8,1.2c0.4,0.5,0.7,1.1,0.7,1.8c0,0.7-0.1,1.2-0.4,1.7
		c-0.2,0.5-0.6,0.8-0.9,1.1c-0.4,0.3-0.8,0.5-1.3,0.6s-1,0.2-1.6,0.2h-4v-12h3.5V108.5z M188.1,113.4c0.5,0,0.8-0.1,1-0.4
		s0.3-0.6,0.3-1s-0.1-0.7-0.4-0.9c-0.3-0.2-0.7-0.3-1.1-0.3h-1.3v2.6C186.6,113.4,188.1,113.4,188.1,113.4z M188.2,118.3
		c0.3,0,0.7,0,0.9-0.1c0.3-0.1,0.5-0.2,0.7-0.4c0.2-0.2,0.2-0.5,0.2-0.8s-0.1-0.6-0.3-0.8c-0.2-0.2-0.4-0.3-0.8-0.4
		c-0.3-0.1-0.6-0.1-1-0.1h-1.4v2.6C186.5,118.3,188.2,118.3,188.2,118.3z"/>
	<path class="st0" d="M197.4,116.8l-4.4-8.3h2.9l3.1,6.2h-0.7l3.1-6.3h2.9l-4.5,8.3v3.7h-2.4L197.4,116.8L197.4,116.8z"/>
	<path class="st0" d="M222.1,121l-9.1-8.2l0.7,0.4v7.4h-2.4V108h0.1l8.9,8.2l-0.5-0.2v-7.5h2.4L222.1,121L222.1,121z"/>
	<path class="st0" d="M227.4,116.1c0,0.4,0.1,0.7,0.3,1.1c0.2,0.3,0.5,0.6,0.9,0.8c0.4,0.2,0.8,0.3,1.2,0.3c0.5,0,0.9-0.1,1.3-0.3
		c0.4-0.2,0.7-0.5,0.9-0.8s0.3-0.7,0.3-1.1v-7.6h2.3v7.6c0,0.9-0.2,1.7-0.7,2.3c-0.4,0.7-1,1.2-1.8,1.6c-0.7,0.4-1.6,0.6-2.5,0.6
		s-1.7-0.2-2.4-0.6s-1.3-0.9-1.8-1.6s-0.7-1.5-0.7-2.3v-7.6h2.4v7.6H227.4z"/>
	<path class="st0" d="M236.8,108.5h8.1v2.3H242v9.7h-2.4v-9.7h-2.8V108.5z"/>
	<path class="st0" d="M250.8,108.5c0.8,0,1.4,0.1,2,0.3c0.6,0.2,1.1,0.5,1.5,0.8c0.4,0.4,0.7,0.8,0.9,1.3s0.3,1.1,0.3,1.7
		c0,0.5-0.1,1-0.2,1.5s-0.4,0.9-0.7,1.3s-0.8,0.7-1.3,1s-1.2,0.4-2,0.4h-1.7v3.8h-2.4v-12h3.6V108.5z M251.3,114.4
		c0.4,0,0.7-0.1,0.9-0.2s0.4-0.3,0.6-0.5c0.1-0.2,0.2-0.4,0.3-0.6s0.1-0.4,0.1-0.6c0-0.1,0-0.3-0.1-0.5c0-0.2-0.1-0.4-0.2-0.6
		c-0.1-0.2-0.3-0.4-0.5-0.5s-0.6-0.2-1-0.2h-1.7v3.6L251.3,114.4L251.3,114.4z M253.5,115.9l3,4.6h-2.8l-3-4.6H253.5z"/>
	<path class="st0" d="M258.4,108.5h2.4v12h-2.4V108.5z"/>
	<path class="st0" d="M270.3,111.4c-0.5-0.2-0.9-0.5-1.4-0.6c-0.5-0.2-0.9-0.2-1.3-0.2c-0.5,0-0.9,0.1-1.2,0.3
		c-0.3,0.2-0.4,0.5-0.4,0.9c0,0.3,0.1,0.5,0.3,0.8c0.2,0.2,0.5,0.4,0.9,0.6s0.7,0.3,1.1,0.5c0.3,0.1,0.7,0.3,1,0.5s0.7,0.4,0.9,0.7
		c0.3,0.3,0.5,0.6,0.7,1s0.2,0.9,0.2,1.5s-0.2,1.2-0.5,1.7s-0.8,0.9-1.4,1.3c-0.6,0.3-1.4,0.5-2.3,0.5c-0.5,0-0.9,0-1.4-0.1
		s-0.9-0.2-1.4-0.4c-0.5-0.2-0.9-0.4-1.3-0.7l1-1.8c0.3,0.2,0.6,0.4,0.9,0.5c0.3,0.2,0.7,0.3,1,0.4s0.6,0.1,0.9,0.1s0.6,0,0.9-0.1
		s0.5-0.2,0.7-0.4c0.2-0.2,0.3-0.5,0.3-0.8c0-0.2-0.1-0.5-0.2-0.7s-0.4-0.4-0.6-0.5c-0.3-0.2-0.6-0.3-0.9-0.4
		c-0.4-0.1-0.8-0.3-1.1-0.5c-0.4-0.2-0.8-0.4-1.1-0.7c-0.3-0.3-0.6-0.6-0.8-1c-0.2-0.4-0.3-0.9-0.3-1.5c0-0.7,0.2-1.3,0.5-1.8
		s0.7-0.9,1.3-1.2s1.2-0.5,2-0.5c1,0,1.8,0.1,2.4,0.3s1.1,0.5,1.6,0.8L270.3,111.4z"/>
	<path class="st0" d="M279.8,111.4c-0.5-0.2-0.9-0.5-1.4-0.6c-0.5-0.2-0.9-0.2-1.3-0.2c-0.5,0-0.9,0.1-1.2,0.3
		c-0.3,0.2-0.4,0.5-0.4,0.9c0,0.3,0.1,0.5,0.3,0.8c0.2,0.2,0.5,0.4,0.9,0.6s0.7,0.3,1.1,0.5c0.3,0.1,0.7,0.3,1,0.5s0.7,0.4,0.9,0.7
		c0.3,0.3,0.5,0.6,0.7,1s0.2,0.9,0.2,1.5s-0.2,1.2-0.5,1.7s-0.8,0.9-1.4,1.3c-0.6,0.3-1.4,0.5-2.3,0.5c-0.5,0-0.9,0-1.4-0.1
		s-0.9-0.2-1.4-0.4c-0.5-0.2-0.9-0.4-1.3-0.7l1-1.8c0.3,0.2,0.6,0.4,0.9,0.5c0.3,0.2,0.7,0.3,1,0.4s0.6,0.1,0.9,0.1s0.6,0,0.9-0.1
		s0.5-0.2,0.7-0.4c0.2-0.2,0.3-0.5,0.3-0.8c0-0.2-0.1-0.5-0.2-0.7s-0.4-0.4-0.6-0.5c-0.3-0.2-0.6-0.3-0.9-0.4
		c-0.4-0.1-0.8-0.3-1.1-0.5c-0.4-0.2-0.8-0.4-1.1-0.7c-0.3-0.3-0.6-0.6-0.8-1c-0.2-0.4-0.3-0.9-0.3-1.5c0-0.7,0.2-1.3,0.5-1.8
		s0.7-0.9,1.3-1.2s1.2-0.5,2-0.5c1,0,1.8,0.1,2.4,0.3s1.1,0.5,1.6,0.8L279.8,111.4z"/>
	<path class="st0" d="M282.9,108.5h2.4v9.7h5.7v2.3h-8v-12H282.9z"/>
	<path class="st0" d="M293.4,108.5h2.4v12h-2.4V108.5z"/>
	<path class="st0" d="M298.9,120.5V108l0,0l6.7,9.5l-1-0.2l6.7-9.2l0,0v12.5h-2.4v-7.2l0.1,1.2l-4.1,5.8l0,0l-4.2-5.8l0.4-1.1v7.1
		h-2.2V120.5z"/>
</g>
<g>
	<path class="st0" d="M388.2,9h-0.4v2.2h-1.3V5.6h1.6c1.5,0,2.1,0.6,2.1,1.7c0,0.7-0.3,1.2-0.9,1.5l1.2,2.4h-1.4L388.2,9z
		 M388.2,8.1c0.5,0,0.8-0.3,0.8-0.9s-0.2-0.8-0.8-0.8h-0.3v1.7H388.2z"/>
</g>
<g>
	<path class="st1" d="M388.4,13.1c-2.6,0-4.6-2.1-4.6-4.6c0-2.6,2.1-4.6,4.6-4.6S393,6,393,8.5S390.9,13.1,388.4,13.1z M388.4,4.5
		c-2.2,0-3.9,1.7-3.9,3.9c0,2.1,1.7,3.9,3.9,3.9s3.9-1.7,3.9-3.9C392.3,6.3,390.5,4.5,388.4,4.5z"/>
</g>
<path class="st2" d="M197.3,50.2c0.4-0.1,0.7,0,0.9,0.2s0.2,0.6,0,0.9c-0.2,0.3-0.4,0.7-0.8,1.1c-0.4,0.4-0.9,0.8-1.5,1.2
	s-1.4,0.7-2.3,0.9c-0.9,0.3-2,0.4-3.2,0.4c-1.7,0-3.2-0.3-4.3-1c-1.2-0.7-2-1.5-2.4-2.4c-0.1-0.2-0.3-0.3-0.5-0.3s-0.4,0.1-0.5,0.3
	c-0.1,0.1-0.3,0.3-0.8,0.7c-0.4,0.4-1.1,0.8-1.9,1.2c-0.8,0.4-1.8,0.8-2.9,1.2c-1.1,0.4-2.4,0.5-3.9,0.5c-2.5,0-4.6-0.4-6.3-1.1
	c-1.7-0.7-3.1-1.6-4.1-2.7c-1.1-1.1-1.8-2.4-2.3-3.8c-0.5-1.4-0.7-2.8-0.7-4.1c0-2.2,0.6-4.2,1.9-5.8c1.3-1.7,2.9-2.9,4.9-3.7
	c1.1-0.4,2.2-0.7,3.3-0.9c1.2-0.2,2.3-0.4,3.5-0.6c1.2-0.2,2.3-0.4,3.4-0.7c1.1-0.3,2.2-0.8,3.1-1.5c1-0.7,1.8-1.6,2.2-2.7
	s0.6-2.3,0.6-3.5c0-0.9-0.1-1.8-0.4-2.6s-0.6-1.6-1-2.2s-0.9-1.1-1.5-1.5s-1.2-0.5-1.9-0.5c-1.2,0-2.1,0.3-2.7,0.9
	c-0.6,0.6-1,1.4-1.3,2.2c-0.3,0.9-0.6,1.8-0.9,2.7c-0.3,0.9-0.7,1.7-1.3,2.4c-0.5,0.5-1.2,0.9-2,1.2c-0.8,0.3-1.6,0.4-2.3,0.4
	c-0.8,0-1.4-0.1-2-0.4s-1.1-0.6-1.5-1s-0.7-0.9-0.9-1.5s-0.3-1.2-0.3-1.8c0-0.9,0.2-1.7,0.6-2.6c0.4-0.9,1.2-1.7,2.3-2.4
	c1.1-0.7,2.5-1.3,4.4-1.7c1.8-0.4,4.1-0.7,7-0.7c3.1,0,5.8,0.3,8,0.9c2.2,0.6,4,1.6,5.4,2.8c1.4,1.2,2.4,2.7,3,4.5s0.9,3.8,0.9,6.1
	c0,2.7-0.1,5.3-0.3,7.7s-0.3,4.5-0.4,6.3c-0.1,1.8,0,3.4,0.1,4.6s0.5,1.9,1.2,2.2c0.3,0.1,0.6,0.2,1.1,0.2
	C196.3,50.3,196.8,50.3,197.3,50.2z M182.6,31.4c0-0.2-0.1-0.3-0.2-0.3c-0.1-0.1-0.3,0-0.4,0.1c-0.2,0.3-0.4,0.5-0.6,0.7
	c-0.2,0.2-0.4,0.5-0.7,0.8c-0.5,0.6-1.1,1.1-1.6,1.6c-0.6,0.5-1.1,1-1.7,1.5c-0.6,0.4-1.1,0.9-1.7,1.3s-1.1,0.9-1.5,1.5
	c-0.7,0.8-1.3,1.8-1.6,2.8c-0.4,1-0.5,2.1-0.5,3.2c0,0.8,0.1,1.5,0.3,2.3s0.6,1.5,1,2.1c0.5,0.6,1.1,1.1,1.8,1.5s1.6,0.6,2.6,0.6
	s1.8-0.2,2.5-0.6c0.6-0.4,1.1-0.9,1.5-1.5s0.6-1.2,0.7-1.8c0.1-0.6,0.2-1.1,0.2-1.4V31.4H182.6z"/>
<path class="st2" d="M224,48c0.5-0.3,0.9-0.2,1.1,0.1c0.2,0.3,0.2,0.6,0,1c-0.5,0.9-1.1,1.7-1.9,2.5c-0.8,0.7-1.7,1.4-2.6,1.9
	c-1,0.5-2.1,1-3.2,1.3c-1.2,0.3-2.4,0.4-3.7,0.4c-1.4,0-2.8-0.2-4.2-0.5c-1.4-0.4-2.6-1-3.7-2c-1.1-0.9-2-2.2-2.7-3.8s-1-3.7-1-6.2
	V18.9c0-0.2-0.1-0.3-0.3-0.3h-5c-0.7,0-1.1,0-1.2-0.1c-0.2-0.1-0.2-0.3-0.2-0.5c0-0.4,0.2-0.8,0.5-1.2c0.3-0.4,0.7-0.6,1.2-0.6h4.9
	c0.2,0,0.3-0.1,0.3-0.3V5.8c0-0.6,0.3-1,0.8-1.1c0.7-0.1,1.5-0.3,2.3-0.6s1.6-0.5,2.4-0.8c0.8-0.3,1.6-0.7,2.4-1.1s1.5-0.8,2.2-1.2
	c0.3-0.2,0.6-0.2,0.9-0.1c0.3,0.1,0.4,0.4,0.4,0.8v14.1c0,0.2,0.1,0.3,0.3,0.3h23.7c0.7,0,1.1,0,1.2,0.1c0.2,0.1,0.2,0.3,0.2,0.5
	c0,0.4-0.2,0.8-0.6,1.2c-0.4,0.4-0.8,0.6-1.3,0.6h-23.3c-0.2,0-0.3,0.1-0.3,0.3v25.9c0,0.8,0.1,1.4,0.4,2c0.3,0.6,0.6,1.1,1.1,1.5
	c0.4,0.4,0.9,0.7,1.5,0.9s1.2,0.3,1.7,0.3c1.2,0,2.3-0.2,3.4-0.5C222.6,48.6,223.4,48.3,224,48z"/>
<path class="st2" d="M271.9,52.9c0.2,0.1,0.4,0.1,0.5,0.3c0.1,0.1,0.1,0.3,0.1,0.4c0,0.1-0.1,0.3-0.2,0.4s-0.3,0.2-0.5,0.2h-15.3
	c-0.3,0-0.6-0.1-0.7-0.2c-0.2-0.1-0.3-0.4-0.3-0.7v-2.5c-1.2,1.2-2.7,2.2-4.6,3.1c-1.9,0.9-4.2,1.3-7,1.3c-2.3,0-4.2-0.3-5.8-0.8
	s-2.9-1.2-3.9-2s-1.8-1.8-2.4-2.9c-0.5-1.1-0.9-2.2-1.2-3.4c-0.2-1.2-0.4-2.4-0.4-3.5c0-1.2-0.1-2.3-0.1-3.3V22.8
	c0-1.1-0.2-2-0.7-2.7s-1.6-1.5-3.4-1.5c-0.5-0.1-1.6-1.8-1.5-1.9s0.1-0.3,0.2-0.4c0.1-0.1,0.3-0.2,0.5-0.2h15.3c0.7,0,1,0.4,1,1.1
	v24.6c0,1.1,0.1,2.2,0.3,3.4c0.2,1.1,0.5,2.1,1,3.1c0.5,0.9,1.2,1.7,2.1,2.2c0.9,0.6,2.1,0.8,3.6,0.8c1.6,0,2.8-0.3,3.7-1
	s1.6-1.5,2.1-2.5s0.8-2.1,0.9-3.3c0.1-1.2,0.2-2.4,0.2-3.5V22.8c0-1.1-0.2-2-0.7-2.7s-1-1.2-1.5-1.6c-0.6-0.4-1.1-0.6-1.7-0.8
	c-0.5-0.1-0.9-0.2-1.2-0.3c-0.2,0-0.4-0.1-0.5-0.3c-0.1-0.1-0.1-0.3-0.1-0.4s0.1-0.3,0.2-0.4c0.1-0.1,0.3-0.2,0.5-0.2h15.3
	c0.7,0,1,0.4,1,1.1v30.2c0,1.1,0.2,2,0.7,2.7c0.4,0.7,1,1.2,1.5,1.6c0.6,0.4,1.1,0.6,1.7,0.8C271.3,52.7,271.7,52.8,271.9,52.9z"/>
<path class="st2" d="M300.2,15.1c1.2,0,2.2,0.1,3,0.4c0.8,0.3,1.5,0.7,2,1.2s0.9,1.1,1.1,1.7c0.2,0.7,0.3,1.4,0.3,2.1
	c0,1.3-0.4,2.4-1.3,3.2c-0.9,0.8-2,1.1-3.4,1.1c-1.1,0-2-0.2-2.6-0.6s-1.1-0.8-1.6-1.3c-0.4-0.5-0.8-0.9-1.2-1.3
	c-0.4-0.4-0.8-0.6-1.3-0.6s-1,0.2-1.5,0.5s-1.1,0.9-1.5,1.8c-0.5,0.9-0.8,2.1-1.2,3.7c-0.3,1.6-0.5,3.6-0.5,6.1v14.6
	c0,1.1,0.2,2,0.6,2.7c0.4,0.6,0.8,1.1,1.3,1.5c0.5,0.3,1,0.6,1.5,0.7c0.5,0.1,0.8,0.2,1.1,0.2c0.2,0.1,0.4,0.1,0.5,0.3
	c0.1,0.1,0.1,0.3,0.1,0.4c0,0.1-0.1,0.3-0.2,0.4s-0.3,0.2-0.5,0.2h-4.2h-0.4h-10.6h-0.4h-4.2c-0.2,0-0.4-0.1-0.5-0.2
	c-0.1-0.1-0.2-0.2-0.2-0.4c0-0.1,0-0.3,0.1-0.4c0.1-0.1,0.3-0.2,0.5-0.3c0.2,0,0.6-0.1,1.1-0.2c0.5-0.1,1-0.4,1.5-0.7
	s0.9-0.8,1.3-1.5c0.4-0.6,0.6-1.5,0.6-2.7V24c0-0.4-0.2-0.6-0.5-0.7c-0.1,0-0.3,0-0.6-0.1c-0.4-0.1-0.8-0.2-1.2-0.3
	c-0.4-0.1-0.9-0.2-1.2-0.3c-0.4-0.1-0.6-0.1-0.7-0.2c-0.4-0.1-0.6-0.3-0.6-0.6c0-0.3,0.2-0.5,0.6-0.6c1.1-0.3,2.3-0.6,3.6-1
	c1.3-0.4,2.6-0.9,3.9-1.5c1.3-0.5,2.5-1.1,3.8-1.8c1.2-0.6,2.3-1.3,3.2-1.9c0.3-0.2,0.5-0.2,0.8-0.2s0.4,0.2,0.4,0.6v6
	c1-2.2,2.3-3.8,4-4.8C296.2,15.6,298.1,15.1,300.2,15.1z"/>
<path class="st2" d="M318.6,31.8c-0.5,0-0.7,0.2-0.7,0.7c0,2.9,0.3,5.3,0.8,7.4c0.5,2,1.2,3.7,2.2,5s2.2,2.3,3.6,2.9
	c1.4,0.6,3.1,0.9,5,0.9c1.5,0,2.8-0.2,3.9-0.5s2.1-0.7,3-1.1c0.8-0.4,1.5-0.8,2.1-1.2c0.5-0.4,0.9-0.6,1.2-0.7
	c0.4-0.2,0.7-0.1,0.9,0.1c0.2,0.2,0.2,0.6,0,1.1c-0.1,0.2-0.3,0.5-0.6,1c-0.3,0.5-0.7,1.1-1.3,1.7c-0.6,0.6-1.3,1.3-2.1,2
	c-0.8,0.7-1.8,1.3-3,1.9c-1.2,0.6-2.5,1.1-4,1.5s-3.2,0.6-5,0.6c-2.8,0-5.3-0.4-7.6-1.3c-2.3-0.9-4.2-2.2-5.8-3.9
	c-1.6-1.7-2.9-3.7-3.7-6.2c-0.9-2.4-1.3-5.1-1.3-8.2c0-3.3,0.5-6.3,1.6-8.8c1.1-2.6,2.5-4.7,4.3-6.4c1.8-1.7,3.8-3,6-3.9
	s4.5-1.3,6.9-1.3c2.2,0,4.1,0.3,5.8,0.9c1.7,0.6,3.1,1.4,4.3,2.4c1.2,1,2.2,2.1,3,3.2c0.8,1.2,1.4,2.4,1.9,3.6s0.8,2.3,1,3.3
	s0.3,1.9,0.3,2.5c0,0.3-0.1,0.5-0.3,0.6c-0.2,0.1-0.4,0.2-0.7,0.2C340.3,31.8,318.6,31.8,318.6,31.8z M318.1,29
	c-0.1,0.4,0.1,0.5,0.5,0.5c0.1,0,0.4,0,0.8,0c0.5,0,1.1,0,1.7-0.1c0.7,0,1.4-0.1,2.2-0.1c0.8,0,1.5-0.1,2.3-0.1c0.7,0,1.3,0,1.9-0.1
	c0.5,0,0.8,0,1-0.1c0.4,0,0.9-0.2,1.4-0.6s0.7-1,0.7-1.9c0-0.8-0.1-1.8-0.3-2.8c-0.2-1.1-0.6-2.1-1.1-3c-0.5-1-1.1-1.8-1.9-2.4
	c-0.8-0.7-1.7-1-2.8-1c-0.9,0-1.6,0.2-2.3,0.7c-0.6,0.5-1.2,1.1-1.7,1.8c-0.5,0.7-0.8,1.6-1.2,2.5c-0.3,0.9-0.6,1.8-0.8,2.6
	c-0.2,0.9-0.3,1.6-0.4,2.4C318.2,28.1,318.2,28.6,318.1,29z"/>
<path class="st2" d="M347.3,12.6c-0.4-0.4-0.7-0.7-1.1-1.1c-0.4-0.4-0.7-0.8-1-1.2s-0.5-0.9-0.7-1.4s-0.3-1.1-0.3-1.8
	c0-0.8,0.2-1.6,0.5-2.3s0.7-1.4,1.3-1.9c0.5-0.5,1.2-1,1.9-1.3c0.7-0.3,1.6-0.5,2.4-0.5c0.9,0,1.7,0.2,2.4,0.5
	c0.7,0.4,1.4,0.8,1.9,1.5c0.5,0.6,0.9,1.3,1.2,2.1c0.3,0.8,0.4,1.6,0.4,2.5c0,1.9-0.3,3.6-0.9,5.2s-1.5,3-2.5,4.2
	c-1,1.2-2.1,2.3-3.4,3.3c-1.2,0.9-2.4,1.7-3.6,2.3c-0.4,0.2-0.7,0.2-0.9-0.1c-0.2-0.3-0.1-0.6,0.3-1c0.6-0.6,1.1-1.3,1.6-2.1
	c0.5-0.8,0.8-1.6,1.1-2.5c0.2-0.8,0.3-1.7,0.3-2.4C348.1,13.7,347.8,13.1,347.3,12.6z"/>
<path class="st2" d="M357,51.2c0-0.1-0.1-0.5-0.2-1.2s-0.3-1.6-0.4-2.5s-0.3-1.7-0.4-2.5s-0.2-1.3-0.2-1.5c-0.1-0.4,0.1-0.6,0.3-0.7
	c0.3-0.1,0.5,0,0.6,0.2c0,0.1,0.2,0.4,0.5,0.9s0.8,1.1,1.4,1.9c0.6,0.7,1.3,1.5,2.1,2.4c0.8,0.8,1.8,1.6,2.8,2.3s2.1,1.3,3.3,1.8
	c1.2,0.5,2.5,0.7,3.9,0.7c1.6,0,2.9-0.4,3.8-1.3c0.9-0.9,1.4-2,1.4-3.5c0-0.8-0.1-1.5-0.3-2.2s-0.6-1.5-1.3-2.2
	c-0.6-0.7-1.6-1.5-2.8-2.2c-1.2-0.7-2.8-1.4-4.8-2.2c-1.9-0.6-3.4-1.4-4.7-2.3s-2.3-1.9-3.1-3c-0.8-1.1-1.4-2.3-1.7-3.6
	c-0.4-1.3-0.5-2.6-0.5-4.1c0-1.1,0.2-2.3,0.6-3.6c0.4-1.3,1.1-2.5,2.1-3.7c1-1.1,2.4-2.1,4.2-2.9c1.8-0.8,4-1.2,6.8-1.2
	c1.7,0,3.4,0.1,4.8,0.4c1.5,0.3,2.8,0.6,3.9,0.9c1.1,0.4,2,0.7,2.7,1s1,0.5,1.1,0.5c0.2,0.1,0.3,0.2,0.3,0.2c0,0.1,0.1,0.2,0.1,0.3
	c0,0.1,0.1,0.4,0.2,1.2c0.1,0.7,0.3,1.5,0.4,2.3s0.3,1.6,0.4,2.3c0.1,0.7,0.2,1.1,0.2,1.2c0.1,0.3,0,0.5-0.3,0.6s-0.5,0-0.7-0.2
	c-0.4-0.6-1-1.3-1.9-2.3s-1.9-1.9-3.1-2.8s-2.5-1.7-4-2.4c-1.5-0.7-3-1-4.7-1s-3,0.5-3.8,1.4s-1.2,2.1-1.2,3.4c0,0.7,0.1,1.3,0.3,2
	c0.2,0.6,0.6,1.2,1.3,1.8c0.6,0.6,1.6,1.2,2.8,1.8c1.2,0.6,2.9,1.2,4.9,1.8c4.1,1.3,7.2,3,9.3,5.1c2.1,2.2,3.2,5,3.2,8.4
	c0,1.7-0.3,3.3-0.9,4.8s-1.5,2.8-2.7,3.8c-1.2,1.1-2.8,1.9-4.7,2.5c-1.9,0.6-4.2,0.9-6.8,0.9c-2.2,0-4.2-0.2-5.9-0.5
	c-1.7-0.3-3.2-0.7-4.4-1.1c-1.2-0.4-2.1-0.8-2.8-1.1c-0.7-0.4-1.1-0.6-1.2-0.7C357.1,51.4,357.1,51.4,357,51.2
	C357.1,51.4,357.1,51.3,357,51.2z"/>
<g>
	<path class="st2" d="M158.5,53.6c0.2,0.1,0.4,0.1,0.5,0.3c0.1,0.1,0.1,0.3,0.1,0.4c0,0.1-0.1,0.3-0.2,0.4c-0.1,0.1-0.3,0.2-0.5,0.2
		h-5H153h-10.8h-0.4h-5c-0.2,0-0.4-0.1-0.5-0.2c-0.1-0.1-0.2-0.2-0.2-0.4c0-0.1,0-0.3,0.1-0.4c0.1-0.1,0.3-0.2,0.5-0.3
		c0.2,0,0.6-0.1,1.2-0.3c0.6-0.2,1.1-0.4,1.7-0.8c0.6-0.4,1.1-0.9,1.6-1.6c0.5-0.7,0.7-1.6,0.7-2.8V32.4V32v-2.4
		c0-1.2-0.1-2.4-0.3-3.7c-0.2-1.3-0.5-2.4-1-3.5c-0.5-1-1.2-1.9-2.2-2.6s-2.2-1-3.8-1c-1.7,0-2.9,0.3-3.9,1c-0.9,0.7-1.6,1.5-2,2.4
		c-0.4,1-0.7,2-0.8,3.1c-0.1,1.1-0.1,2.1-0.1,2.9v19.7c0,1.1,0.2,2.1,0.7,2.8s1,1.2,1.6,1.6c0.6,0.4,1.2,0.7,1.7,0.8
		c0.6,0.2,0.9,0.3,1.2,0.3c0.2,0.1,0.4,0.1,0.5,0.3c0.1,0.1,0.1,0.3,0.1,0.4c0,0.1-0.1,0.3-0.2,0.4c-0.1,0.1-0.3,0.2-0.5,0.2h-21.5
		c-0.2,0-0.4-0.1-0.5-0.2c-0.1-0.1-0.2-0.2-0.2-0.4c0-0.1,0-0.3,0.1-0.4c0.1-0.1,0.3-0.2,0.5-0.3c0.2,0,0.6-0.1,1.2-0.3
		s1.1-0.4,1.7-0.8c0.6-0.4,1.1-0.9,1.6-1.6c0.5-0.7,0.7-1.6,0.7-2.8V24.3c0-0.4-0.2-0.6-0.5-0.7c-0.1,0-0.3,0-0.6-0.1
		s-0.8-0.2-1.2-0.3s-0.9-0.2-1.3-0.3c-0.4-0.1-0.6-0.1-0.7-0.2c-0.4-0.1-0.6-0.3-0.6-0.6c0-0.3,0.2-0.5,0.6-0.6
		c1.1-0.3,2.3-0.6,3.6-1c1.3-0.4,2.6-0.9,3.9-1.5s2.6-1.2,3.8-1.8c1.2-0.6,2.3-1.3,3.3-1.9c0.3-0.2,0.5-0.2,0.8-0.2s0.4,0.2,0.4,0.6
		v3.7c0.6-0.5,1.3-1.1,2.1-1.6s1.6-0.9,2.6-1.3s2-0.7,3.2-0.9s2.5-0.3,3.9-0.3c2.3,0,4.3,0.3,5.9,0.8c1.6,0.5,2.9,1.2,3.9,2.1
		s1.8,1.8,2.4,3c0.6,1.1,1,2.3,1.2,3.5s0.4,2.4,0.4,3.6s0.1,2.3,0.1,3.3v0.2v16.5c0,1.1,0.2,2.1,0.7,2.8s1,1.2,1.6,1.6
		c0.6,0.4,1.2,0.7,1.7,0.8C157.9,53.5,158.3,53.6,158.5,53.6z"/>
</g>
<g>
	<path class="st2" d="M113.4,68.1h13.1v3.1h-9.8v6.5h8.6v3.1h-8.6v9.1h-3.2L113.4,68.1L113.4,68.1z"/>
	<path class="st2" d="M164.7,68.1h3.2v21.8h-3.2V68.1z"/>
	<path class="st2" d="M226.5,90.6L209.7,74l0.9,0.3l0.1,15.6h-3.2V67.4h0.2l16.6,16.7l-0.8-0.2l-0.1-15.8h3.2L226.5,90.6L226.5,90.6
		z"/>
	<path class="st2" d="M266.3,68.1h14.3v3.1h-11.1v6.2h9.9v3.1h-9.9v6.3H281v3.1h-14.7V68.1z"/>
	<path class="st2" d="M330.8,72.3c-0.8-0.4-1.6-0.7-2.5-1s-1.7-0.4-2.6-0.4c-1.1,0-2,0.3-2.7,0.8s-1,1.2-1,2.1
		c0,0.6,0.2,1.2,0.7,1.6c0.4,0.5,1,0.9,1.7,1.2c0.7,0.3,1.4,0.7,2.2,1c0.7,0.2,1.3,0.5,2,0.9c0.7,0.3,1.2,0.7,1.8,1.2
		c0.5,0.5,1,1.1,1.3,1.8c0.3,0.7,0.5,1.6,0.5,2.6c0,1.2-0.3,2.2-0.9,3.2c-0.6,0.9-1.4,1.7-2.5,2.2c-1.1,0.6-2.4,0.8-3.9,0.8
		c-0.9,0-1.8-0.1-2.7-0.3c-0.9-0.2-1.7-0.5-2.5-0.8s-1.5-0.7-2.1-1.2l1.4-2.5c0.5,0.3,1,0.7,1.7,1c0.6,0.3,1.3,0.6,1.9,0.7
		c0.7,0.2,1.3,0.3,1.9,0.3c0.7,0,1.3-0.1,2-0.3c0.6-0.2,1.2-0.6,1.6-1.1s0.6-1.1,0.6-1.9c0-0.7-0.2-1.3-0.6-1.7
		c-0.4-0.5-0.9-0.9-1.5-1.2c-0.6-0.3-1.3-0.6-2-0.9s-1.4-0.6-2.1-0.9s-1.4-0.7-2-1.2s-1.1-1-1.5-1.7s-0.6-1.5-0.6-2.5
		c0-1.2,0.3-2.2,0.8-3c0.6-0.9,1.3-1.6,2.3-2.1s2.1-0.8,3.4-0.8c1.5,0,2.7,0.2,3.8,0.5c1.1,0.4,2,0.8,2.9,1.3L330.8,72.3z"/>
	<path class="st2" d="M368.7,68.1h14.5v3.1h-5.7v18.7h-3.2V71.2h-5.6L368.7,68.1L368.7,68.1z"/>
</g>
<g>
	<path class="st3" d="M90,1c0,16.4-3.2,60.8-21.6,87.9c-8,11.8-20,14.3-30.1,13.8c-2.3-0.1-4.5-0.4-6.7-0.9
		c-1.5,6.3-3.2,12.9-3.3,19.2c0,0.2-0.2,0.4-0.4,0.4c-2.1-0.2-4.9-2.2-7.6-2c-0.2,0-0.4-0.2-0.3-0.4c6.3-32.6,25.9-71.3,46.8-96.2
		C29.5,55.9,18.3,95.4,18.3,95.4C12,91.1,6,86.8,2.9,77.5C0.1,69.1,2.7,60,10.1,49.1C29.1,21.2,67.3,2,90,1z"/>
</g>
</svg>

