<svg id="Layer_1" data-name="Layer 1" xmlns="http://www.w3.org/2000/svg" viewBox="0 0 60 60"><defs><style>.cls-1{fill:#1fb25a;}</style></defs><path class="cls-1" d="M40.78,28.87A16.07,16.07,0,1,0,13.9,17a16.36,16.36,0,0,0,5.22,11.91C11.35,30.05,5.34,36.25,5.34,43.73v13.1A2.22,2.22,0,0,0,7.6,59.09H52.4a2.22,2.22,0,0,0,2.26-2.26V43.63C54.56,36.15,48.56,30.05,40.78,28.87Z"/><circle class="cls-1" cx="29.95" cy="16.96" r="11.62"/><path class="cls-1" d="M50.13,54.56H9.77V43.63c0-5.8,5.41-10.53,12-10.53H38.12c6.6,0,12,4.73,12,10.53Z"/></svg>