<svg id="Layer_1" data-name="Layer 1" xmlns="http://www.w3.org/2000/svg" viewBox="0 0 60 60"><defs><style>.cls-1{fill:#1fb25a;}.cls-2{fill:none;}</style></defs><path class="cls-1" d="M12.87,47.42H52.65a1.41,1.41,0,0,0,.35-.05h0a1.54,1.54,0,0,0,1.54-1.54V2.34A1.54,1.54,0,0,0,53,.81H12.88A7.43,7.43,0,0,0,5.45,8.23s0,.11,0,.16c0,3.78,0,38.54,0,43.11,0,.09,0,.18,0,.27a7.44,7.44,0,0,0,7,7.4l.23,0H53a1.54,1.54,0,0,0,1.54-1.54V51.86a1.54,1.54,0,1,0-3.07,0v4.26H12.87a4.36,4.36,0,0,1-4.34-4.18s0-.08,0-.12,0-.17,0-.31a4.36,4.36,0,0,1,4.34-4.09ZM13.92,8.23a1.54,1.54,0,1,1,3.08,0V39.49a1.54,1.54,0,1,1-3.08,0Zm0,0"/><rect class="cls-2" x="6.36" y="3.29" width="47.64" height="56.06"/></svg>