<svg xmlns="http://www.w3.org/2000/svg" width="41.126" height="29.641" viewBox="0 0 41.126 29.641">
  <g id="Group_690" data-name="Group 690" transform="translate(-132 -401.228)">
    <path id="quotation-mark" d="M9.4,30.571A9.087,9.087,0,0,1,.278,21.449c-.036-.784.043-1.394.127-2.915C.639,14.1,2.165,9.252,5.271,5.922c2.844-3.047,6.583-4.8,9.157-4.992,2.081,0,3.244,2.955,1.664,3.745A26.358,26.358,0,0,0,11.1,8a8.94,8.94,0,0,0-2.689,4.578,8.937,8.937,0,0,1,7.327,2.407,8.8,8.8,0,0,1,2.66,6.46,8.8,8.8,0,0,1-2.66,6.462A8.388,8.388,0,0,1,9.4,30.571Z" transform="translate(131.73 400.298)"/>
    <path id="quotation-mark-2" data-name="quotation-mark" d="M9.4,30.571A9.087,9.087,0,0,1,.278,21.449c-.036-.784.043-1.394.127-2.915C.639,14.1,2.165,9.252,5.271,5.922c2.844-3.047,6.583-4.8,9.157-4.992,2.081,0,3.244,2.955,1.664,3.745A26.358,26.358,0,0,0,11.1,8a8.94,8.94,0,0,0-2.689,4.578,8.937,8.937,0,0,1,7.327,2.407,8.8,8.8,0,0,1,2.66,6.46,8.8,8.8,0,0,1-2.66,6.462A8.388,8.388,0,0,1,9.4,30.571Z" transform="translate(154.73 400.298)"/>
  </g>
</svg>
