<svg xmlns="http://www.w3.org/2000/svg" xmlns:xlink="http://www.w3.org/1999/xlink" width="16.915" height="17.427" viewBox="0 0 16.915 17.427">
  <defs>
    <clipPath id="clip-path">
      <rect id="Rectangle_554" data-name="Rectangle 554" width="16.915" height="17.427" fill="#fff"/>
    </clipPath>
  </defs>
  <g id="Group_630" data-name="Group 630" transform="translate(0 0)">
    <g id="Group_604" data-name="Group 604" transform="translate(0 0)" clip-path="url(#clip-path)">
      <path id="Path_325" data-name="Path 325" d="M16.9,23.449,15.85,14.006a1.751,1.751,0,0,0-1.74-1.558h-.9a.153.153,0,0,0-.153.155l0,.283a.153.153,0,0,0,.153.151H14.1a1.169,1.169,0,0,1,1.163,1.041l1.047,9.415a1.892,1.892,0,0,1-1.888,2.134H2.511a1.877,1.877,0,0,1-.58-.081A1.911,1.911,0,0,1,.6,23.514l1.049-9.437a1.169,1.169,0,0,1,1.163-1.041h9.08a.153.153,0,0,0,.153-.153V12.6a.153.153,0,0,0-.153-.153H2.814a1.758,1.758,0,0,0-1.748,1.564L.019,23.441a2.383,2.383,0,0,0,.015.705,2.5,2.5,0,0,0,2.459,2.068H14.42a2.374,2.374,0,0,0,.7-.093A2.5,2.5,0,0,0,16.9,23.449" transform="translate(0 -8.788)" fill="#fff"/>
      <path id="Path_326" data-name="Path 326" d="M23.644,4.249H16.658a.1.1,0,0,1-.1-.1V3.63a3.589,3.589,0,1,1,7.177-.041v.564a.1.1,0,0,1-.1.1M17.15,3.661h5.905a.1.1,0,0,0,.1-.1A2.929,2.929,0,0,0,21.34.819a3.017,3.017,0,0,0-4.19,2.77Z" transform="translate(-11.692 0)" fill="#fff"/>
    </g>
  </g>
</svg>
