<svg id="Group_637" data-name="Group 637" xmlns="http://www.w3.org/2000/svg" xmlns:xlink="http://www.w3.org/1999/xlink" width="20.503" height="15.19" viewBox="0 0 20.503 15.19">
  <defs>
    <clipPath id="clip-path">
      <rect id="Rectangle_615" data-name="Rectangle 615" width="20.503" height="15.19" fill="#1fb25a"/>
    </clipPath>
  </defs>
  <g id="Group_636" data-name="Group 636" clip-path="url(#clip-path)">
    <path id="Path_360" data-name="Path 360" d="M59.328,140.288h2.752a.454.454,0,0,0,0-.908H59.328a.454.454,0,1,0,0,.908" transform="translate(-57.254 -135.544)" fill="#1fb25a"/>
    <path id="Path_361" data-name="Path 361" d="M79.43,222.334a.454.454,0,0,0,.454.454h2.752a.454.454,0,1,0,0-.908H79.884a.454.454,0,0,0-.454.454" transform="translate(-77.244 -215.773)" fill="#1fb25a"/>
    <path id="Path_362" data-name="Path 362" d="M5.959,304.38H.454a.454.454,0,1,0,0,.908h5.5a.454.454,0,1,0,0-.908" transform="translate(0 -296.002)" fill="#1fb25a"/>
    <path id="Path_363" data-name="Path 363" d="M115.087,9.415l1.877-6.355a.454.454,0,0,0-.436-.583H105.542a.454.454,0,0,0,0,.908h10.378l-1.608,5.446h-9.119L103.077.344l0-.01c0-.009-.005-.018-.008-.026L103.06.29l-.01-.023-.009-.019-.011-.019-.012-.02-.011-.016-.015-.02L102.98.158,102.964.14,102.95.125,102.933.11,102.916.1,102.9.084l-.02-.013-.016-.01-.022-.012-.016-.008L102.8.031l-.018-.007-.022-.007-.022-.006-.02,0-.026,0-.017,0H99.664a.454.454,0,0,0,0,.908h2.618l2.631,10.552a.454.454,0,0,0,.441.344h9.3a.454.454,0,0,0,0-.908h-8.943L105.42,9.74h9.232a.454.454,0,0,0,.436-.326" transform="translate(-96.479)" fill="#1fb25a"/>
    <path id="Path_364" data-name="Path 364" d="M307.442,440.88a1.528,1.528,0,1,0,1.528,1.528,1.529,1.529,0,0,0-1.528-1.528m0,2.147a.619.619,0,1,1,.619-.619.62.62,0,0,1-.619.619" transform="translate(-297.494 -428.745)" fill="#1fb25a"/>
    <path id="Path_365" data-name="Path 365" d="M567.259,440.88a1.528,1.528,0,1,0,1.528,1.528,1.529,1.529,0,0,0-1.528-1.528m0,2.147a.619.619,0,1,1,.619-.619.62.62,0,0,1-.619.619" transform="translate(-550.16 -428.745)" fill="#1fb25a"/>
  </g>
</svg>
