<svg id="Layer_1" data-name="Layer 1" xmlns="http://www.w3.org/2000/svg" viewBox="0 0 60 60"><defs><style>.cls-1{fill:#1fb25a;}</style></defs><path class="cls-1" d="M42.07,52.94a3.63,3.63,0,1,1,3.62-3.62,3.63,3.63,0,0,1-3.62,3.62Zm14.49-6H50.13A8.39,8.39,0,0,0,34,46.9H3.44a2.42,2.42,0,0,0,0,4.83H34a8.39,8.39,0,0,0,16.11,0h6.43a2.42,2.42,0,0,0,0-4.83Z"/><path class="cls-1" d="M42.07,7.06a3.63,3.63,0,1,1-3.62,3.62,3.63,3.63,0,0,1,3.62-3.62Zm-38.63,6H34a8.39,8.39,0,0,0,16.11,0h6.43a2.42,2.42,0,0,0,0-4.83H50.13A8.39,8.39,0,0,0,34,8.27H3.44a2.42,2.42,0,0,0,0,4.83Z"/><path class="cls-1" d="M17.93,33.62A3.62,3.62,0,1,1,21.55,30a3.62,3.62,0,0,1-3.62,3.62Zm38.63-6H26a8.39,8.39,0,0,0-16.11,0H3.44a2.41,2.41,0,0,0,0,4.82H9.87a8.39,8.39,0,0,0,16.11,0H56.56a2.41,2.41,0,0,0,0-4.82Z"/></svg>