<svg xmlns="http://www.w3.org/2000/svg" xmlns:xlink="http://www.w3.org/1999/xlink" width="52" height="52" viewBox="0 0 52 52">
  <defs>
    <clipPath id="clip-path">
      <rect id="Rectangle_573" data-name="Rectangle 573" width="24.679" height="25.677" fill="#fff"/>
    </clipPath>
  </defs>
  <g id="Group_592" data-name="Group 592" transform="translate(-1273 -1073)">
    <circle id="Ellipse_258" data-name="Ellipse 258" cx="26" cy="26" r="26" transform="translate(1273 1073)" fill="#272727"/>
    <g id="Group_591" data-name="Group 591" transform="translate(1286.66 1086.162)">
      <g id="Group_590" data-name="Group 590" clip-path="url(#clip-path)">
        <path id="Path_294" data-name="Path 294" d="M13.323,141.5a3.565,3.565,0,0,1-.395-.2,1.239,1.239,0,0,1-.556-1.113q0-2.808,0-5.616,0-1.567,0-3.134a1.236,1.236,0,0,1,1.369-1.363q4,0,8,0c.484,0,.6.122.6.609q0,5.152-.006,10.3a2.048,2.048,0,0,1-.138.512Z" transform="translate(-11.016 -115.822)" fill="#fff"/>
        <path id="Path_295" data-name="Path 295" d="M122.031,141.488c-.065-.135-.185-.271-.186-.406q-.016-5.24-.008-10.48c0-.394.135-.536.526-.536q4.088,0,8.175,0a1.2,1.2,0,0,1,1.27,1.283q.006,4.425,0,8.851a1.2,1.2,0,0,1-.87,1.235.421.421,0,0,0-.079.051Z" transform="translate(-108.488 -115.811)" fill="#fff"/>
        <path id="Path_296" data-name="Path 296" d="M6.007,67.819q-2.306,0-4.612,0A1.235,1.235,0,0,1,0,66.414q0-1.679,0-3.358a1.226,1.226,0,0,1,1.367-1.382h9.4c.447,0,.563.115.563.563q0,2.494,0,4.987c0,.53-.064.6-.585.6H6.007" transform="translate(0 -54.915)" fill="#fff"/>
        <path id="Path_297" data-name="Path 297" d="M127.178,61.672h4.613a1.227,1.227,0,0,1,1.379,1.37q0,1.717,0,3.434a1.215,1.215,0,0,1-1.333,1.341q-4.713,0-9.426,0c-.488,0-.57-.087-.57-.57q0-2.469,0-4.938c0-.571.066-.638.624-.638h4.713" transform="translate(-108.491 -54.914)" fill="#fff"/>
        <path id="Path_298" data-name="Path 298" d="M31.082,5.867a6.407,6.407,0,0,1-2.728-.551,2.609,2.609,0,0,1-1.426-3.1A2.7,2.7,0,0,1,28.161.381,3.274,3.274,0,0,1,30.175.026a7.8,7.8,0,0,1,3.07,1.087A7.9,7.9,0,0,1,35.281,2.64a2.7,2.7,0,0,1,.368.5,1.268,1.268,0,0,1-.292,1.651,3.59,3.59,0,0,1-1.522.728,10.883,10.883,0,0,1-2.753.344M33.5,3.632a.742.742,0,0,0-.1-.115c-.6-.37-1.187-.777-1.815-1.1a3.788,3.788,0,0,0-2.17-.469.544.544,0,0,0-.5.357c-.3.851-.16,1.143.608,1.407.055.019.111.036.167.05a7.155,7.155,0,0,0,2.832.063c.317-.045.629-.125.979-.2" transform="translate(-23.897 -0.002)" fill="#fff"/>
        <path id="Path_299" data-name="Path 299" d="M121.664,5.875a10.773,10.773,0,0,1-3.769-.572,3.105,3.105,0,0,1-.516-.253A1.406,1.406,0,0,1,117.05,2.7,8.1,8.1,0,0,1,119.161,1.1,7.747,7.747,0,0,1,122.233.023a3.223,3.223,0,0,1,2.01.368A2.683,2.683,0,0,1,125.5,2.483a2.617,2.617,0,0,1-2.066,3.063,15.517,15.517,0,0,1-1.771.328m-2.753-2.337.029.123c.457.076.912.173,1.372.222a6.5,6.5,0,0,0,2.438-.128c.824-.226,1.02-.594.751-1.383-.008-.024-.008-.057-.024-.07a1.941,1.941,0,0,0-.438-.334,1.2,1.2,0,0,0-.495-.032,5.045,5.045,0,0,0-2.22.717c-.484.272-.943.589-1.412.886" transform="translate(-103.784 0)" fill="#fff"/>
      </g>
    </g>
  </g>
</svg>
