<svg xmlns="http://www.w3.org/2000/svg" width="17.515" height="18.827" viewBox="0 0 17.515 18.827">
  <g id="Group_664" data-name="Group 664" transform="translate(-1477.85 -701.578)">
    <path id="Path_328" data-name="Path 328" d="M31.95,43.954a.194.194,0,0,1-.1-.026L26.91,41.075a.194.194,0,0,1-.1-.168V35.2a.194.194,0,0,1,.1-.168l4.943-2.854a.193.193,0,0,1,.194,0l4.943,2.854a.194.194,0,0,1,.1.168v5.707a.194.194,0,0,1-.1.168l-4.943,2.854a.194.194,0,0,1-.1.026M27.2,40.794l4.748,2.742L36.7,40.794V35.311L31.95,32.57,27.2,35.311Z" transform="translate(1454.658 673.738)" fill="#575756" stroke="#000" stroke-width="0.3"/>
    <path id="Path_329" data-name="Path 329" d="M65.194,57.44a.194.194,0,0,1-.1-.362l4.943-2.854a.194.194,0,1,1,.194.336l-4.943,2.854a.192.192,0,0,1-.1.026" transform="translate(1421.414 654.544)" fill="#575756" stroke="#000" stroke-width="0.3"/>
    <path id="Path_330" data-name="Path 330" d="M65.194,82.343A.194.194,0,0,1,65,82.149V76.441a.194.194,0,1,1,.388,0v5.707a.194.194,0,0,1-.194.194" transform="translate(1421.414 635.35)" fill="#575756" stroke="#000" stroke-width="0.3"/>
    <path id="Path_331" data-name="Path 331" d="M31.949,57.44a.193.193,0,0,1-.1-.026l-4.943-2.854a.194.194,0,0,1,.194-.336l4.943,2.854a.194.194,0,0,1-.1.362" transform="translate(1454.658 654.544)" fill="#575756" stroke="#000" stroke-width="0.3"/>
    <path id="Path_332" data-name="Path 332" d="M51.087,46.392a.192.192,0,0,1-.1-.026l-4.943-2.854a.194.194,0,0,1,.194-.336l4.943,2.854a.194.194,0,0,1-.1.362" transform="translate(1437.998 664.163)" fill="#575756" stroke="#000" stroke-width="0.3"/>
    <path id="Path_333" data-name="Path 333" d="M8.607,27.353a8.607,8.607,0,0,1,0-17.215.194.194,0,0,1,0,.388,8.21,8.21,0,1,0,2.083.266.194.194,0,0,1,.1-.376A8.609,8.609,0,0,1,8.607,27.353" transform="translate(1478 692.902)" fill="#575756" stroke="#000" stroke-width="0.3"/>
    <path id="Path_334" data-name="Path 334" d="M55.056,3.013a.194.194,0,0,1-.137-.331l1.175-1.175L54.919.332a.194.194,0,0,1,.275-.275l1.312,1.312a.194.194,0,0,1,0,.275L55.194,2.956a.194.194,0,0,1-.137.057" transform="translate(1430.238 701.727)" fill="#575756" stroke="#000" stroke-width="0.3"/>
    <path id="Path_335" data-name="Path 335" d="M84.455,69.087a.194.194,0,0,1-.194-.194V66.81a.194.194,0,0,1,.388,0v2.083a.194.194,0,0,1-.194.194" transform="translate(1404.645 643.734)" fill="#575756" stroke="#000" stroke-width="0.3"/>
  </g>
</svg>
