<svg id="Layer_1" data-name="Layer 1" xmlns="http://www.w3.org/2000/svg" viewBox="0 0 60 60"><defs><style>.cls-1{fill:#1fb25a;}</style></defs><path class="cls-1" d="M2.28,12.08C5.41,4.45,12.46.77,20,2.34a16.16,16.16,0,0,1,9.37,6.44l.54.69c.2-.24.34-.4.48-.58,4.78-6.9,13.36-9,20.26-4.78A16,16,0,0,1,55.77,9c4.17,6.25,4.71,13.08,1.95,20.05A28.09,28.09,0,0,1,51,39.17c-.74.68-1.34,1.54-2.09,2.24-3.07,3-6.14,6-9.26,8.91-2.24,2.1-4.63,4-6.83,6.17C30,59.14,28.5,58,26.65,56.28,23,53,19.36,49.61,15.84,46.16,12.62,43,9.39,39.82,6.47,36.35a24.68,24.68,0,0,1-6-13.22A25.49,25.49,0,0,1,2.28,12.08Z"/><path class="cls-1" d="M30,54.25c1.83-1.67,3.63-3.22,5.36-4.87,4.1-3.85,8.25-7.62,12.19-11.66a30.72,30.72,0,0,0,7.11-10.2C57.18,21,55.33,12,50.28,8.19,45.55,4.72,38.93,4.85,34.81,9.26a40.3,40.3,0,0,0-3.07,4,2,2,0,0,1-2.67.95,1,1,0,0,1-.17-.1,2.1,2.1,0,0,1-.77-.85A39,39,0,0,0,25.69,10a11.56,11.56,0,0,0-5-3.63C14.59,4.1,8,7.35,5.38,13.83A18.58,18.58,0,0,0,8,32.37a79.66,79.66,0,0,0,7.94,8.78c3.47,3.47,7.1,6.75,10.68,10.09C27.6,52.28,28.77,53.17,30,54.25Z"/></svg>