<svg id="Group_694" data-name="Group 694" xmlns="http://www.w3.org/2000/svg" xmlns:xlink="http://www.w3.org/1999/xlink" width="11.198" height="11.651" viewBox="0 0 11.198 11.651">
  <defs>
    <clipPath id="clip-path">
      <rect id="Rectangle_573" data-name="Rectangle 573" width="11.198" height="11.651"/>
    </clipPath>
  </defs>
  <g id="Group_590" data-name="Group 590" clip-path="url(#clip-path)">
    <path id="Path_294" data-name="Path 294" d="M12.8,135.257a1.619,1.619,0,0,1-.179-.09.562.562,0,0,1-.252-.5q0-1.274,0-2.548,0-.711,0-1.422a.561.561,0,0,1,.621-.619h3.629c.22,0,.274.055.274.277q0,2.338,0,4.675a.929.929,0,0,1-.062.232Z" transform="translate(-11.757 -123.607)"/>
    <path id="Path_295" data-name="Path 295" d="M121.925,135.247c-.029-.061-.084-.123-.084-.184q-.007-2.378,0-4.755c0-.179.061-.243.239-.243q1.855,0,3.709,0a.545.545,0,0,1,.576.582q0,2.008,0,4.016a.547.547,0,0,1-.395.561.189.189,0,0,0-.036.023Z" transform="translate(-115.78 -123.596)"/>
    <path id="Path_296" data-name="Path 296" d="M2.726,64.462H.633A.56.56,0,0,1,0,63.824q0-.762,0-1.524a.556.556,0,0,1,.62-.627H4.885c.2,0,.255.052.255.255q0,1.132,0,2.263c0,.241-.029.271-.265.271H2.726" transform="translate(0 -58.606)"/>
    <path id="Path_297" data-name="Path 297" d="M124.263,61.672h2.093a.557.557,0,0,1,.626.622q0,.779,0,1.558a.551.551,0,0,1-.6.608q-2.138,0-4.277,0c-.221,0-.259-.039-.259-.258q0-1.12,0-2.24c0-.259.03-.29.283-.29h2.138" transform="translate(-115.784 -58.606)"/>
    <path id="Path_298" data-name="Path 298" d="M28.763,2.663a2.907,2.907,0,0,1-1.238-.25,1.184,1.184,0,0,1-.647-1.406,1.225,1.225,0,0,1,.559-.833,1.485,1.485,0,0,1,.914-.161,3.538,3.538,0,0,1,1.393.493,3.583,3.583,0,0,1,.924.693,1.226,1.226,0,0,1,.167.228.575.575,0,0,1-.133.749,1.629,1.629,0,0,1-.691.33,4.938,4.938,0,0,1-1.249.156m1.1-1.014a.337.337,0,0,0-.046-.052c-.273-.168-.539-.352-.824-.5a1.719,1.719,0,0,0-.985-.213.247.247,0,0,0-.227.162c-.135.386-.073.519.276.638.025.009.05.016.076.023a3.246,3.246,0,0,0,1.285.029c.144-.02.286-.057.444-.089" transform="translate(-25.503 -0.002)"/>
    <path id="Path_299" data-name="Path 299" d="M118.873,2.666a4.888,4.888,0,0,1-1.71-.259,1.41,1.41,0,0,1-.234-.115.638.638,0,0,1-.149-1.068A3.674,3.674,0,0,1,117.738.5a3.515,3.515,0,0,1,1.394-.49,1.462,1.462,0,0,1,.912.167,1.218,1.218,0,0,1,.57.949,1.187,1.187,0,0,1-.937,1.39,7.041,7.041,0,0,1-.8.149m-1.249-1.061.013.056c.207.034.414.078.622.1a2.952,2.952,0,0,0,1.106-.058c.374-.1.463-.27.341-.628,0-.011,0-.026-.011-.032a.881.881,0,0,0-.2-.152.544.544,0,0,0-.225-.014,2.289,2.289,0,0,0-1.007.325c-.22.123-.428.267-.641.4" transform="translate(-110.76 0)"/>
  </g>
</svg>
