<svg id="Group_627" data-name="Group 627" xmlns="http://www.w3.org/2000/svg" xmlns:xlink="http://www.w3.org/1999/xlink" width="17.217" height="10.283" viewBox="0 0 17.217 10.283">
  <defs>
    <clipPath id="clip-path">
      <rect id="Rectangle_602" data-name="Rectangle 602" width="17.217" height="10.283" fill="none" stroke="#000" stroke-width="0.3"/>
    </clipPath>
  </defs>
  <g id="Group_626" data-name="Group 626" transform="translate(0 0)" clip-path="url(#clip-path)">
    <path id="Path_345" data-name="Path 345" d="M46.937,64.752H40.075a.19.19,0,1,1,0-.381h6.861a.19.19,0,0,1,0,.381" transform="translate(-34.823 -56.202)" fill="#575756" stroke="#000" stroke-width="0.3"/>
    <path id="Path_346" data-name="Path 346" d="M17.026,8.55h-1.46a.19.19,0,0,1,0-.381h1.269V4.975l-1.663-3.1h-1.9a.19.19,0,0,1-.19-.19V.381H.381V8.169H1.791a.19.19,0,0,1,0,.381H.19A.19.19,0,0,1,0,8.36V.19A.19.19,0,0,1,.19,0H13.269a.19.19,0,0,1,.19.19V1.5h1.827a.19.19,0,0,1,.168.1l1.74,3.239a.191.191,0,0,1,.023.09V8.36a.19.19,0,0,1-.19.19" transform="translate(0 0)" fill="#575756" stroke="#000" stroke-width="0.3"/>
    <path id="Path_347" data-name="Path 347" d="M95.81,54.563a1.923,1.923,0,1,1,1.923-1.923,1.925,1.925,0,0,1-1.923,1.923m0-3.466a1.543,1.543,0,1,0,1.542,1.542A1.544,1.544,0,0,0,95.81,51.1" transform="translate(-81.972 -44.28)" fill="#575756" stroke="#000" stroke-width="0.3"/>
    <path id="Path_348" data-name="Path 348" d="M14.539,54.563a1.923,1.923,0,1,1,1.923-1.923,1.925,1.925,0,0,1-1.923,1.923m0-3.466a1.543,1.543,0,1,0,1.542,1.542A1.544,1.544,0,0,0,14.539,51.1" transform="translate(-11.015 -44.28)" fill="#575756" stroke="#000" stroke-width="0.3"/>
    <path id="Path_349" data-name="Path 349" d="M105.583,23.324h-2.34a.19.19,0,0,1-.19-.19V21.043a.19.19,0,1,1,.381,0v1.9h2.149a.19.19,0,0,1,0,.381" transform="translate(-89.974 -18.206)" fill="#575756" stroke="#000" stroke-width="0.3"/>
    <path id="Path_350" data-name="Path 350" d="M35.777,18.319a.19.19,0,0,1,0-.381h.868a.721.721,0,0,0,.59-.793c0-.436-.259-.777-.59-.777h-.868a.19.19,0,0,1,0-.381h.868a1.065,1.065,0,0,1,.971,1.158,1.093,1.093,0,0,1-.965,1.174Z" transform="translate(-31.071 -13.959)" fill="#575756" stroke="#000" stroke-width="0.3"/>
    <path id="Path_351" data-name="Path 351" d="M35.777,19.49a.19.19,0,0,1-.19-.19V16.178a.19.19,0,0,1,.381,0V19.3a.19.19,0,0,1-.19.19" transform="translate(-31.071 -13.959)" fill="#575756" stroke="#000" stroke-width="0.3"/>
    <path id="Path_352" data-name="Path 352" d="M43.4,32.91a.19.19,0,0,1-.159-.085l-.78-1.171a.19.19,0,0,1,.317-.211l.78,1.171a.19.19,0,0,1-.158.3" transform="translate(-37.045 -27.379)" fill="#575756" stroke="#000" stroke-width="0.3"/>
    <path id="Path_353" data-name="Path 353" d="M15.893,19.49a.19.19,0,0,1-.19-.19V16.178a.19.19,0,0,1,.19-.19h1.344a.19.19,0,0,1,0,.381H16.084V19.3a.19.19,0,0,1-.19.19" transform="translate(-13.71 -13.959)" fill="#575756" stroke="#000" stroke-width="0.3"/>
    <line id="Line_214" data-name="Line 214" x2="0.953" transform="translate(2.183 3.78)" fill="#fff" stroke="#000" stroke-width="0.3"/>
    <path id="Path_354" data-name="Path 354" d="M16.847,28.666h-.953a.19.19,0,0,1,0-.381h.953a.19.19,0,0,1,0,.381" transform="translate(-13.71 -24.695)" fill="#575756" stroke="#000" stroke-width="0.3"/>
    <path id="Path_355" data-name="Path 355" d="M59.409,19.49H58.065a.19.19,0,0,1-.19-.19V16.178a.19.19,0,0,1,.19-.19h1.344a.19.19,0,1,1,0,.381H58.256v2.741h1.153a.19.19,0,0,1,0,.381" transform="translate(-50.53 -13.959)" fill="#575756" stroke="#000" stroke-width="0.3"/>
    <line id="Line_215" data-name="Line 215" x2="0.953" transform="translate(7.535 3.78)" fill="#fff" stroke="#000" stroke-width="0.3"/>
    <path id="Path_356" data-name="Path 356" d="M59.019,28.666h-.953a.19.19,0,0,1,0-.381h.953a.19.19,0,1,1,0,.381" transform="translate(-50.53 -24.695)" fill="#575756" stroke="#000" stroke-width="0.3"/>
    <path id="Path_357" data-name="Path 357" d="M79.293,19.49H77.949a.19.19,0,0,1-.19-.19V16.178a.19.19,0,0,1,.19-.19h1.344a.19.19,0,1,1,0,.381H78.14v2.741h1.153a.19.19,0,1,1,0,.381" transform="translate(-67.891 -13.959)" fill="#575756" stroke="#000" stroke-width="0.3"/>
    <line id="Line_216" data-name="Line 216" x2="0.953" transform="translate(10.059 3.78)" fill="#fff" stroke="#000" stroke-width="0.3"/>
    <path id="Path_358" data-name="Path 358" d="M78.9,28.666h-.953a.19.19,0,0,1,0-.381H78.9a.19.19,0,0,1,0,.381" transform="translate(-67.89 -24.695)" fill="#575756" stroke="#000" stroke-width="0.3"/>
  </g>
</svg>
