<?xml version="1.0" encoding="UTF-8"?>
<svg xmlns="http://www.w3.org/2000/svg" xmlns:xlink="http://www.w3.org/1999/xlink" width="39.937" height="45.737" viewBox="0 0 39.937 45.737">
  <defs>
    <clipPath id="clip-path">
      <rect id="Rectangle_613" data-name="Rectangle 613" width="39.937" height="45.737" transform="translate(0 0)" fill="#1fb25a"></rect>
    </clipPath>
  </defs>
  <g id="Group_606" data-name="Group 606" transform="translate(0 -0.005)">
    <g id="Group_605" data-name="Group 605" transform="translate(0 0.005)" clip-path="url(#clip-path)">
      <path id="Path_322" data-name="Path 322" d="M360.18,1821.552a22.174,22.174,0,0,1-2.922-.315,45.332,45.332,0,0,0-6.93-.605q-.364,0-.739.007h-.007a.32.32,0,0,1-.007-.639,37.231,37.231,0,0,1,4.343.168c1.3.123,2.431.289,3.432.436,2,.293,3.44.5,4.052.025a1.227,1.227,0,0,0,.4-.907c.049-.893-.454-1.5-1.58-1.906a17.031,17.031,0,0,0-3.874-.657c-.757-.073-1.471-.141-2.1-.25a4.368,4.368,0,0,1-1.594-.514,17.623,17.623,0,0,1-2.334-1.754c-2.185-1.959-4.982-2.257-8.313-.886l-3.6,1.509a.32.32,0,0,1-.247-.59l3.608-1.51a12.291,12.291,0,0,1,2.58-.766,8.4,8.4,0,0,1,2.37-.086,6.983,6.983,0,0,1,2.144.6,7.621,7.621,0,0,1,1.893,1.259l0,0a17.255,17.255,0,0,0,2.244,1.684,9.637,9.637,0,0,0,3.41.667,17.434,17.434,0,0,1,4.03.692,3.453,3.453,0,0,1,1.468.917,2.2,2.2,0,0,1,.533,1.634v.013a1.841,1.841,0,0,1-.644,1.355,2.552,2.552,0,0,1-1.617.419" transform="translate(-332.3 -1781.912)" fill="#1fb25a"></path>
      <path id="Path_323" data-name="Path 323" d="M511.319,1845.652a11.724,11.724,0,0,1-2.349-.276l-.01,0-.009,0-5.857-1.585h0a12.958,12.958,0,0,0-5.725-.524l-.095-.632a12.049,12.049,0,0,1,3.33-.035,17.6,17.6,0,0,1,2.663.576l5.843,1.582a6.875,6.875,0,0,0,5.122-.48l.012-.005,5.061-2.179.006,0a7.484,7.484,0,0,0,1.6-.962,17.743,17.743,0,0,0,2.735-2.514l.006-.007.006-.006,4.248-4.282a1.067,1.067,0,0,0,.039-1.509l-.041-.044-.007-.008a1.247,1.247,0,0,0-1.674-.162l-.008.006-.008.006-7.549,5.151-.36-.528,7.541-5.145a1.852,1.852,0,0,1,1.342-.369,1.9,1.9,0,0,1,.663.2,1.735,1.735,0,0,1,.54.427l.041.044.006.008a1.789,1.789,0,0,1,.446,1.025,1.882,1.882,0,0,1-.483,1.315l-.01.012-.011.012-4.254,4.287a18.4,18.4,0,0,1-2.828,2.6,8.1,8.1,0,0,1-1.745,1.042l-5.044,2.172a7.409,7.409,0,0,1-2.355.753,6.717,6.717,0,0,1-.827.049" transform="translate(-488.943 -1801.019)" fill="#1fb25a"></path>
      <path id="Path_324" data-name="Path 324" d="M4.642,1861.793a1.811,1.811,0,0,1-1.743-1.338L.063,1849.962a1.808,1.808,0,0,1,1.274-2.218l2.55-.689a1.808,1.808,0,0,1,2.218,1.274l2.835,10.494a1.809,1.809,0,0,1-1.274,2.218l-.085-.315.085.315-2.55.689a1.806,1.806,0,0,1-.475.064m-.28-14.149a1.169,1.169,0,0,0-.3.04l-2.55.689a1.156,1.156,0,0,0-.815,1.418l2.835,10.494a1.158,1.158,0,0,0,1.419.815l2.55-.689a1.158,1.158,0,0,0,.815-1.418L5.476,1848.5a1.158,1.158,0,0,0-1.115-.856" transform="translate(0 -1816.056)" fill="#1fb25a"></path>
      <path id="Path_325" data-name="Path 325" d="M1682,1006.324a.358.358,0,0,1-.22-.076l-3.191-2.478a.359.359,0,0,1,.44-.567l2.915,2.263,4.313-5.28a.359.359,0,0,1,.556.454l-4.534,5.552a.358.358,0,0,1-.278.132" transform="translate(-1650.333 -983.305)" fill="#1fb25a"></path>
      <path id="Path_326" data-name="Path 326" d="M776.427,4.523l-5.444,1.632L773.639.706A.487.487,0,0,0,773.05.03l-10.8,3.538a3.043,3.043,0,0,0-1.8,1.58l-2.416,5.032a3.125,3.125,0,0,0-.308,1.352V24.946a1.258,1.258,0,0,0,.838,1.185L770.041,30.2a2.8,2.8,0,0,0,1.87,0l11.445-4.057a1.3,1.3,0,0,0,.865-1.224l0-13.279a2.8,2.8,0,0,0-.833-1.993L778.8,5.112a2.394,2.394,0,0,0-2.369-.589m-5.953,24.8-10.963-3.886a1.217,1.217,0,0,1-.81-1.147V11.873l11.773,4.173Zm.6-14.187-4.706-4.679a1.177,1.177,0,0,1,.463-1.952l3.31-1.084,6.011-1.8a2.394,2.394,0,0,1,2.369.589l4.494,4.436Zm11.417,10.283-11.017,3.9V16.046l11.773-4.173V24.346a1.136,1.136,0,0,1-.756,1.071" transform="translate(-745.04 -0.005)" fill="#1fb25a"></path>
    </g>
  </g>
</svg>
