<?xml version="1.0" encoding="UTF-8"?>
<svg xmlns="http://www.w3.org/2000/svg" xmlns:xlink="http://www.w3.org/1999/xlink" id="Group_591" data-name="Group 591" width="34.225" height="35.608" viewBox="0 0 34.225 35.608">
  <defs>
    <clipPath id="clip-path">
      <rect id="Rectangle_573" data-name="Rectangle 573" width="34.225" height="35.608" fill="#1fb25a"></rect>
    </clipPath>
  </defs>
  <g id="Group_590" data-name="Group 590" clip-path="url(#clip-path)">
    <path id="Path_294" data-name="Path 294" d="M13.69,145.917a4.936,4.936,0,0,1-.547-.276,1.718,1.718,0,0,1-.771-1.543q.005-3.894,0-7.788,0-2.173,0-4.346a1.713,1.713,0,0,1,1.9-1.89q5.546,0,11.092,0c.671,0,.838.169.838.845q0,7.144-.008,14.289a2.84,2.84,0,0,1-.191.709Z" transform="translate(-10.492 -110.309)" fill="#1fb25a"></path>
    <path id="Path_295" data-name="Path 295" d="M122.107,145.908c-.089-.188-.257-.375-.257-.563q-.022-7.267-.01-14.534c0-.547.188-.743.729-.744q5.669-.006,11.337,0a1.667,1.667,0,0,1,1.761,1.78q.008,6.137,0,12.274a1.671,1.671,0,0,1-1.206,1.713.582.582,0,0,0-.109.071Z" transform="translate(-103.325 -110.3)" fill="#1fb25a"></path>
    <path id="Path_296" data-name="Path 296" d="M8.331,70.2q-3.2,0-6.4,0A1.713,1.713,0,0,1,0,68.247q0-2.328,0-4.657a1.7,1.7,0,0,1,1.9-1.917q6.517,0,13.035,0c.62,0,.78.16.78.78q0,3.458,0,6.916c0,.735-.089.827-.811.827H8.331" transform="translate(0 -52.302)" fill="#1fb25a"></path>
    <path id="Path_297" data-name="Path 297" d="M129.242,61.672q3.2,0,6.4,0a1.7,1.7,0,0,1,1.913,1.9q0,2.381,0,4.762a1.684,1.684,0,0,1-1.849,1.86q-6.536.006-13.071,0c-.677,0-.79-.121-.79-.79q0-3.424,0-6.847c0-.791.092-.885.866-.885h6.536" transform="translate(-103.328 -52.301)" fill="#1fb25a"></path>
    <path id="Path_298" data-name="Path 298" d="M32.724,8.135a8.885,8.885,0,0,1-3.783-.764,3.618,3.618,0,0,1-1.977-4.3A3.744,3.744,0,0,1,28.674.528,4.54,4.54,0,0,1,31.466.035a10.812,10.812,0,0,1,4.257,1.507,10.949,10.949,0,0,1,2.825,2.118,3.746,3.746,0,0,1,.51.7,1.758,1.758,0,0,1-.405,2.289,4.978,4.978,0,0,1-2.111,1.009,15.092,15.092,0,0,1-3.818.478m3.352-3.1a1.03,1.03,0,0,0-.14-.159C35.1,4.364,34.29,3.8,33.419,3.355a5.253,5.253,0,0,0-3.01-.65.755.755,0,0,0-.693.5c-.412,1.18-.222,1.586.843,1.951.076.026.154.05.232.07a9.922,9.922,0,0,0,3.928.088c.44-.062.873-.173,1.357-.272" transform="translate(-22.759 -0.002)" fill="#1fb25a"></path>
    <path id="Path_299" data-name="Path 299" d="M123.64,8.147a14.94,14.94,0,0,1-5.227-.793A4.306,4.306,0,0,1,117.7,7a1.949,1.949,0,0,1-.455-3.265,11.229,11.229,0,0,1,2.928-2.21,10.743,10.743,0,0,1,4.26-1.5,4.469,4.469,0,0,1,2.787.511,3.721,3.721,0,0,1,1.744,2.9A3.629,3.629,0,0,1,126.1,7.692a21.519,21.519,0,0,1-2.455.455m-3.818-3.241.04.17c.634.1,1.264.24,1.9.308a9.021,9.021,0,0,0,3.381-.178c1.142-.314,1.415-.824,1.041-1.918-.011-.033-.011-.078-.033-.1a2.691,2.691,0,0,0-.607-.463,1.662,1.662,0,0,0-.686-.044,7,7,0,0,0-3.079.994c-.671.377-1.307.817-1.959,1.228" transform="translate(-98.845 0)" fill="#1fb25a"></path>
  </g>
</svg>
