<?xml version="1.0" encoding="UTF-8"?>
<svg xmlns="http://www.w3.org/2000/svg" xmlns:xlink="http://www.w3.org/1999/xlink" width="47.036" height="37.297" viewBox="0 0 47.036 37.297">
  <defs>
    <clipPath id="clip-path">
      <rect id="Rectangle_612" data-name="Rectangle 612" width="47.036" height="37.297" transform="translate(0 0)" fill="#1fb25a"></rect>
    </clipPath>
  </defs>
  <g id="Group_604" data-name="Group 604" transform="translate(0 -0.002)">
    <g id="Group_603" data-name="Group 603" transform="translate(0 0.002)" clip-path="url(#clip-path)">
      <path id="Path_320" data-name="Path 320" d="M31.439,18.54a13.316,13.316,0,0,0-5.4,9.684,5.863,5.863,0,0,0,.145,1.791.641.641,0,0,0,1.134.235,40,40,0,0,1,10.156-8.392c-1.292,2.7-6.517,7.971-8.6,9.7a19.855,19.855,0,0,1-6.8,3.052A16.292,16.292,0,0,1,7.77,6.54l-.035-.046a16.289,16.289,0,0,1,26.087,6.26,1.16,1.16,0,0,0,2.165-.835A18.617,18.617,0,0,0,.015,19.368a1.05,1.05,0,0,0,.019.155A18.616,18.616,0,0,0,29.5,33.8c.159.075.322.146.49.211a8.836,8.836,0,0,0,7.122-.83c7.935-4.15,9.927-18.126,9.927-18.126.04-.336-10.948-.017-15.6,3.485" transform="translate(0 -0.001)" fill="#1fb25a"></path>
      <path id="Path_321" data-name="Path 321" d="M422.127,314.182l-3.38,1.013,1.649-3.382a.3.3,0,0,0-.366-.42l-6.7,2.2a1.889,1.889,0,0,0-1.116.981l-1.5,3.124a1.94,1.94,0,0,0-.191.839v8.327a.781.781,0,0,0,.52.736l7.122,2.524a1.738,1.738,0,0,0,1.161,0l7.105-2.518a.806.806,0,0,0,.537-.76V318.6a1.738,1.738,0,0,0-.517-1.237l-2.852-2.815a1.486,1.486,0,0,0-1.47-.366m-3.7,15.4-6.806-2.412a.756.756,0,0,1-.5-.712v-7.708l7.309,2.59Zm.374-8.808-2.922-2.9a.73.73,0,0,1,.288-1.212l2.055-.673,3.732-1.118a1.486,1.486,0,0,1,1.47.366l2.79,2.754Zm7.088,6.384-6.839,2.424v-8.242l7.309-2.59v7.743a.705.705,0,0,1-.47.665" transform="translate(-400.181 -303.535)" fill="#1fb25a"></path>
    </g>
  </g>
</svg>
