<svg xmlns="http://www.w3.org/2000/svg" id="Layer_1" data-name="Layer 1" viewBox="0 0 60 60"><defs><style>      .cls-1 {        fill: #111;        stroke-width: 0px;      }    </style></defs><path class="cls-1" d="M58.71,50.23l-3.57-32.11c-.34-3.02-2.88-5.3-5.92-5.3h-3.07c-.29,0-.52.24-.52.53v.96c.01.28.25.51.53.51h3.04c2.03,0,3.73,1.52,3.96,3.54l3.56,32.02c.07.66.08,1.34-.05,1.99-.66,3.23-3.41,5.26-6.37,5.26H9.78c-.67,0-1.34-.07-1.97-.28-3.13-1.02-4.85-3.97-4.52-6.91l3.57-32.09c.22-2.02,1.92-3.54,3.96-3.54h30.88c.29,0,.52-.23.52-.52v-.96c0-.29-.23-.52-.52-.52H10.8c-3.05,0-5.6,2.29-5.94,5.32L1.3,50.2c-.09.8-.1,1.61.05,2.4.81,4.31,4.45,7.03,8.36,7.03h40.56c.8,0,1.61-.08,2.38-.32,4.19-1.29,6.49-5.2,6.06-9.09Z"></path><path class="cls-1" d="M41.88,14.82h-23.76c-.18,0-.33-.15-.33-.33v-1.78c0-5.59,3.7-10.63,9.13-11.97,8.05-1.98,15.28,4.1,15.28,11.83v1.92c0,.18-.15.33-.33.33ZM19.8,12.82h20.08c.18,0,.33-.15.33-.33h0c0-4.06-2.37-7.86-6.16-9.34-7.3-2.85-14.25,2.49-14.25,9.42v.24Z"></path></svg>