<svg id="Layer_1" data-name="Layer 1" xmlns="http://www.w3.org/2000/svg" viewBox="0 0 60 60"><defs><style>.cls-1{fill:#1fb25a;}</style></defs><path class="cls-1" d="M57,32.39A27.21,27.21,0,0,1,36.4,58.67a26.89,26.89,0,0,1-29.71-13A26.79,26.79,0,0,1,11.3,12.77c2.34-2.25,4.92-5,8.14-1.8s.65,5.67-1.63,8.15c-7,7.55-7.57,17-1.7,24.42a17.64,17.64,0,0,0,22.7,4.37,18.1,18.1,0,0,0,5.58-26.43,28.48,28.48,0,0,0-2.82-3.1c-2.19-2.17-3.61-4.65-1.11-7.28,2.85-3,5.39-1.07,7.73,1.1A25.91,25.91,0,0,1,57,32.39Z"/><path class="cls-1" d="M25.55,15.91c0-3.39,0-6.77,0-10.16,0-3,1.38-5.14,4.55-5.17,2.92,0,4.35,2.12,4.4,4.73.14,7.37.14,14.74,0,22.11C34.4,30,32.86,32.11,30,32s-4.29-2-4.36-4.75c-.11-3.78,0-7.57,0-11.36Z"/></svg>