<svg id="Capa_1" data-name="Capa 1" xmlns="http://www.w3.org/2000/svg" viewBox="0 0 371.58 372"><defs><style>.cls-1{font-size:140.01px;font-family:ArialMT, Arial;}</style></defs><path d="M380.84,230.13a31.22,31.22,0,0,0-22.66-12.77,22.52,22.52,0,0,0-18.25,6.82c-1,1.07-2.1,2.25-3.26,3.51a31,31,0,0,0-18.53-8.14,22.5,22.5,0,0,0-18.25,6.81c-10,10.63-27.81,31.39-41.77,47.92a29,29,0,0,0-5.83-2.64c-6.67-2.87-98.66-42.15-139.43-42.15-65.87,0-96.13,35.4-97.38,36.9a5.46,5.46,0,0,0,8.38,7c.07-.08,7.14-8.36,21.57-16.52,13.31-7.51,35.81-16.47,67.43-16.47,39.17,0,134.39,41,135.35,41.37a30.51,30.51,0,0,1,5.15,2.4,17.59,17.59,0,0,1,4,3.66A17.83,17.83,0,0,1,251,315.15,18.48,18.48,0,0,1,238,316l-59.58-16.41a5.46,5.46,0,0,0-2.9,10.53L235,326.48a28.76,28.76,0,0,0,35.93-18.91,29.45,29.45,0,0,0,1.28-7.27l16-1.68a5.48,5.48,0,0,0,3.62-1.94c.4-.47,39.58-47.51,56.1-65,6.87-7.28,19.13-2.12,24.1,4.81,7.62,10.66-1.86,22.29-4.94,25.6-15.17,16.28-43,49.8-48,55.85l-113.2,56.6L147.6,350a5.46,5.46,0,0,0-4.24,10.07l60.56,25.5a5.54,5.54,0,0,0,4.56-.15L325,327.19a5.39,5.39,0,0,0,1.77-1.41c.32-.39,32.16-38.94,48.29-56.24C386.89,256.8,389.12,241.7,380.84,230.13ZM284.8,288l-14.23,1.5a29,29,0,0,0-4.29-7.95c11.89-14.08,31.21-36.73,41.55-47.68a11.71,11.71,0,0,1,9.57-3.42,20.14,20.14,0,0,1,12,5.37C313,254.3,290.69,280.93,284.8,288Z" transform="translate(-14.21 -14)"/><path d="M120.8,338.73l-23.3-9.81a5.5,5.5,0,0,0-2.12-.43H19.67a5.46,5.46,0,1,0,0,10.92H94.28l22.28,9.38a5.46,5.46,0,0,0,4.24-10.06Z" transform="translate(-14.21 -14)"/><path d="M169.59,230.27a5.46,5.46,0,0,0,3-10.49,99.38,99.38,0,1,1,127-95.49,98.67,98.67,0,0,1-29.85,71v-28.8a5.46,5.46,0,0,0-10.92,0v40.77a5.52,5.52,0,0,0,6.23,5.41l40.77-5.83a5.46,5.46,0,0,0-1.54-10.81L281,199.38a110.31,110.31,0,1,0-168.53-8.22A111,111,0,0,0,169.59,230.27Z" transform="translate(-14.21 -14)"/><text class="cls-1" transform="translate(146.55 159.79)">€</text></svg>