<svg xmlns="http://www.w3.org/2000/svg" xmlns:xlink="http://www.w3.org/1999/xlink" width="41" height="41" viewBox="0 0 41 41">
  <defs>
    <clipPath id="clip-path">
      <rect id="Rectangle_269" data-name="Rectangle 269" width="25.502" height="15" fill="#fff"/>
    </clipPath>
  </defs>
  <g id="Group_689" data-name="Group 689" transform="translate(-187 -307)">
    <circle id="Ellipse_125" data-name="Ellipse 125" cx="20.5" cy="20.5" r="20.5" transform="translate(187 307)"/>
    <g id="Group_255" data-name="Group 255" transform="translate(195.328 320)">
      <g id="Group_254" data-name="Group 254" clip-path="url(#clip-path)">
        <path id="Path_185" data-name="Path 185" d="M25.5,2.85c-1.962,2.659-7.777,9.506-14,11.7a6.585,6.585,0,0,1-6.548-1.354,7.329,7.329,0,0,1-.98-.957,16.934,16.934,0,0,0-2.823,2.732.081.081,0,0,1-.119.013c-.311-.288-.529-.947-1-1.237a.066.066,0,0,1-.01-.1A47.4,47.4,0,0,1,19.113,3.589,34.505,34.505,0,0,0,2.575,9.617,6.745,6.745,0,0,1,2.207,4.88c.551-1.694,2.058-2.874,4.572-3.758C13.186-1.132,21.684.3,25.5,2.85" transform="translate(0 0)" fill="#fff"/>
      </g>
    </g>
  </g>
</svg>
