<svg id="Layer_1" data-name="Layer 1" xmlns="http://www.w3.org/2000/svg" viewBox="0 0 60 60"><defs><style>.cls-1{fill:#1fb25a;}</style></defs><polygon class="cls-1" points="30 14.55 30 14.54 37.25 11.46 37.25 11.44 48.1 16.3 59 12.22 30 1.34 1 12.22 30 23.09 40.85 19.02 30 14.55 30 14.55"/><path class="cls-1" d="M8.25,42l7.25,2.72v3.87L8.25,45.87V42ZM1,48.47,28.19,58.66V26L1,15.84V48.47Z"/><polygon class="cls-1" points="48.13 29 40.88 31.72 40.88 22.64 31.81 26.04 31.81 58.66 59 48.47 59 15.84 48.13 19.92 48.13 29 48.13 29"/></svg>