<svg id="Layer_1" data-name="Layer 1" xmlns="http://www.w3.org/2000/svg" viewBox="0 0 60 60"><defs><style>.cls-1{fill:#1fb25a;}.cls-2{fill:none;}</style></defs><path class="cls-1" d="M56.37,12l-35-7.4a2.75,2.75,0,0,0-3.26,2.12L17.44,11l40.38,8.55.67-4.28A2.76,2.76,0,0,0,56.37,12Zm0,0"/><path class="cls-1" d="M41.65,20.41a2.79,2.79,0,0,0-3.42-1.93l-6.64,1.84L15.92,17,14.2,25.15l-10.76,3A2.8,2.8,0,0,0,1.5,31.55L7.57,53.41A2.79,2.79,0,0,0,11,55.34l34.79-9.65a2.79,2.79,0,0,0,1.93-3.42l-1-3.75,3.91.82a2.76,2.76,0,0,0,3.26-2.12l2.47-11.67-14.06-3Zm4,11.11.86-4.07a1.14,1.14,0,0,1,1.34-.87l4.07.86a1.13,1.13,0,0,1,.87,1.34L52,32.85a1.13,1.13,0,0,1-1.34.87l-4.07-.86a1.13,1.13,0,0,1-.87-1.34ZM4,30.32l9.63-2.68,22.72-6.3,2.44-.68.14,0a.53.53,0,0,1,.5.38l.28,1,.9,3.24L4.87,35.22,3.69,31A.51.51,0,0,1,4,30.32ZM45.53,42.87a.48.48,0,0,1-.05.39.52.52,0,0,1-.3.25l-34.8,9.65-.13,0a.53.53,0,0,1-.5-.38L6.21,40.06,42,30.13,44.18,38Zm0,0"/><rect class="cls-2" x="1.4" y="4.51" width="57.17" height="51.01"/><path class="cls-1" d="M16,43.75a1.14,1.14,0,0,0-1.4-.79l-4.06,1.13a1.13,1.13,0,0,0-.79,1.39l1.13,4.06a1.13,1.13,0,0,0,1.39.79l4.07-1.13a1.12,1.12,0,0,0,.78-1.39Zm0,0"/></svg>