<svg width="574" height="574" viewBox="0 0 574 574" fill="none" xmlns="http://www.w3.org/2000/svg">
<g clip-path="url(#clip0_5_2)">
<path d="M96.2477 355.339C75.8615 355.345 55.8599 355.348 35.8583 355.36C33.2786 355.361 30.7178 355.249 28.366 354.035C24.3054 351.938 21.7154 346.966 22.509 342.865C23.4898 337.796 27.3741 334.178 32.5101 333.651C33.9071 333.508 35.3283 333.587 36.7383 333.587C90.3323 333.587 143.926 333.594 197.52 333.585C204.723 333.584 208.838 329.459 208.409 322.778C208.109 318.116 204.462 314.403 199.765 314.057C198.234 313.944 196.69 313.979 195.152 313.979C157.585 313.972 120.017 313.984 82.4504 313.956C75.1364 313.95 70.6559 309.84 70.575 303.258C70.5003 297.177 74.4065 292.817 80.5394 292.209C81.8102 292.083 83.1014 292.15 84.3832 292.15C125.284 292.152 166.185 292.138 207.085 292.197C210.563 292.202 213.722 291.804 216.149 289.021C218.817 285.962 219.675 282.562 218.121 278.714C216.638 275.041 213.804 273.072 209.957 272.598C208.313 272.395 206.627 272.514 204.961 272.514C157.906 272.518 110.851 272.526 63.7957 272.532C62.3855 272.532 60.9696 272.59 59.566 272.487C54.0889 272.088 49.8261 267.83 49.2817 262.282C48.8052 257.425 52.4275 252.566 57.6627 251.336C59.5095 250.902 61.472 250.815 63.3818 250.814C160.313 250.789 257.243 250.785 354.174 250.795C367.475 250.797 374.319 257.806 373.365 270.446C373.077 274.266 372.499 278.064 372.097 281.877C371.925 283.509 371.578 285.164 372.266 286.872C387.113 283.999 402.091 286.133 416.972 285.351C429.806 284.676 439.834 289.13 448.334 299.025C465.864 319.431 483.869 339.439 502.068 359.255C510.679 368.633 511.869 379.238 510.168 391.035C508.892 399.886 508.04 408.809 507.3 417.724C506.164 431.413 495.306 441.679 481.568 441.744C479.389 441.754 477.209 441.747 475.029 441.745C469.269 441.738 469.171 441.749 468.488 436.067C466.62 420.518 458.841 408.749 445.669 400.521C416.92 382.563 377.893 401.035 373.436 434.646C373.137 436.903 372.79 439.153 372.486 441.268C371.362 442.007 370.308 441.758 369.305 441.759C338.02 441.764 306.736 441.76 275.451 441.75C270.33 441.748 270.299 441.705 269.958 436.718C268.499 415.36 250.251 396.767 228.718 393.954C204.536 390.794 180.932 406.519 175.276 431.673C174.773 433.91 174.35 436.222 174.343 438.501C174.336 441.392 172.835 441.791 170.444 441.782C153.519 441.72 136.595 441.813 119.671 441.703C111.434 441.649 104.673 434.659 104.462 426.385C104.273 418.929 105.717 411.612 106.487 404.249C107.262 396.84 107.185 396.398 99.5815 396.404C92.7861 396.41 85.9767 396.131 79.1988 396.476C70.9665 396.894 67.1733 390.985 67.1343 385.503C67.0902 379.315 72.2064 375.081 79.4319 375.076C102.639 375.059 125.846 375.078 149.053 375.062C154.417 375.059 157.563 372.868 159.542 368.826C162.423 362.944 157.091 355.418 151.245 355.411C147.912 355.407 144.579 355.354 141.246 355.351C126.375 355.342 111.504 355.342 96.2477 355.339ZM431.828 302.497C428.705 299.688 425.001 298.664 420.858 298.707C413.681 298.781 406.503 298.726 399.325 298.728C390.711 298.731 390.712 298.732 389.473 307.428C389.275 308.819 389.013 310.202 388.867 311.598C387.642 323.289 386.515 334.991 385.191 346.671C384.625 351.669 387.056 355.019 392.155 355.033C416.636 355.101 441.117 355.055 465.598 355.031C468.341 355.028 470.72 354.1 471.901 351.465C473.081 348.835 471.643 346.849 469.928 344.941C457.342 330.935 444.789 316.899 431.828 302.497Z" fill="#20B25B"/>
<path d="M323.94 116.969C345.942 102.105 369.994 93.4005 396.062 90.8871C437.067 86.9335 474.402 97.2074 507.342 122.019C535.353 143.118 554.219 170.782 563.96 204.495C567.449 216.567 569.104 228.932 569.79 241.537C571.468 272.4 563.931 300.866 548.749 327.515C542.763 338.02 535.374 347.522 527.241 356.448C526.151 357.644 525.249 359.121 522.349 360.092C548.275 322.737 557.56 282.482 549.234 238.681C540.861 194.63 518.179 159.057 479.898 136.027C411.625 94.9553 346.716 104.19 285.286 154.096C296.13 139.083 309.119 127.29 323.94 116.969Z" fill="#20B25B"/>
<path d="M397.858 475.576C389.972 468.945 383.981 461.326 381.538 451.29C375.377 425.981 393.313 403.638 416.238 401.115C439.357 398.571 457.251 414.996 460.709 433.199C466.135 461.76 443.332 481.933 422.409 481.881C407.549 481.845 392.675 482.031 377.807 482.102C376.502 482.108 374.995 482.673 373.551 480.811C379.731 479.862 385.583 479.079 391.385 478.014C393.627 477.603 396.344 478.257 397.858 475.576ZM404.202 440.459C404.308 450.7 410.96 458.003 420.39 458.229C429.455 458.446 437.13 451.572 437.717 442.712C438.308 433.796 431.807 425.677 423.364 424.783C413.36 423.724 405.694 429.737 404.202 440.459Z" fill="#20B25B"/>
<path d="M223.556 481.963C206.322 482.016 189.44 482.016 172.558 482.016C172.534 481.629 172.509 481.241 172.485 480.854C181.699 479.583 190.913 478.313 200.003 477.06C200.131 474.886 198.734 474.617 197.918 473.944C185.331 463.567 179.483 450.259 182.448 434.189C185.498 417.657 195.721 406.632 212.026 402.161C235.902 395.614 260.411 412.343 262.772 437.738C264.842 459.999 248.812 477.395 231.152 481.164C228.733 481.681 226.305 481.515 223.556 481.963ZM214.314 456.169C221.385 459.782 228.045 458.884 233.887 453.752C239.079 449.191 240.399 443.117 238.533 436.616C236.36 429.046 229.627 424.474 221.742 424.676C214.473 424.863 208.173 429.734 206.158 436.725C204.031 444.107 207.013 451.571 214.314 456.169Z" fill="#20B25B"/>
<path d="M492.583 210.302C498.682 213.922 499.019 220.012 493.217 223.093C468.334 236.303 443.347 249.318 418.389 262.389C417.954 262.617 417.418 262.652 416.456 262.899C415.344 258.558 414.009 254.311 410.392 251.699C410.853 250.124 411.891 249.813 412.777 249.352C436.747 236.864 460.718 224.377 484.699 211.912C487.064 210.684 489.394 209.118 492.583 210.302Z" fill="#20B25B"/>
<path d="M395.632 199.243C398.616 206.27 399.284 213.581 400.968 220.641C402.892 228.708 404.456 236.862 406.146 244.984C406.429 246.343 406.557 247.734 406.833 249.635C402.096 249.222 397.749 249.704 393.443 252.748C392.054 246.161 390.813 240.335 389.599 234.502C387.595 224.879 385.614 215.25 383.611 205.626C382.921 202.307 383.57 199.403 386.682 197.694C389.812 195.976 392.852 196.359 395.632 199.243Z" fill="#20B25B"/>
<path d="M61.2287 303.662C60.1321 310.243 56.2906 313.744 50.054 313.933C46.3476 314.046 42.63 314.056 38.9258 313.908C32.4392 313.647 27.7905 309.015 27.8116 303.025C27.8327 297.039 32.516 292.439 39.0028 292.201C42.5802 292.07 46.168 292.101 49.7479 292.188C56.7861 292.36 60.7681 296.275 61.2287 303.662Z" fill="#20B25B"/>
<path d="M11.0957 270.771C6.33206 266.527 5.03351 262.598 6.71026 258.099C8.48385 253.34 12.2458 250.862 18.1733 250.823C22.2592 250.796 26.3673 250.445 30.4325 251.159C35.5572 252.058 39.0737 255.753 39.5264 260.649C39.9832 265.588 37.3778 270.506 32.4134 271.61C25.4623 273.156 18.2818 273.693 11.0957 270.771Z" fill="#20B25B"/>
<path d="M411.52 256.504C415.454 262.158 412.851 269.621 407.6 272.218C402.25 274.864 395.893 272.781 393.153 267.44C390.703 262.665 392.173 256.843 396.601 253.782C401.299 250.536 406.874 251.477 411.52 256.504Z" fill="#20B25B"/>
</g>
<defs>
<clipPath id="clip0_5_2">
<rect width="574" height="574" fill="white"/>
</clipPath>
</defs>
</svg>
