<?xml version="1.0" encoding="utf-8"?>
<!-- Generator: Adobe Illustrator 24.2.3, SVG Export Plug-In . SVG Version: 6.00 Build 0)  -->
<svg version="1.1" id="Layer_1" xmlns="http://www.w3.org/2000/svg" xmlns:xlink="http://www.w3.org/1999/xlink" x="0px" y="0px"
	 viewBox="0 0 212 46" style="enable-background:new 0 0 212 46;" xml:space="preserve">
<style type="text/css">
	.st0{display:none;fill:none;}
	.st1{fill:#FFFFFF;}
	.st2{opacity:0.1;}
	.st3{fill:none;stroke:#FFD24B;}
</style>
<rect y="0" class="st0" width="212" height="46"/>
<path class="st1" d="M0,0v46h212V0H0z M41.6,19c-0.4,0.4-0.8,0.9-1.3,1.3c-2.6,2.3-5.1,4.5-7.7,6.8c-0.1,0.1-0.1,0.1-0.2,0.2
	c0.2,1,0.5,2,0.7,3c0.5,2.4,1.1,4.7,1.6,7.1c0.1,0.5,0.2,0.9,0.3,1.4c0.1,0.4,0,0.8-0.3,1c-0.3,0.3-0.7,0.3-1.1,0.1
	c-1.1-0.6-2.2-1.3-3.3-1.9c-2.2-1.3-4.5-2.7-6.7-4c-0.2-0.1-0.4-0.1-0.5,0c-2.5,1.5-4.9,2.9-7.4,4.4c-0.1,0-0.2,0.1-0.2,0.1
	c-0.8,0.5-1.6,1-2.4,1.4c-0.3,0.2-0.7,0.1-1-0.1c-0.3-0.2-0.4-0.6-0.3-0.9c0.5-2.2,1-4.4,1.5-6.6c0.4-1.6,0.7-3.2,1.1-4.8
	c0-0.1,0-0.3-0.1-0.4c-1.3-1.1-2.6-2.3-3.9-3.4c-1.1-1-2.2-1.9-3.3-2.9c-0.5-0.4-1-0.9-1.5-1.3c-0.3-0.3-0.5-0.7-0.4-1.1
	c0.2-0.4,0.6-0.7,1-0.7c0.9-0.1,1.9-0.2,2.8-0.3c0.9-0.1,1.8-0.1,2.7-0.2c0.8-0.1,1.7-0.2,2.5-0.3c0.6-0.1,1.3-0.1,1.9-0.2
	c0.5,0,1-0.1,1.5-0.2c0.1,0,0.2-0.1,0.2-0.2c0.8-1.9,1.7-3.9,2.5-5.8c0.7-1.6,1.4-3.2,2.1-4.8c0.1-0.3,0.3-0.5,0.6-0.6
	c0.5-0.2,1.1,0.1,1.3,0.6c0.8,1.7,1.5,3.5,2.2,5.2l0,0.2c0.5,1.1,0.9,2.2,1.4,3.2c0.3,0.6,0.5,1.2,0.8,1.8c0.1,0.4,0.4,0.4,0.7,0.4
	c1,0.1,1.9,0.2,2.9,0.3c0.6,0.1,1.2,0.1,1.9,0.2c0.6,0.1,1.3,0.1,1.9,0.2c0.6,0.1,1.2,0.1,1.8,0.2c0.7,0.1,1.4,0.1,2.1,0.2
	c0.1,0,0.2,0,0.2,0c0.6-0.1,1.1,0.2,1.3,0.7V19z M82.5,19c-0.4,0.4-0.8,0.9-1.3,1.3c-2.6,2.3-5.1,4.5-7.7,6.8
	c-0.1,0.1-0.1,0.1-0.2,0.2c0.2,1,0.5,2,0.7,3c0.5,2.4,1.1,4.7,1.6,7.1c0.1,0.5,0.2,0.9,0.3,1.4c0.1,0.4,0,0.8-0.3,1
	c-0.3,0.3-0.7,0.3-1.1,0.1c-1.1-0.6-2.2-1.3-3.3-1.9c-2.2-1.3-4.5-2.7-6.7-4c-0.2-0.1-0.4-0.1-0.5,0c-2.5,1.5-4.9,2.9-7.4,4.4
	c-0.1,0-0.2,0.1-0.2,0.1c-0.8,0.5-1.6,1-2.4,1.4c-0.3,0.2-0.7,0.1-1-0.1c-0.3-0.2-0.4-0.6-0.3-0.9c0.5-2.2,1-4.4,1.5-6.6
	c0.4-1.6,0.7-3.2,1.1-4.8c0-0.1,0-0.3-0.1-0.4c-1.3-1.1-2.6-2.3-3.9-3.4c-1.1-1-2.2-1.9-3.3-2.9c-0.5-0.4-1-0.9-1.5-1.3
	c-0.3-0.3-0.5-0.7-0.4-1.1c0.2-0.4,0.6-0.7,1-0.7c0.9-0.1,1.9-0.2,2.8-0.3c0.9-0.1,1.8-0.1,2.7-0.2c0.8-0.1,1.7-0.2,2.5-0.3
	c0.6-0.1,1.3-0.1,1.9-0.2c0.5,0,1-0.1,1.5-0.2c0.1,0,0.2-0.1,0.2-0.2c0.8-1.9,1.7-3.9,2.5-5.8c0.7-1.6,1.4-3.2,2.1-4.8
	c0.1-0.3,0.3-0.5,0.6-0.6c0.5-0.2,1.1,0.1,1.3,0.6c0.8,1.7,1.5,3.5,2.2,5.2l0,0.2c0.5,1.1,0.9,2.2,1.4,3.2c0.3,0.6,0.5,1.2,0.8,1.8
	c0.1,0.4,0.4,0.4,0.7,0.4c1,0.1,1.9,0.2,2.9,0.3c0.6,0.1,1.2,0.1,1.9,0.2c0.6,0.1,1.3,0.1,1.9,0.2c0.6,0.1,1.2,0.1,1.8,0.2
	c0.7,0.1,1.4,0.1,2.1,0.2c0.1,0,0.2,0,0.2,0c0.6-0.1,1.1,0.2,1.3,0.7V19z M123.6,19c-0.4,0.4-0.8,0.9-1.3,1.3
	c-2.6,2.3-5.1,4.5-7.7,6.8c-0.1,0.1-0.1,0.1-0.2,0.2c0.2,1,0.5,2,0.7,3c0.5,2.4,1.1,4.7,1.6,7.1c0.1,0.5,0.2,0.9,0.3,1.4
	c0.1,0.4,0,0.8-0.3,1c-0.3,0.3-0.7,0.3-1.1,0.1c-1.1-0.6-2.2-1.3-3.3-1.9c-2.2-1.3-4.5-2.7-6.7-4c-0.2-0.1-0.4-0.1-0.5,0
	c-2.5,1.5-4.9,2.9-7.4,4.4c-0.1,0-0.2,0.1-0.2,0.1c-0.8,0.5-1.6,1-2.4,1.4c-0.3,0.2-0.7,0.1-1-0.1c-0.3-0.2-0.4-0.6-0.3-0.9
	c0.5-2.2,1-4.4,1.5-6.6c0.4-1.6,0.7-3.2,1.1-4.8c0-0.1,0-0.3-0.1-0.4c-1.3-1.1-2.6-2.3-3.9-3.4c-1.1-1-2.2-1.9-3.3-2.9
	c-0.5-0.4-1-0.9-1.5-1.3c-0.3-0.3-0.5-0.7-0.4-1.1c0.2-0.4,0.6-0.7,1-0.7c0.9-0.1,1.9-0.2,2.8-0.3c0.9-0.1,1.8-0.1,2.7-0.2
	c0.8-0.1,1.7-0.2,2.5-0.3c0.6-0.1,1.3-0.1,1.9-0.2c0.5,0,1-0.1,1.5-0.2c0.1,0,0.2-0.1,0.2-0.2c0.8-1.9,1.7-3.9,2.5-5.8
	c0.7-1.6,1.4-3.2,2.1-4.8c0.1-0.3,0.3-0.5,0.6-0.6c0.5-0.2,1.1,0.1,1.3,0.6c0.8,1.7,1.5,3.5,2.2,5.2l0,0.2c0.5,1.1,0.9,2.2,1.4,3.2
	c0.3,0.6,0.5,1.2,0.8,1.8c0.1,0.4,0.4,0.4,0.7,0.4c1,0.1,1.9,0.2,2.9,0.3c0.6,0.1,1.2,0.1,1.9,0.2c0.6,0.1,1.3,0.1,1.9,0.2
	c0.6,0.1,1.2,0.1,1.8,0.2c0.7,0.1,1.4,0.1,2.1,0.2c0.1,0,0.2,0,0.2,0c0.6-0.1,1.1,0.2,1.3,0.7V19z M164.5,19
	c-0.4,0.4-0.8,0.9-1.3,1.3c-2.6,2.3-5.1,4.5-7.7,6.8c-0.1,0.1-0.1,0.1-0.2,0.2c0.2,1,0.5,2,0.7,3c0.5,2.4,1.1,4.7,1.6,7.1
	c0.1,0.5,0.2,0.9,0.3,1.4c0.1,0.4,0,0.8-0.3,1c-0.3,0.3-0.7,0.3-1.1,0.1c-1.1-0.6-2.2-1.3-3.3-1.9c-2.2-1.3-4.5-2.7-6.7-4
	c-0.2-0.1-0.4-0.1-0.5,0c-2.5,1.5-4.9,2.9-7.4,4.4c-0.1,0-0.2,0.1-0.2,0.1c-0.8,0.5-1.6,1-2.4,1.4c-0.3,0.2-0.7,0.1-1-0.1
	c-0.3-0.2-0.4-0.6-0.3-0.9c0.5-2.2,1-4.4,1.5-6.6c0.4-1.6,0.7-3.2,1.1-4.8c0-0.1,0-0.3-0.1-0.4c-1.3-1.1-2.6-2.3-3.9-3.4
	c-1.1-1-2.2-1.9-3.3-2.9c-0.5-0.4-1-0.9-1.5-1.3c-0.3-0.3-0.5-0.7-0.4-1.1c0.2-0.4,0.6-0.7,1-0.7c0.9-0.1,1.9-0.2,2.8-0.3
	c0.9-0.1,1.8-0.1,2.7-0.2c0.8-0.1,1.7-0.2,2.5-0.3c0.6-0.1,1.3-0.1,1.9-0.2c0.5,0,1-0.1,1.5-0.2c0.1,0,0.2-0.1,0.2-0.2
	c0.8-1.9,1.7-3.9,2.5-5.8c0.7-1.6,1.4-3.2,2.1-4.8c0.1-0.3,0.3-0.5,0.6-0.6c0.5-0.2,1.1,0.1,1.3,0.6c0.8,1.7,1.5,3.5,2.2,5.2l0,0.2
	c0.5,1.1,0.9,2.2,1.4,3.2c0.3,0.6,0.5,1.2,0.8,1.8c0.1,0.4,0.4,0.4,0.7,0.4c1,0.1,1.9,0.2,2.9,0.3c0.6,0.1,1.2,0.1,1.9,0.2
	c0.6,0.1,1.3,0.1,1.9,0.2c0.6,0.1,1.2,0.1,1.8,0.2c0.7,0.1,1.4,0.1,2.1,0.2c0.1,0,0.2,0,0.2,0c0.6-0.1,1.1,0.2,1.3,0.7V19z
	 M205.5,19c-0.4,0.4-0.8,0.9-1.3,1.3c-2.6,2.3-5.1,4.5-7.7,6.8c-0.1,0.1-0.1,0.1-0.2,0.2c0.2,1,0.5,2,0.7,3c0.5,2.4,1.1,4.7,1.6,7.1
	c0.1,0.5,0.2,0.9,0.3,1.4c0.1,0.4,0,0.8-0.3,1c-0.3,0.3-0.7,0.3-1.1,0.1c-1.1-0.6-2.2-1.3-3.3-1.9c-2.2-1.3-4.5-2.7-6.7-4
	c-0.2-0.1-0.4-0.1-0.5,0c-2.5,1.5-4.9,2.9-7.4,4.4c-0.1,0-0.2,0.1-0.2,0.1c-0.8,0.5-1.6,1-2.4,1.4c-0.3,0.2-0.7,0.1-1-0.1
	c-0.3-0.2-0.4-0.6-0.3-0.9c0.5-2.2,1-4.4,1.5-6.6c0.4-1.6,0.7-3.2,1.1-4.8c0-0.1,0-0.3-0.1-0.4c-1.3-1.1-2.6-2.3-3.9-3.4
	c-1.1-1-2.2-1.9-3.3-2.9c-0.5-0.4-1-0.9-1.5-1.3c-0.3-0.3-0.5-0.7-0.4-1.1c0.2-0.4,0.6-0.7,1-0.7c0.9-0.1,1.9-0.2,2.8-0.3
	c0.9-0.1,1.8-0.1,2.7-0.2c0.8-0.1,1.7-0.2,2.5-0.3c0.6-0.1,1.3-0.1,1.9-0.2c0.5,0,1-0.1,1.5-0.2c0.1,0,0.2-0.1,0.2-0.2
	c0.8-1.9,1.7-3.9,2.5-5.8c0.7-1.6,1.4-3.2,2.1-4.8c0.1-0.3,0.3-0.5,0.6-0.6c0.5-0.2,1.1,0.1,1.3,0.6c0.8,1.7,1.5,3.5,2.2,5.2l0,0.2
	c0.5,1.1,0.9,2.2,1.4,3.2c0.3,0.6,0.5,1.2,0.8,1.8c0.1,0.4,0.4,0.4,0.7,0.4c1,0.1,1.9,0.2,2.9,0.3c0.6,0.1,1.2,0.1,1.9,0.2
	c0.6,0.1,1.3,0.1,1.9,0.2c0.6,0.1,1.2,0.1,1.8,0.2c0.7,0.1,1.4,0.1,2.1,0.2c0.1,0,0.2,0,0.2,0c0.6-0.1,1.1,0.2,1.3,0.7V19z"/>
<path id="Path_96" class="st2" d="M26.6,11.5c-0.3,0.3-0.6,0.5-0.8,0.8c-1.2,1.6-2.5,3.2-3.6,4.9c-1.3,2-2.5,4.2-3.4,6.4
	c-0.9,2-1.5,4.1-2.1,6.2c-0.3,1.5-0.6,3-0.8,4.4c-0.2,1.1-0.2,2.2-0.3,3.3c0,0.4,0,0.8-0.1,1.2c-0.8,0.5-1.6,1-2.4,1.4
	c-0.3,0.2-0.7,0.1-1-0.1c-0.3-0.2-0.4-0.6-0.3-0.9c0.5-2.2,1-4.4,1.5-6.6c0.4-1.6,0.7-3.2,1.1-4.8c0-0.1,0-0.3-0.1-0.4
	c-1.3-1.1-2.6-2.3-3.9-3.4c-1.1-1-2.2-1.9-3.3-2.9c-0.5-0.4-1-0.9-1.5-1.3c-0.3-0.3-0.5-0.7-0.4-1.1c0.2-0.4,0.6-0.7,1-0.7
	c0.9-0.1,1.9-0.2,2.8-0.3c0.9-0.1,1.8-0.1,2.7-0.2c0.8-0.1,1.7-0.2,2.5-0.3c0.6-0.1,1.3-0.1,1.9-0.2c0.5,0,1-0.1,1.5-0.2
	c0.1,0,0.2-0.1,0.2-0.2c0.8-1.9,1.7-3.9,2.5-5.8c0.7-1.6,1.4-3.2,2.1-4.8c0.2-0.5,0.7-0.8,1.2-0.6C24,5.6,24.3,5.8,24.4,6
	c0.8,1.7,1.5,3.5,2.2,5.2C26.6,11.3,26.6,11.4,26.6,11.5"/>
<path id="Path_96_1_" class="st2" d="M67.6,11.5c-0.3,0.3-0.6,0.5-0.8,0.8c-1.2,1.6-2.5,3.2-3.6,4.9c-1.3,2-2.5,4.2-3.4,6.4
	c-0.9,2-1.5,4.1-2.1,6.2c-0.3,1.5-0.6,3-0.8,4.4c-0.2,1.1-0.2,2.2-0.3,3.3c0,0.4,0,0.8-0.1,1.2c-0.8,0.5-1.6,1-2.4,1.4
	c-0.3,0.2-0.7,0.1-1-0.1c-0.3-0.2-0.4-0.6-0.3-0.9c0.5-2.2,1-4.4,1.5-6.6c0.4-1.6,0.7-3.2,1.1-4.8c0-0.1,0-0.3-0.1-0.4
	c-1.3-1.1-2.6-2.3-3.9-3.4c-1.1-1-2.2-1.9-3.3-2.9c-0.5-0.4-1-0.9-1.5-1.3c-0.3-0.3-0.5-0.7-0.4-1.1c0.2-0.4,0.6-0.7,1-0.7
	c0.9-0.1,1.9-0.2,2.8-0.3c0.9-0.1,1.8-0.1,2.7-0.2c0.8-0.1,1.7-0.2,2.5-0.3c0.6-0.1,1.3-0.1,1.9-0.2c0.5,0,1-0.1,1.5-0.2
	c0.1,0,0.2-0.1,0.2-0.2c0.8-1.9,1.7-3.9,2.5-5.8c0.7-1.6,1.4-3.2,2.1-4.8c0.2-0.5,0.7-0.8,1.2-0.6C65,5.6,65.3,5.8,65.4,6
	c0.8,1.7,1.5,3.5,2.2,5.2C67.6,11.3,67.6,11.4,67.6,11.5"/>
<path id="Path_96_2_" class="st2" d="M108.6,11.5c-0.3,0.3-0.6,0.5-0.8,0.8c-1.2,1.6-2.5,3.2-3.6,4.9c-1.3,2-2.5,4.2-3.4,6.4
	c-0.9,2-1.5,4.1-2.1,6.2c-0.3,1.5-0.6,3-0.8,4.4c-0.2,1.1-0.2,2.2-0.3,3.3c0,0.4,0,0.8-0.1,1.2c-0.8,0.5-1.6,1-2.4,1.4
	c-0.3,0.2-0.7,0.1-1-0.1c-0.3-0.2-0.4-0.6-0.3-0.9c0.5-2.2,1-4.4,1.5-6.6c0.4-1.6,0.7-3.2,1.1-4.8c0-0.1,0-0.3-0.1-0.4
	c-1.3-1.1-2.6-2.3-3.9-3.4c-1.1-1-2.2-1.9-3.3-2.9c-0.5-0.4-1-0.9-1.5-1.3c-0.3-0.3-0.5-0.7-0.4-1.1c0.2-0.4,0.6-0.7,1-0.7
	c0.9-0.1,1.9-0.2,2.8-0.3c0.9-0.1,1.8-0.1,2.7-0.2c0.8-0.1,1.7-0.2,2.5-0.3c0.6-0.1,1.3-0.1,1.9-0.2c0.5,0,1-0.1,1.5-0.2
	c0.1,0,0.2-0.1,0.2-0.2c0.8-1.9,1.7-3.9,2.5-5.8c0.7-1.6,1.4-3.2,2.1-4.8c0.2-0.5,0.7-0.8,1.2-0.6c0.3,0.1,0.5,0.3,0.6,0.6
	c0.8,1.7,1.5,3.5,2.2,5.2C108.6,11.3,108.6,11.4,108.6,11.5"/>
<path id="Path_96_3_" class="st2" d="M149.6,11.5c-0.3,0.3-0.6,0.5-0.8,0.8c-1.2,1.6-2.5,3.2-3.6,4.9c-1.3,2-2.5,4.2-3.4,6.4
	c-0.9,2-1.5,4.1-2.1,6.2c-0.3,1.5-0.6,3-0.8,4.4c-0.2,1.1-0.2,2.2-0.3,3.3c0,0.4,0,0.8-0.1,1.2c-0.8,0.5-1.6,1-2.4,1.4
	c-0.3,0.2-0.7,0.1-1-0.1c-0.3-0.2-0.4-0.6-0.3-0.9c0.5-2.2,1-4.4,1.5-6.6c0.4-1.6,0.7-3.2,1.1-4.8c0-0.1,0-0.3-0.1-0.4
	c-1.3-1.1-2.6-2.3-3.9-3.4c-1.1-1-2.2-1.9-3.3-2.9c-0.5-0.4-1-0.9-1.5-1.3c-0.3-0.3-0.5-0.7-0.4-1.1c0.2-0.4,0.6-0.7,1-0.7
	c0.9-0.1,1.9-0.2,2.8-0.3c0.9-0.1,1.8-0.1,2.7-0.2c0.8-0.1,1.7-0.2,2.5-0.3c0.6-0.1,1.3-0.1,1.9-0.2c0.5,0,1-0.1,1.5-0.2
	c0.1,0,0.2-0.1,0.2-0.2c0.8-1.9,1.7-3.9,2.5-5.8c0.7-1.6,1.4-3.2,2.1-4.8c0.2-0.5,0.7-0.8,1.2-0.6c0.3,0.1,0.5,0.3,0.6,0.6
	c0.8,1.7,1.5,3.5,2.2,5.2C149.6,11.3,149.6,11.4,149.6,11.5"/>
<path id="Path_96_4_" class="st2" d="M190.6,11.5c-0.3,0.3-0.6,0.5-0.8,0.8c-1.2,1.6-2.5,3.2-3.6,4.9c-1.3,2-2.5,4.2-3.4,6.4
	c-0.9,2-1.5,4.1-2.1,6.2c-0.3,1.5-0.6,3-0.8,4.4c-0.2,1.1-0.2,2.2-0.3,3.3c0,0.4,0,0.8-0.1,1.2c-0.8,0.5-1.6,1-2.4,1.4
	c-0.3,0.2-0.7,0.1-1-0.1c-0.3-0.2-0.4-0.6-0.3-0.9c0.5-2.2,1-4.4,1.5-6.6c0.4-1.6,0.7-3.2,1.1-4.8c0-0.1,0-0.3-0.1-0.4
	c-1.3-1.1-2.6-2.3-3.9-3.4c-1.1-1-2.2-1.9-3.3-2.9c-0.5-0.4-1-0.9-1.5-1.3c-0.3-0.3-0.5-0.7-0.4-1.1c0.2-0.4,0.6-0.7,1-0.7
	c0.9-0.1,1.9-0.2,2.8-0.3c0.9-0.1,1.8-0.1,2.7-0.2c0.8-0.1,1.7-0.2,2.5-0.3c0.6-0.1,1.3-0.1,1.9-0.2c0.5,0,1-0.1,1.5-0.2
	c0.1,0,0.2-0.1,0.2-0.2c0.8-1.9,1.7-3.9,2.5-5.8c0.7-1.6,1.4-3.2,2.1-4.8c0.2-0.5,0.7-0.8,1.2-0.6c0.3,0.1,0.5,0.3,0.6,0.6
	c0.8,1.7,1.5,3.5,2.2,5.2C190.6,11.3,190.6,11.4,190.6,11.5"/>
<path id="Path_291" class="st3" d="M40.3,17.8c-0.1,0-0.2,0-0.2,0c-0.7-0.1-1.4-0.1-2.1-0.2c-0.6-0.1-1.2-0.1-1.8-0.2
	c-0.6-0.1-1.3-0.1-1.9-0.2c-0.6-0.1-1.2-0.1-1.9-0.2c-1-0.1-1.9-0.2-2.9-0.3c-0.3,0-0.6-0.1-0.7-0.4c-0.2-0.6-0.5-1.2-0.8-1.8
	c-0.5-1.1-1-2.2-1.4-3.2l0,0l0-0.2c-0.7-1.7-1.5-3.5-2.2-5.2c-0.2-0.5-0.8-0.8-1.3-0.6c-0.3,0.1-0.5,0.3-0.6,0.6
	c-0.7,1.6-1.4,3.2-2.1,4.8c-0.8,1.9-1.7,3.9-2.5,5.8c0,0.1-0.1,0.2-0.2,0.2c-0.5,0.1-1,0.1-1.5,0.2c-0.6,0.1-1.3,0.1-1.9,0.2
	c-0.8,0.1-1.7,0.2-2.5,0.3c-0.9,0.1-1.8,0.1-2.7,0.2c-0.9,0.1-1.9,0.2-2.8,0.3c-0.4,0-0.9,0.3-1,0.7c-0.1,0.4,0.1,0.8,0.4,1.1
	c0.5,0.4,1,0.9,1.5,1.3c1.1,1,2.2,1.9,3.3,2.9c1.3,1.1,2.6,2.3,3.9,3.4c0.1,0.1,0.1,0.2,0.1,0.4c-0.3,1.6-0.7,3.2-1.1,4.8
	c-0.5,2.2-1,4.4-1.5,6.6c-0.1,0.4,0.1,0.7,0.3,0.9c0.3,0.3,0.6,0.3,1,0.1c0.8-0.5,1.6-0.9,2.4-1.4c0.1,0,0.2-0.1,0.2-0.1
	c2.5-1.5,4.9-2.9,7.4-4.4c0.1-0.1,0.4-0.1,0.5,0c2.2,1.3,4.5,2.7,6.7,4c1.1,0.6,2.2,1.3,3.3,1.9c0.3,0.2,0.8,0.2,1.1-0.1
	c0.3-0.2,0.4-0.6,0.3-1c-0.1-0.5-0.2-0.9-0.3-1.4c-0.5-2.4-1.1-4.7-1.6-7.1c-0.2-1-0.5-2-0.7-3c0.1-0.1,0.2-0.1,0.2-0.2
	c2.6-2.3,5.1-4.5,7.7-6.8c0.5-0.4,0.9-0.9,1.3-1.3v-0.5C41.3,18,40.8,17.7,40.3,17.8z"/>
<path id="Path_291_1_" class="st3" d="M81.2,17.8c-0.1,0-0.2,0-0.2,0c-0.7-0.1-1.4-0.1-2.1-0.2c-0.6-0.1-1.2-0.1-1.8-0.2
	c-0.6-0.1-1.3-0.1-1.9-0.2c-0.6-0.1-1.2-0.1-1.9-0.2c-1-0.1-1.9-0.2-2.9-0.3c-0.3,0-0.6-0.1-0.7-0.4c-0.2-0.6-0.5-1.2-0.8-1.8
	c-0.5-1.1-1-2.2-1.4-3.2l0,0l0-0.2c-0.7-1.7-1.5-3.5-2.2-5.2C65,5.4,64.5,5.1,64,5.3c-0.3,0.1-0.5,0.3-0.6,0.6
	c-0.7,1.6-1.4,3.2-2.1,4.8c-0.8,1.9-1.7,3.9-2.5,5.8c0,0.1-0.1,0.2-0.2,0.2c-0.5,0.1-1,0.1-1.5,0.2c-0.6,0.1-1.3,0.1-1.9,0.2
	c-0.8,0.1-1.7,0.2-2.5,0.3c-0.9,0.1-1.8,0.1-2.7,0.2c-0.9,0.1-1.9,0.2-2.8,0.3c-0.4,0-0.9,0.3-1,0.7c-0.1,0.4,0.1,0.8,0.4,1.1
	c0.5,0.4,1,0.9,1.5,1.3c1.1,1,2.2,1.9,3.3,2.9c1.3,1.1,2.6,2.3,3.9,3.4c0.1,0.1,0.1,0.2,0.1,0.4c-0.3,1.6-0.7,3.2-1.1,4.8
	c-0.5,2.2-1,4.4-1.5,6.6c-0.1,0.4,0.1,0.7,0.3,0.9c0.3,0.3,0.6,0.3,1,0.1c0.8-0.5,1.6-0.9,2.4-1.4c0.1,0,0.2-0.1,0.2-0.1
	c2.5-1.5,4.9-2.9,7.4-4.4c0.1-0.1,0.4-0.1,0.5,0c2.2,1.3,4.5,2.7,6.7,4c1.1,0.6,2.2,1.3,3.3,1.9c0.3,0.2,0.8,0.2,1.1-0.1
	c0.3-0.2,0.4-0.6,0.3-1c-0.1-0.5-0.2-0.9-0.3-1.4c-0.5-2.4-1.1-4.7-1.6-7.1c-0.2-1-0.5-2-0.7-3c0.1-0.1,0.2-0.1,0.2-0.2
	c2.6-2.3,5.1-4.5,7.7-6.8c0.5-0.4,0.9-0.9,1.3-1.3v-0.5C82.3,18,81.7,17.7,81.2,17.8z"/>
<path id="Path_291_3_" class="st3" d="M122.3,17.8c-0.1,0-0.2,0-0.2,0c-0.7-0.1-1.4-0.1-2.1-0.2c-0.6-0.1-1.2-0.1-1.8-0.2
	c-0.6-0.1-1.3-0.1-1.9-0.2c-0.6-0.1-1.2-0.1-1.9-0.2c-1-0.1-1.9-0.2-2.9-0.3c-0.3,0-0.6-0.1-0.7-0.4c-0.2-0.6-0.5-1.2-0.8-1.8
	c-0.5-1.1-1-2.2-1.4-3.2l0,0l0-0.2c-0.7-1.7-1.5-3.5-2.2-5.2c-0.2-0.5-0.8-0.8-1.3-0.6c-0.3,0.1-0.5,0.3-0.6,0.6
	c-0.7,1.6-1.4,3.2-2.1,4.8c-0.8,1.9-1.7,3.9-2.5,5.8c0,0.1-0.1,0.2-0.2,0.2c-0.5,0.1-1,0.1-1.5,0.2c-0.6,0.1-1.3,0.1-1.9,0.2
	c-0.8,0.1-1.7,0.2-2.5,0.3c-0.9,0.1-1.8,0.1-2.7,0.2c-0.9,0.1-1.9,0.2-2.8,0.3c-0.4,0-0.9,0.3-1,0.7c-0.1,0.4,0.1,0.8,0.4,1.1
	c0.5,0.4,1,0.9,1.5,1.3c1.1,1,2.2,1.9,3.3,2.9c1.3,1.1,2.6,2.3,3.9,3.4c0.1,0.1,0.1,0.2,0.1,0.4c-0.3,1.6-0.7,3.2-1.1,4.8
	c-0.5,2.2-1,4.4-1.5,6.6c-0.1,0.4,0.1,0.7,0.3,0.9c0.3,0.3,0.6,0.3,1,0.1c0.8-0.5,1.6-0.9,2.4-1.4c0.1,0,0.2-0.1,0.2-0.1
	c2.5-1.5,4.9-2.9,7.4-4.4c0.1-0.1,0.4-0.1,0.5,0c2.2,1.3,4.5,2.7,6.7,4c1.1,0.6,2.2,1.3,3.3,1.9c0.3,0.2,0.8,0.2,1.1-0.1
	c0.3-0.2,0.4-0.6,0.3-1c-0.1-0.5-0.2-0.9-0.3-1.4c-0.5-2.4-1.1-4.7-1.6-7.1c-0.2-1-0.5-2-0.7-3c0.1-0.1,0.2-0.1,0.2-0.2
	c2.6-2.3,5.1-4.5,7.7-6.8c0.5-0.4,0.9-0.9,1.3-1.3v-0.5C123.3,18,122.8,17.7,122.3,17.8z"/>
<path id="Path_291_2_" class="st3" d="M163.2,17.8c-0.1,0-0.2,0-0.2,0c-0.7-0.1-1.4-0.1-2.1-0.2c-0.6-0.1-1.2-0.1-1.8-0.2
	c-0.6-0.1-1.3-0.1-1.9-0.2c-0.6-0.1-1.2-0.1-1.9-0.2c-1-0.1-1.9-0.2-2.9-0.3c-0.3,0-0.6-0.1-0.7-0.4c-0.2-0.6-0.5-1.2-0.8-1.8
	c-0.5-1.1-1-2.2-1.4-3.2l0,0l0-0.2c-0.7-1.7-1.5-3.5-2.2-5.2c-0.2-0.5-0.8-0.8-1.3-0.6c-0.3,0.1-0.5,0.3-0.6,0.6
	c-0.7,1.6-1.4,3.2-2.1,4.8c-0.8,1.9-1.7,3.9-2.5,5.8c0,0.1-0.1,0.2-0.2,0.2c-0.5,0.1-1,0.1-1.5,0.2c-0.6,0.1-1.3,0.1-1.9,0.2
	c-0.8,0.1-1.7,0.2-2.5,0.3c-0.9,0.1-1.8,0.1-2.7,0.2c-0.9,0.1-1.9,0.2-2.8,0.3c-0.4,0-0.9,0.3-1,0.7c-0.1,0.4,0.1,0.8,0.4,1.1
	c0.5,0.4,1,0.9,1.5,1.3c1.1,1,2.2,1.9,3.3,2.9c1.3,1.1,2.6,2.3,3.9,3.4c0.1,0.1,0.1,0.2,0.1,0.4c-0.3,1.6-0.7,3.2-1.1,4.8
	c-0.5,2.2-1,4.4-1.5,6.6c-0.1,0.4,0.1,0.7,0.3,0.9c0.3,0.3,0.6,0.3,1,0.1c0.8-0.5,1.6-0.9,2.4-1.4c0.1,0,0.2-0.1,0.2-0.1
	c2.5-1.5,4.9-2.9,7.4-4.4c0.1-0.1,0.4-0.1,0.5,0c2.2,1.3,4.5,2.7,6.7,4c1.1,0.6,2.2,1.3,3.3,1.9c0.3,0.2,0.8,0.2,1.1-0.1
	c0.3-0.2,0.4-0.6,0.3-1c-0.1-0.5-0.2-0.9-0.3-1.4c-0.5-2.4-1.1-4.7-1.6-7.1c-0.2-1-0.5-2-0.7-3c0.1-0.1,0.2-0.1,0.2-0.2
	c2.6-2.3,5.1-4.5,7.7-6.8c0.5-0.4,0.9-0.9,1.3-1.3v-0.5C164.3,18,163.7,17.7,163.2,17.8z"/>
<path id="Path_291_4_" class="st3" d="M204.2,17.8c-0.1,0-0.2,0-0.2,0c-0.7-0.1-1.4-0.1-2.1-0.2c-0.6-0.1-1.2-0.1-1.8-0.2
	c-0.6-0.1-1.3-0.1-1.9-0.2c-0.6-0.1-1.2-0.1-1.9-0.2c-1-0.1-1.9-0.2-2.9-0.3c-0.3,0-0.6-0.1-0.7-0.4c-0.2-0.6-0.5-1.2-0.8-1.8
	c-0.5-1.1-1-2.2-1.4-3.2l0,0l0-0.2c-0.7-1.7-1.5-3.5-2.2-5.2c-0.2-0.5-0.8-0.8-1.3-0.6c-0.3,0.1-0.5,0.3-0.6,0.6
	c-0.7,1.6-1.4,3.2-2.1,4.8c-0.8,1.9-1.7,3.9-2.5,5.8c0,0.1-0.1,0.2-0.2,0.2c-0.5,0.1-1,0.1-1.5,0.2c-0.6,0.1-1.3,0.1-1.9,0.2
	c-0.8,0.1-1.7,0.2-2.5,0.3c-0.9,0.1-1.8,0.1-2.7,0.2c-0.9,0.1-1.9,0.2-2.8,0.3c-0.4,0-0.9,0.3-1,0.7c-0.1,0.4,0.1,0.8,0.4,1.1
	c0.5,0.4,1,0.9,1.5,1.3c1.1,1,2.2,1.9,3.3,2.9c1.3,1.1,2.6,2.3,3.9,3.4c0.1,0.1,0.1,0.2,0.1,0.4c-0.3,1.6-0.7,3.2-1.1,4.8
	c-0.5,2.2-1,4.4-1.5,6.6c-0.1,0.4,0.1,0.7,0.3,0.9c0.3,0.3,0.6,0.3,1,0.1c0.8-0.5,1.6-0.9,2.4-1.4c0.1,0,0.2-0.1,0.2-0.1
	c2.5-1.5,4.9-2.9,7.4-4.4c0.1-0.1,0.4-0.1,0.5,0c2.2,1.3,4.5,2.7,6.7,4c1.1,0.6,2.2,1.3,3.3,1.9c0.3,0.2,0.8,0.2,1.1-0.1
	c0.3-0.2,0.4-0.6,0.3-1c-0.1-0.5-0.2-0.9-0.3-1.4c-0.5-2.4-1.1-4.7-1.6-7.1c-0.2-1-0.5-2-0.7-3c0.1-0.1,0.2-0.1,0.2-0.2
	c2.6-2.3,5.1-4.5,7.7-6.8c0.5-0.4,0.9-0.9,1.3-1.3v-0.5C205.3,18,204.7,17.7,204.2,17.8z"/>
</svg>
