<svg width="214" height="35" viewBox="0 0 214 35" fill="none" xmlns="http://www.w3.org/2000/svg">
<g clip-path="url(#clip0_1_2)">
<rect width="214" height="35" fill="white"/>
<path d="M153.997 6.08425C153.7 6.3399 153.423 6.61827 153.167 6.91697C151.971 8.53306 150.74 10.127 149.633 11.8055C148.316 13.8405 147.195 16.0025 146.288 18.2608C145.447 20.2736 144.772 22.3551 144.27 24.4835C143.928 25.9566 143.692 27.4589 143.478 28.9582C143.323 30.0477 143.282 31.1533 143.19 32.2518C143.158 32.6546 143.142 33.0573 143.119 33.4601C142.333 33.9394 141.555 34.4328 140.756 34.8899C140.61 34.9793 140.438 35.0158 140.269 34.9937C140.1 34.9717 139.943 34.8922 139.823 34.7681C139.683 34.664 139.576 34.5202 139.515 34.3545C139.455 34.1888 139.442 34.0084 139.48 33.8357C139.971 31.6265 140.454 29.4143 140.937 27.2022C141.287 25.6012 141.638 24.0012 141.975 22.3982C141.983 22.3326 141.978 22.2658 141.958 22.2027C141.939 22.1395 141.907 22.0815 141.863 22.0327C140.608 20.8798 139.343 19.7389 138.078 18.5961C137.006 17.6288 135.934 16.6618 134.861 15.6952C134.381 15.2629 133.899 14.8326 133.415 14.4043C133.256 14.275 133.135 14.1031 133.066 13.9075C132.997 13.712 132.982 13.5005 133.022 13.2967C133.102 13.0909 133.241 12.9148 133.42 12.7916C133.599 12.6685 133.811 12.6041 134.027 12.607C134.955 12.5315 135.881 12.4197 136.809 12.3351C137.705 12.2526 138.604 12.1942 139.499 12.1086C140.312 12.0311 141.121 11.9253 141.934 11.8428C142.553 11.7803 143.174 11.736 143.799 11.6807C144.29 11.6363 144.786 11.5951 145.277 11.5276C145.361 11.5165 145.458 11.3957 145.498 11.3021C146.318 9.35671 147.128 7.40834 147.943 5.46198C148.616 3.85093 149.292 2.24424 149.971 0.641911C150.038 0.454775 150.158 0.292992 150.317 0.178261C150.476 0.0635298 150.665 0.00133614 150.859 2.12866e-05C151.054 -0.00129357 151.243 0.0583333 151.404 0.170905C151.564 0.283476 151.687 0.44361 151.756 0.629828C152.494 2.37514 153.227 4.12481 153.954 5.87884C153.975 5.94443 153.99 6.01182 154 6.08023" fill="black" fill-opacity="0.09"/>
<path d="M198.997 6.08425C198.686 6.3399 198.396 6.61827 198.128 6.91697C196.874 8.53306 195.584 10.127 194.425 11.8055C193.045 13.8405 191.871 16.0025 190.92 18.2608C190.039 20.2736 189.332 22.3551 188.807 24.4835C188.449 25.9566 188.201 27.4589 187.977 28.9582C187.814 30.0477 187.771 31.1533 187.675 32.2518C187.642 32.6546 187.625 33.0573 187.6 33.4601C186.778 33.9394 185.962 34.4328 185.126 34.8899C184.972 34.9793 184.793 35.0158 184.615 34.9937C184.438 34.9717 184.274 34.8922 184.148 34.7681C184.001 34.664 183.889 34.5202 183.826 34.3545C183.762 34.1888 183.749 34.0084 183.789 33.8357C184.303 31.6265 184.809 29.4143 185.315 27.2022C185.681 25.6012 186.049 24.0012 186.402 22.3982C186.411 22.3326 186.405 22.2658 186.385 22.2027C186.365 22.1395 186.331 22.0815 186.285 22.0327C184.971 20.8798 183.645 19.7389 182.32 18.5961C181.197 17.6288 180.074 16.6618 178.95 15.6952C178.447 15.2629 177.942 14.8326 177.435 14.4043C177.268 14.275 177.142 14.1031 177.069 13.9075C176.997 13.712 176.981 13.5005 177.024 13.2967C177.107 13.0909 177.252 12.9148 177.44 12.7916C177.628 12.6685 177.85 12.6041 178.076 12.607C179.049 12.5315 180.018 12.4197 180.99 12.3351C181.929 12.2526 182.87 12.1942 183.808 12.1086C184.66 12.0311 185.507 11.9253 186.359 11.8428C187.008 11.7803 187.659 11.736 188.313 11.6807C188.827 11.6363 189.348 11.5951 189.862 11.5276C189.949 11.5165 190.051 11.3957 190.093 11.3021C190.952 9.35671 191.801 7.40834 192.654 5.46198C193.36 3.85093 194.068 2.24424 194.779 0.641911C194.849 0.454775 194.975 0.292992 195.142 0.178261C195.308 0.0635298 195.506 0.00133614 195.71 2.12866e-05C195.913 -0.00129357 196.112 0.0583333 196.28 0.170905C196.448 0.283476 196.577 0.44361 196.649 0.629828C197.422 2.37514 198.19 4.12481 198.952 5.87884C198.974 5.94443 198.99 6.01182 199 6.08023" fill="black" fill-opacity="0.09"/>
<path d="M110.997 6.08425C110.686 6.3399 110.396 6.61827 110.128 6.91697C108.874 8.53306 107.584 10.127 106.425 11.8055C105.045 13.8405 103.871 16.0025 102.92 18.2608C102.039 20.2736 101.332 22.3551 100.807 24.4835C100.449 25.9566 100.201 27.4589 99.9768 28.9582C99.8143 30.0477 99.7711 31.1533 99.6754 32.2518C99.6415 32.6546 99.6251 33.0573 99.6004 33.4601C98.7776 33.9394 97.962 34.4328 97.1259 34.8899C96.9723 34.9793 96.7926 35.0158 96.6154 34.9937C96.4382 34.9717 96.2736 34.8922 96.1478 34.7681C96.0014 34.664 95.8895 34.5202 95.8257 34.3545C95.7619 34.1888 95.7491 34.0084 95.7888 33.8357C96.3031 31.6265 96.8091 29.4143 97.3151 27.2022C97.6812 25.6012 98.0494 24.0012 98.4022 22.3982C98.4112 22.3326 98.4053 22.2658 98.3851 22.2027C98.3648 22.1395 98.3306 22.0815 98.2849 22.0327C96.9706 20.8798 95.6448 19.7389 94.3202 18.5961C93.1971 17.6288 92.0736 16.6618 90.9499 15.6952C90.4466 15.2629 89.9416 14.8326 89.4349 14.4043C89.2684 14.275 89.1418 14.1031 89.0692 13.9075C88.9965 13.712 88.9807 13.5005 89.0235 13.2967C89.1069 13.0909 89.2521 12.9148 89.44 12.7916C89.6279 12.6685 89.8495 12.6041 90.0756 12.607C91.0486 12.5315 92.0184 12.4197 92.9904 12.3351C93.9294 12.2526 94.8704 12.1942 95.8084 12.1086C96.66 12.0311 97.5074 11.9253 98.359 11.8428C99.008 11.7803 99.659 11.736 100.313 11.6807C100.827 11.6363 101.348 11.5951 101.862 11.5276C101.949 11.5165 102.051 11.3957 102.093 11.3021C102.952 9.35671 103.801 7.40834 104.654 5.46198C105.36 3.85093 106.068 2.24424 106.779 0.641911C106.849 0.454775 106.975 0.292992 107.142 0.178261C107.308 0.0635298 107.506 0.00133614 107.71 2.12866e-05C107.913 -0.00129357 108.112 0.0583333 108.28 0.170905C108.448 0.283476 108.577 0.44361 108.649 0.629828C109.422 2.37514 110.19 4.12481 110.952 5.87884C110.974 5.94443 110.99 6.01182 111 6.08023" fill="black" fill-opacity="0.09"/>
<path d="M65.9969 6.08425C65.6861 6.3399 65.3956 6.61827 65.1279 6.91697C63.8741 8.53306 62.5844 10.127 61.4253 11.8055C60.0453 13.8405 58.8714 16.0025 57.9203 18.2608C57.0394 20.2736 56.3325 22.3551 55.8068 24.4835C55.4489 25.9566 55.201 27.4589 54.9768 28.9582C54.8143 30.0477 54.7711 31.1533 54.6754 32.2518C54.6415 32.6546 54.6251 33.0573 54.6004 33.4601C53.7776 33.9394 52.962 34.4328 52.1259 34.8899C51.9723 34.9793 51.7926 35.0158 51.6154 34.9937C51.4382 34.9717 51.2736 34.8922 51.1478 34.7681C51.0014 34.664 50.8895 34.5202 50.8257 34.3545C50.7619 34.1888 50.7491 34.0084 50.7888 33.8357C51.3031 31.6265 51.8091 29.4143 52.3151 27.2022C52.6812 25.6012 53.0494 24.0012 53.4022 22.3982C53.4112 22.3326 53.4053 22.2658 53.3851 22.2027C53.3648 22.1395 53.3306 22.0815 53.2849 22.0327C51.9706 20.8798 50.6448 19.7389 49.3202 18.5961C48.1971 17.6288 47.0736 16.6618 45.9499 15.6952C45.4466 15.2629 44.9416 14.8326 44.4349 14.4043C44.2684 14.275 44.1418 14.1031 44.0692 13.9075C43.9965 13.712 43.9807 13.5005 44.0235 13.2967C44.1069 13.0909 44.2521 12.9148 44.44 12.7916C44.6279 12.6685 44.8495 12.6041 45.0756 12.607C46.0486 12.5315 47.0184 12.4197 47.9904 12.3351C48.9294 12.2526 49.8704 12.1942 50.8084 12.1086C51.66 12.0311 52.5074 11.9253 53.359 11.8428C54.008 11.7803 54.659 11.736 55.3131 11.6807C55.8273 11.6363 56.3478 11.5951 56.862 11.5276C56.9494 11.5165 57.0512 11.3957 57.0934 11.3021C57.9522 9.35671 58.8007 7.40834 59.6543 5.46198C60.3598 3.85093 61.0681 2.24424 61.7791 0.641911C61.8489 0.454775 61.9754 0.292992 62.1417 0.178261C62.3081 0.0635298 62.5063 0.00133614 62.7097 2.12866e-05C62.9132 -0.00129357 63.1122 0.0583333 63.2801 0.170905C63.4479 0.283476 63.5766 0.44361 63.6489 0.629828C64.4223 2.37514 65.1899 4.12481 65.9517 5.87884C65.9739 5.94443 65.99 6.01182 66 6.08023" fill="black" fill-opacity="0.09"/>
<path d="M21.9969 6.08425C21.6861 6.3399 21.3956 6.61827 21.1279 6.91697C19.8741 8.53306 18.5844 10.127 17.4253 11.8055C16.0453 13.8405 14.8714 16.0025 13.9203 18.2608C13.0394 20.2736 12.3325 22.3551 11.8068 24.4835C11.4489 25.9566 11.201 27.4589 10.9768 28.9582C10.8143 30.0477 10.7711 31.1533 10.6754 32.2518C10.6415 32.6546 10.6251 33.0573 10.6004 33.4601C9.77759 33.9394 8.96201 34.4328 8.12586 34.8899C7.97229 34.9793 7.79262 35.0158 7.6154 34.9937C7.43819 34.9717 7.27359 34.8922 7.14777 34.7681C7.00144 34.664 6.88945 34.5202 6.82566 34.3545C6.76187 34.1888 6.74907 34.0084 6.78884 33.8357C7.30307 31.6265 7.80908 29.4143 8.3151 27.2022C8.68123 25.6012 9.04943 24.0012 9.40219 22.3982C9.41118 22.3326 9.40533 22.2658 9.38507 22.2027C9.36481 22.1395 9.33063 22.0815 9.28495 22.0327C7.97056 20.8798 6.64485 19.7389 5.32017 18.5961C4.19708 17.6288 3.07364 16.6618 1.94985 15.6952C1.44659 15.2629 0.941605 14.8326 0.434909 14.4043C0.268403 14.275 0.141795 14.1031 0.069166 13.9075C-0.00346241 13.712 -0.0192641 13.5005 0.0235186 13.2967C0.106861 13.0909 0.252096 12.9148 0.439984 12.7916C0.627873 12.6685 0.849549 12.6041 1.07565 12.607C2.04859 12.5315 3.01844 12.4197 3.99035 12.3351C4.92935 12.2526 5.87041 12.1942 6.80838 12.1086C7.65996 12.0311 8.50742 11.9253 9.359 11.8428C10.008 11.7803 10.659 11.736 11.3131 11.6807C11.8273 11.6363 12.3478 11.5951 12.862 11.5276C12.9494 11.5165 13.0512 11.3957 13.0934 11.3021C13.9522 9.35671 14.8007 7.40834 15.6543 5.46198C16.3598 3.85093 17.0681 2.24424 17.7791 0.641911C17.8489 0.454775 17.9754 0.292992 18.1417 0.178261C18.3081 0.0635298 18.5063 0.00133614 18.7097 2.12866e-05C18.9132 -0.00129357 19.1122 0.0583333 19.2801 0.170905C19.4479 0.283476 19.5766 0.44361 19.6489 0.629828C20.4223 2.37514 21.1899 4.12481 21.9517 5.87884C21.9739 5.94443 21.99 6.01182 22 6.08023" fill="black" fill-opacity="0.09"/>
<path fill-rule="evenodd" clip-rule="evenodd" d="M18.5027 0H0V13.5246V35H7.63084C7.59811 34.9999 7.56527 34.9979 7.53252 34.9937C7.35729 34.9717 7.19456 34.8921 7.07026 34.7678C6.9256 34.6637 6.81489 34.5199 6.75183 34.3542C6.68877 34.1884 6.67611 34.0081 6.71542 33.8353C7.21973 31.6272 7.7203 29.4172 8.21715 27.2051L8.23363 27.1324C8.5911 25.5555 8.94837 23.9795 9.29184 22.4006C9.30086 22.335 9.29515 22.2682 9.27511 22.205C9.25508 22.1418 9.22121 22.0838 9.17593 22.0351C8.02921 21.0175 6.87377 20.0093 5.71801 19.0009L5.71763 19.0006L5.71686 18.9999L5.2564 18.5981C4.14884 17.6307 3.03924 16.6636 1.9276 15.6969C1.43076 15.2645 0.931537 14.8342 0.429946 14.4059C0.265339 14.2766 0.140176 14.1046 0.0683767 13.909C0.022939 13.7853 0 13.6551 0 13.5246C0 13.4489 0.00772139 13.373 0.0232502 13.2982C0.105761 13.0924 0.249367 12.9164 0.435084 12.7932C0.620801 12.67 0.839885 12.6056 1.06337 12.6084C1.61321 12.5652 2.16205 12.5102 2.71084 12.4552L2.71103 12.4551L2.71121 12.4551L2.71139 12.4551L2.71158 12.4551C3.12255 12.4139 3.53349 12.3727 3.94481 12.3365C4.38113 12.2977 4.81789 12.2642 5.25458 12.2307L5.25466 12.2307C5.74702 12.193 6.23928 12.1553 6.73067 12.1099C7.19216 12.0674 7.65241 12.0164 8.11279 11.9654L8.11295 11.9654C8.49236 11.9234 8.87186 11.8813 9.25219 11.844C9.65216 11.8057 10.0529 11.7737 10.4547 11.7416L10.4549 11.7416L10.4553 11.7415C10.6978 11.7222 10.9407 11.7028 11.184 11.6819L11.3631 11.6664L11.3631 11.6664C11.813 11.6276 12.2665 11.5884 12.7152 11.5288C12.8016 11.5178 12.9023 11.3969 12.944 11.3033C13.5028 10.0227 14.0571 8.74087 14.6115 7.45914L14.6118 7.45844L14.6119 7.45821L14.6124 7.45703C14.8999 6.79211 15.1875 6.12722 15.4756 5.46257C16.1738 3.85134 16.874 2.24448 17.5762 0.64198C17.6452 0.454824 17.7703 0.293024 17.9347 0.17828C18.0991 0.0635367 18.2951 0.00133628 18.4962 2.12888e-05L18.5027 0ZM62.5027 0L62.4962 2.12888e-05C62.2951 0.00133628 62.0991 0.0635367 61.9347 0.17828C61.7703 0.293024 61.6452 0.454824 61.5762 0.64198C60.874 2.24448 60.1738 3.85134 59.4756 5.46257C59.1874 6.12737 58.8998 6.7924 58.6122 7.45747L58.6117 7.45864L58.6113 7.4596C58.057 8.74118 57.5027 10.0229 56.944 11.3033C56.9023 11.3969 56.8016 11.5178 56.7152 11.5288C56.2665 11.5884 55.813 11.6276 55.3632 11.6664L55.3631 11.6664L55.184 11.6819C54.9407 11.7028 54.6978 11.7222 54.4553 11.7415L54.4549 11.7416C54.0531 11.7737 53.6522 11.8057 53.2522 11.844C52.8719 11.8813 52.4924 11.9234 52.113 11.9654L52.1128 11.9654C51.6524 12.0164 51.1922 12.0674 50.7307 12.1099C50.2393 12.1553 49.747 12.193 49.2547 12.2307L49.2546 12.2307L49.2546 12.2307L49.2546 12.2307C48.8179 12.2642 48.3811 12.2977 47.9448 12.3365C47.5332 12.3727 47.1221 12.4139 46.7108 12.4552C46.1621 12.5102 45.6132 12.5652 45.0634 12.6084C44.8399 12.6056 44.6208 12.67 44.4351 12.7932C44.2494 12.9164 44.1058 13.0924 44.0233 13.2982C43.981 13.502 43.9966 13.7135 44.0684 13.909C44.1402 14.1046 44.2653 14.2766 44.4299 14.4059C44.9315 14.8342 45.4308 15.2645 45.9276 15.6969C47.0392 16.6636 48.1488 17.6307 49.2564 18.5981L49.7166 18.9997L49.7169 18.9999L49.7172 19.0002L49.7174 19.0004C50.8734 20.009 52.029 21.0173 53.1759 22.0351C53.2212 22.0838 53.2551 22.1418 53.2751 22.205C53.2952 22.2682 53.3009 22.335 53.2918 22.4006C52.9484 23.9793 52.5912 25.5552 52.2337 27.1319L52.2336 27.1327L52.2171 27.2051C51.7203 29.4172 51.2197 31.6272 50.7154 33.8353C50.6761 34.0081 50.6888 34.1884 50.7518 34.3542C50.8149 34.5199 50.9256 34.6637 51.0703 34.7678C51.1946 34.8921 51.3573 34.9717 51.5325 34.9937C51.5653 34.9979 51.5981 34.9999 51.6308 35H7.63388C7.77526 34.9997 7.91466 34.9619 8.03718 34.8896C8.63654 34.5581 9.22521 34.2076 9.81365 33.8572L9.81377 33.8571L9.81388 33.857L9.814 33.8569L9.81411 33.8569C10.0371 33.7241 10.26 33.5914 10.4835 33.4597C10.514 33.4431 10.545 33.427 10.576 33.4109C10.6295 33.3831 10.6831 33.3553 10.7346 33.3247C13.2392 31.8511 15.7403 30.3742 18.2381 28.8939C18.3113 28.8378 18.4008 28.8067 18.4933 28.8051C18.5858 28.8035 18.6764 28.8314 18.7516 28.8848C21.0135 30.2234 23.2771 31.5594 25.5424 32.8927C26.6472 33.5466 27.7548 34.1961 28.8651 34.8413C29.0286 34.9475 29.2234 34.9964 29.4182 34.9799C29.6131 34.9635 29.7967 34.8828 29.9398 34.7507C30.0851 34.633 30.1917 34.4751 30.246 34.2972C30.3003 34.1193 30.2999 33.9294 30.2448 33.7517C30.1631 33.4288 30.092 33.1039 30.0208 32.7791C29.9884 32.631 29.9559 32.4828 29.9225 32.3348C29.3863 29.9522 28.8471 27.569 28.3048 25.185C28.1625 24.5583 28.0174 23.9317 27.8729 23.3079L27.8728 23.3074L27.8727 23.3069L27.8726 23.3064C27.785 22.9283 27.6977 22.5513 27.6114 22.176C27.6307 22.1606 27.6491 22.146 27.6669 22.1321L27.7216 22.0895L27.7217 22.0895C27.7742 22.0487 27.8207 22.0126 27.8646 21.9746C30.483 19.7035 33.0927 17.4246 35.6935 15.138C36.0133 14.8601 36.3071 14.5515 36.601 14.2427C36.7332 14.1039 36.8654 13.965 37 13.8289V13.3254C36.8855 13.0758 36.6912 12.8706 36.4471 12.7414C36.2031 12.6122 35.9229 12.5661 35.6498 12.6104C35.5656 12.6143 35.4813 12.6116 35.3976 12.6023C34.9973 12.5666 34.597 12.5281 34.1967 12.4895C33.8853 12.4595 33.5739 12.4296 33.2625 12.4009C32.9544 12.3717 32.6458 12.3465 32.3372 12.3214C32.0286 12.2962 31.7201 12.271 31.412 12.2418C31.1149 12.2129 30.816 12.18 30.5182 12.1472L30.5182 12.1472L30.5182 12.1472L30.5181 12.1472L30.5176 12.1472C30.1736 12.1094 29.8311 12.0717 29.4944 12.0404C29.1725 12.0105 28.8498 11.9864 28.527 11.9623L28.5269 11.9623L28.5268 11.9622L28.5268 11.9622L28.5267 11.9622L28.5267 11.9622C28.2195 11.9393 27.9122 11.9163 27.6053 11.8883C27.2165 11.8529 26.8281 11.8146 26.4396 11.7762C25.8569 11.7187 25.2742 11.6612 24.6903 11.6134C24.3599 11.5862 24.1139 11.5218 23.9786 11.1643C23.8102 10.7157 23.6154 10.281 23.4201 9.84498L23.4201 9.84496C23.3466 9.68097 23.2731 9.51681 23.2008 9.35167C22.7169 8.26342 22.2346 7.1745 21.754 6.08491L21.7093 5.8835C20.9542 4.1266 20.1926 2.37539 19.4247 0.629896C19.3532 0.443657 19.226 0.283507 19.06 0.170923C18.8959 0.059555 18.7016 0 18.5027 0H62.5027ZM107.503 0H62.5027C62.7016 0 62.8959 0.059555 63.06 0.170923C63.226 0.283507 63.3532 0.443657 63.4247 0.629896C64.1926 2.37539 64.9542 4.1266 65.7093 5.8835L65.754 6.08491C66.2346 7.1745 66.7169 8.26342 67.2008 9.35167C67.2725 9.51548 67.3454 9.67833 67.4183 9.841L67.4188 9.84202L67.4194 9.84351L67.4201 9.84502C67.6154 10.281 67.8102 10.7157 67.9786 11.1643C68.1139 11.5218 68.3599 11.5862 68.6903 11.6134C69.2742 11.6612 69.8569 11.7187 70.4396 11.7762C70.8281 11.8146 71.2165 11.8529 71.6053 11.8883C71.9122 11.9163 72.2196 11.9393 72.5268 11.9623L72.5269 11.9623L72.527 11.9623L72.5271 11.9623C72.8499 11.9864 73.1725 12.0105 73.4944 12.0404C73.8312 12.0717 74.1739 12.1094 74.5179 12.1472L74.5181 12.1472L74.5182 12.1473L74.5185 12.1473C74.8162 12.18 75.115 12.2129 75.412 12.2418C75.7201 12.271 76.0286 12.2962 76.3372 12.3214C76.6458 12.3465 76.9544 12.3717 77.2625 12.4009C77.5739 12.4296 77.8853 12.4595 78.1967 12.4895L78.197 12.4896C78.5972 12.5281 78.9974 12.5667 79.3976 12.6023C79.4813 12.6116 79.5656 12.6143 79.6498 12.6104C79.9229 12.5661 80.2031 12.6122 80.4471 12.7414C80.6912 12.8706 80.8855 13.0758 81 13.3254V13.8289C80.8654 13.965 80.7332 14.1039 80.601 14.2427L80.6008 14.2429L80.6008 14.243C80.3069 14.5517 80.0133 14.8602 79.6935 15.138C77.0927 17.4246 74.483 19.7035 71.8646 21.9746C71.8208 22.0125 71.7744 22.0486 71.7219 22.0893L71.7217 22.0894C71.6878 22.1158 71.6513 22.144 71.6114 22.176C71.6972 22.5489 71.7839 22.9235 71.8709 23.2991L71.8728 23.3074C72.0173 23.9313 72.1624 24.5581 72.3048 25.185C72.8471 27.569 73.3863 29.9522 73.9225 32.3348C73.9559 32.4828 73.9884 32.6309 74.0208 32.7791L74.0209 32.7795C74.092 33.1042 74.1631 33.4289 74.2448 33.7517C74.2999 33.9294 74.3003 34.1193 74.246 34.2972C74.1917 34.4751 74.0851 34.633 73.9398 34.7507C73.7967 34.8828 73.6131 34.9635 73.4182 34.9799C73.2234 34.9964 73.0286 34.9475 72.8651 34.8413C71.7548 34.1961 70.6472 33.5466 69.5424 32.8927C67.2771 31.5594 65.0135 30.2234 62.7516 28.8848C62.6764 28.8314 62.5858 28.8035 62.4933 28.8051C62.4008 28.8067 62.3113 28.8378 62.2381 28.8939C59.7403 30.3742 57.2392 31.8511 54.7346 33.3247C54.6831 33.3553 54.6295 33.3831 54.576 33.4109L54.5754 33.4112L54.5192 33.4405L54.4835 33.4597C54.2599 33.5914 54.0368 33.7243 53.8137 33.8571L53.8132 33.8574C53.2249 34.2078 52.6364 34.5582 52.0372 34.8896C51.9147 34.9619 51.7753 34.9997 51.6339 35H96.6308C96.5981 34.9999 96.5653 34.9979 96.5325 34.9937C96.3573 34.9717 96.1946 34.8921 96.0703 34.7678C95.9256 34.6637 95.8149 34.5199 95.7518 34.3542C95.6888 34.1884 95.6761 34.0081 95.7154 33.8353C96.2197 31.6272 96.7203 29.4172 97.2171 27.2051L97.2336 27.1327C97.5911 25.5557 97.9484 23.9796 98.2918 22.4006C98.3009 22.335 98.2952 22.2682 98.2751 22.205C98.2551 22.1418 98.2212 22.0838 98.1759 22.0351C97.0287 21.0171 95.8728 20.0085 94.7166 18.9997L94.2564 18.5981C93.1488 17.6307 92.0392 16.6636 90.9276 15.6969C90.4308 15.2645 89.9315 14.8342 89.4299 14.4059C89.2653 14.2766 89.1402 14.1046 89.0684 13.909C88.9966 13.7135 88.981 13.502 89.0232 13.2982C89.1058 13.0924 89.2494 12.9164 89.4351 12.7932C89.6208 12.67 89.8399 12.6056 90.0634 12.6084C90.6132 12.5652 91.162 12.5102 91.7108 12.4552L91.7111 12.4551C92.1222 12.4139 92.5333 12.3727 92.9448 12.3365C93.381 12.2977 93.8177 12.2642 94.2543 12.2307L94.2545 12.2307L94.2547 12.2307L94.2548 12.2307C94.7471 12.193 95.2393 12.1552 95.7307 12.1099C96.1921 12.0674 96.6524 12.0164 97.1128 11.9654L97.113 11.9654C97.4924 11.9234 97.8719 11.8813 98.2522 11.844C98.6522 11.8057 99.0529 11.7737 99.4548 11.7416L99.4549 11.7416L99.4554 11.7415C99.6979 11.7222 99.9407 11.7027 100.184 11.6819L100.363 11.6664C100.813 11.6276 101.266 11.5884 101.715 11.5288C101.802 11.5178 101.902 11.3969 101.944 11.3033C102.502 10.0244 103.056 8.74424 103.609 7.46419L103.609 7.46402L103.613 7.45655L103.613 7.45479L103.614 7.45303C103.901 6.78944 104.188 6.12589 104.476 5.46257C105.174 3.85134 105.874 2.24448 106.576 0.64198C106.645 0.454824 106.77 0.293024 106.935 0.17828C107.099 0.0635367 107.295 0.00133628 107.496 2.12888e-05L107.503 0ZM151.503 0L151.496 2.12888e-05C151.295 0.00133628 151.099 0.0635367 150.935 0.17828C150.77 0.293024 150.645 0.454824 150.576 0.64198C149.874 2.24448 149.174 3.85134 148.476 5.46257C148.187 6.12835 147.899 6.79437 147.611 7.46043L147.61 7.4616L147.607 7.46862C147.054 8.74719 146.501 10.0259 145.944 11.3033C145.902 11.3969 145.802 11.5178 145.715 11.5288C145.266 11.5884 144.813 11.6276 144.363 11.6664L144.184 11.6819C143.941 11.7027 143.698 11.7222 143.455 11.7415L143.455 11.7416C143.053 11.7737 142.652 11.8057 142.252 11.844C141.872 11.8813 141.492 11.9234 141.113 11.9654L141.113 11.9654C140.652 12.0164 140.192 12.0674 139.731 12.1099C139.239 12.1553 138.747 12.193 138.255 12.2307L138.255 12.2307L138.254 12.2307C137.818 12.2642 137.381 12.2977 136.945 12.3365C136.533 12.3727 136.122 12.4139 135.711 12.4551L135.711 12.4551C135.162 12.5102 134.613 12.5652 134.063 12.6084C133.84 12.6056 133.621 12.67 133.435 12.7932C133.249 12.9164 133.106 13.0924 133.023 13.2982C132.981 13.502 132.997 13.7135 133.068 13.909C133.14 14.1046 133.265 14.2766 133.43 14.4059C133.932 14.8342 134.431 15.2645 134.928 15.6969C136.039 16.6636 137.149 17.6307 138.256 18.5981L138.717 19.0005C139.873 20.009 141.029 21.0173 142.176 22.0351C142.221 22.0838 142.255 22.1418 142.275 22.205C142.295 22.2682 142.301 22.335 142.292 22.4006C141.948 23.9796 141.591 25.5557 141.234 27.1327L141.217 27.2051C140.72 29.4172 140.22 31.6272 139.715 33.8353C139.676 34.0081 139.689 34.1884 139.752 34.3542C139.815 34.5199 139.926 34.6637 140.07 34.7678C140.195 34.8921 140.357 34.9717 140.533 34.9937C140.565 34.9979 140.598 34.9999 140.631 35H96.6339C96.7753 34.9997 96.9147 34.9619 97.0372 34.8896C97.6364 34.5582 98.2249 34.2078 98.8131 33.8575L98.8132 33.8574L98.8136 33.8572C99.0367 33.7243 99.2598 33.5915 99.4835 33.4597C99.514 33.443 99.545 33.427 99.576 33.4109C99.6296 33.3831 99.6831 33.3553 99.7346 33.3247C102.239 31.8511 104.74 30.3742 107.238 28.8939C107.311 28.8378 107.401 28.8067 107.493 28.8051C107.586 28.8035 107.676 28.8314 107.752 28.8848C110.013 30.2234 112.277 31.5594 114.542 32.8927C115.647 33.5466 116.755 34.1961 117.865 34.8413C118.029 34.9475 118.223 34.9964 118.418 34.9799C118.613 34.9635 118.797 34.8828 118.94 34.7507C119.085 34.633 119.192 34.4751 119.246 34.2972C119.3 34.1193 119.3 33.9294 119.245 33.7517C119.163 33.4289 119.092 33.1042 119.021 32.7795L119.021 32.7791C118.988 32.6309 118.956 32.4828 118.922 32.3348C118.386 29.9522 117.847 27.569 117.305 25.185C117.162 24.5581 117.017 23.9313 116.873 23.3074L116.871 23.2991C116.784 22.9235 116.697 22.5489 116.611 22.176C116.651 22.1441 116.688 22.1159 116.721 22.0896L116.722 22.0894L116.722 22.0893C116.774 22.0486 116.821 22.0125 116.865 21.9746C119.483 19.7035 122.093 17.4246 124.693 15.138C125.013 14.8602 125.307 14.5517 125.601 14.243L125.601 14.2429L125.601 14.2427C125.733 14.1039 125.865 13.965 126 13.8289V13.3254C125.885 13.0758 125.691 12.8706 125.447 12.7414C125.203 12.6122 124.923 12.5661 124.65 12.6104C124.566 12.6143 124.481 12.6116 124.398 12.6023C123.997 12.5667 123.597 12.5281 123.197 12.4896L123.197 12.4895C122.885 12.4595 122.574 12.4296 122.262 12.4009C121.954 12.3717 121.646 12.3465 121.337 12.3214C121.029 12.2962 120.72 12.271 120.412 12.2418C120.115 12.2129 119.816 12.18 119.519 12.1473L119.518 12.1473L119.518 12.1472L119.518 12.1472C119.174 12.1094 118.831 12.0717 118.494 12.0404C118.173 12.0105 117.85 11.9864 117.527 11.9623L117.527 11.9623L117.527 11.9623C117.22 11.9393 116.912 11.9163 116.605 11.8883C116.217 11.8529 115.828 11.8146 115.44 11.7762C114.857 11.7187 114.274 11.6612 113.69 11.6134C113.36 11.5862 113.114 11.5218 112.979 11.1643C112.81 10.7157 112.615 10.281 112.42 9.84502C112.347 9.68101 112.273 9.51683 112.201 9.35167C111.717 8.26342 111.235 7.1745 110.754 6.08491L110.709 5.8835C109.954 4.1266 109.193 2.37539 108.425 0.629896C108.353 0.443657 108.226 0.283507 108.06 0.170923C107.896 0.059555 107.702 0 107.503 0H151.503ZM195.503 0H151.503C151.702 0 151.896 0.059555 152.06 0.170923C152.226 0.283507 152.353 0.443657 152.425 0.629896C153.193 2.37539 153.954 4.1266 154.709 5.8835L154.754 6.08491C155.235 7.1745 155.717 8.26342 156.201 9.35167C156.273 9.51675 156.347 9.68085 156.42 9.84478C156.615 10.2808 156.81 10.7157 156.979 11.1643C157.114 11.5218 157.36 11.5862 157.69 11.6134C158.274 11.6612 158.857 11.7187 159.439 11.7762L159.44 11.7762C159.828 11.8146 160.217 11.8529 160.605 11.8883C160.912 11.9163 161.219 11.9393 161.527 11.9622L161.527 11.9623C161.85 11.9864 162.172 12.0105 162.494 12.0404C162.831 12.0717 163.174 12.1094 163.518 12.1472L163.518 12.1472C163.816 12.18 164.115 12.2128 164.412 12.2418C164.72 12.271 165.029 12.2962 165.337 12.3214C165.646 12.3465 165.954 12.3717 166.262 12.4009C166.574 12.4295 166.885 12.4595 167.196 12.4895L167.197 12.4895C167.597 12.5281 167.997 12.5666 168.398 12.6023C168.481 12.6116 168.566 12.6143 168.65 12.6104C168.923 12.5661 169.203 12.6122 169.447 12.7414C169.691 12.8706 169.885 13.0758 170 13.3254V13.8289C169.865 13.965 169.733 14.1039 169.601 14.2427C169.307 14.5515 169.013 14.8601 168.693 15.138C166.093 17.4246 163.483 19.7035 160.865 21.9746C160.821 22.0125 160.774 22.0485 160.722 22.0892L160.722 22.0895C160.696 22.109 160.67 22.1296 160.642 22.152C160.632 22.1598 160.622 22.1678 160.611 22.176C160.697 22.5495 160.784 22.9246 160.871 23.3008L160.873 23.3098C161.018 23.933 161.163 24.559 161.305 25.185C161.847 27.569 162.386 29.9522 162.922 32.3348C162.941 32.4179 162.96 32.5011 162.978 32.5842C162.992 32.6491 163.007 32.7141 163.021 32.779C163.092 33.1038 163.163 33.4287 163.245 33.7517C163.3 33.9294 163.3 34.1193 163.246 34.2972C163.192 34.4751 163.085 34.633 162.94 34.7507C162.797 34.8828 162.613 34.9635 162.418 34.9799C162.223 34.9964 162.029 34.9475 161.865 34.8413C160.755 34.1961 159.647 33.5466 158.542 32.8927C156.277 31.5594 154.013 30.2234 151.752 28.8848C151.676 28.8314 151.586 28.8035 151.493 28.8051C151.401 28.8067 151.311 28.8378 151.238 28.8939C148.74 30.3742 146.239 31.8511 143.735 33.3247C143.683 33.3553 143.63 33.3831 143.576 33.4109C143.56 33.419 143.545 33.4271 143.529 33.4353C143.514 33.4433 143.499 33.4514 143.483 33.4597C143.26 33.5915 143.037 33.7244 142.813 33.8573L142.812 33.8579C142.224 34.2081 141.636 34.5584 141.037 34.8896C140.915 34.9619 140.775 34.9997 140.634 35H184.631C184.598 34.9999 184.565 34.9979 184.533 34.9937C184.357 34.9717 184.195 34.8921 184.07 34.7678C183.926 34.6637 183.815 34.5199 183.752 34.3542C183.689 34.1884 183.676 34.0081 183.715 33.8353C184.22 31.6272 184.72 29.4172 185.217 27.2051L185.234 27.1327C185.591 25.5557 185.948 23.9796 186.292 22.4006C186.301 22.335 186.295 22.2682 186.275 22.205C186.255 22.1418 186.221 22.0838 186.176 22.0351C185.029 21.0173 183.873 20.009 182.717 19.0005L182.256 18.5981C181.149 17.6307 180.039 16.6636 178.928 15.6969C178.431 15.2645 177.932 14.8342 177.43 14.4059C177.265 14.2766 177.14 14.1046 177.068 13.909C176.997 13.7135 176.981 13.502 177.023 13.2982C177.106 13.0924 177.249 12.9164 177.435 12.7932C177.621 12.67 177.84 12.6056 178.063 12.6084C178.613 12.5652 179.162 12.5102 179.711 12.4551C180.122 12.4139 180.533 12.3727 180.945 12.3365C181.381 12.2977 181.818 12.2642 182.255 12.2307C182.747 12.193 183.239 12.1553 183.731 12.1099C184.192 12.0674 184.652 12.0164 185.113 11.9654C185.492 11.9234 185.872 11.8813 186.252 11.844C186.652 11.8057 187.053 11.7737 187.455 11.7416C187.698 11.7222 187.941 11.7028 188.184 11.6819C188.244 11.6767 188.303 11.6716 188.363 11.6664C188.813 11.6276 189.266 11.5884 189.715 11.5288C189.802 11.5178 189.902 11.3969 189.944 11.3033C190.502 10.0235 191.056 8.74251 191.61 7.4616C191.899 6.79516 192.187 6.12875 192.476 5.46257C193.174 3.85134 193.874 2.24448 194.576 0.64198C194.645 0.454824 194.77 0.293024 194.935 0.17828C195.099 0.0635367 195.295 0.00133628 195.496 2.12888e-05C195.498 7.09292e-06 195.501 0 195.503 0ZM214 13.3254V0H195.503C195.702 0 195.896 0.059555 196.06 0.170923C196.226 0.283507 196.353 0.443657 196.425 0.629896C197.193 2.37539 197.954 4.1266 198.709 5.8835L198.754 6.08491C199.235 7.1745 199.717 8.26342 200.201 9.35167C200.273 9.51675 200.347 9.68085 200.42 9.84478C200.615 10.2808 200.81 10.7157 200.979 11.1643C201.114 11.5218 201.36 11.5862 201.69 11.6134C202.274 11.6612 202.857 11.7187 203.44 11.7762C203.828 11.8146 204.217 11.8529 204.605 11.8883C204.912 11.9163 205.22 11.9393 205.527 11.9623C205.85 11.9864 206.172 12.0105 206.494 12.0404C206.831 12.0717 207.174 12.1094 207.518 12.1472C207.816 12.18 208.115 12.2128 208.412 12.2418C208.72 12.271 209.029 12.2962 209.337 12.3214C209.646 12.3465 209.954 12.3717 210.262 12.4009C210.574 12.4296 210.885 12.4595 211.197 12.4895C211.597 12.5281 211.997 12.5666 212.398 12.6023C212.481 12.6116 212.566 12.6143 212.65 12.6104C212.923 12.5661 213.203 12.6122 213.447 12.7414C213.691 12.8706 213.885 13.0758 214 13.3254ZM214 13.8289C213.865 13.965 213.733 14.1039 213.601 14.2427C213.307 14.5515 213.013 14.8601 212.693 15.138C210.093 17.4246 207.483 19.7035 204.865 21.9746C204.821 22.0126 204.774 22.0487 204.722 22.0895C204.688 22.1158 204.651 22.1441 204.611 22.176C204.698 22.5525 204.786 22.9306 204.873 23.3098C205.018 23.933 205.163 24.559 205.305 25.185C205.847 27.569 206.386 29.9522 206.922 32.3348C206.956 32.4827 206.988 32.6309 207.021 32.779C207.092 33.1038 207.163 33.4287 207.245 33.7517C207.3 33.9294 207.3 34.1193 207.246 34.2972C207.192 34.4751 207.085 34.633 206.94 34.7507C206.797 34.8828 206.613 34.9635 206.418 34.9799C206.223 34.9964 206.029 34.9475 205.865 34.8413C204.755 34.1961 203.647 33.5466 202.542 32.8927C200.277 31.5594 198.013 30.2234 195.752 28.8848C195.676 28.8314 195.586 28.8035 195.493 28.8051C195.401 28.8067 195.311 28.8378 195.238 28.8939C192.74 30.3742 190.239 31.8511 187.735 33.3247C187.683 33.3553 187.63 33.3831 187.576 33.4109C187.545 33.427 187.514 33.4431 187.483 33.4597C187.26 33.5915 187.037 33.7244 186.813 33.8573C186.225 34.2077 185.636 34.5582 185.037 34.8896C184.915 34.9619 184.775 34.9997 184.634 35H214V13.8289Z" fill="white"/>
<path d="M35.7014 13.1085L35.6728 13.1098C35.5645 13.1148 35.4561 13.1115 35.3484 13.0999C34.9503 13.0644 34.5464 13.0255 34.1445 12.9868C33.8328 12.9568 33.5222 12.9269 33.2167 12.8988L33.2153 12.8987C32.911 12.8698 32.6057 12.8449 32.2966 12.8197L32.2948 12.8196C31.9874 12.7945 31.6761 12.7691 31.3648 12.7396L31.3635 12.7395C31.0448 12.7084 30.7469 12.6755 30.4536 12.6432C30.1206 12.6064 29.7934 12.5703 29.4482 12.5383C29.1392 12.5095 28.8286 12.4862 28.513 12.4626L28.488 12.4607C28.1819 12.4379 27.871 12.4146 27.5599 12.3863C27.5599 12.3863 27.5599 12.3863 27.5599 12.3863L27.6053 11.8883C27.2165 11.8529 26.8281 11.8146 26.4396 11.7762C25.8569 11.7187 25.2742 11.6612 24.6903 11.6134L35.7014 13.1085ZM35.7014 13.1085L35.7298 13.1039M35.7014 13.1085L35.7298 13.1039M18.2381 28.8939C15.7403 30.3742 13.2392 31.8511 10.7346 33.3247C10.6831 33.3553 10.6295 33.3831 10.576 33.4109C10.545 33.427 10.514 33.4431 10.4835 33.4597L28.8651 34.8413C27.7548 34.1961 26.6472 33.5466 25.5424 32.8927C23.2771 31.5594 21.0135 30.2234 18.7516 28.8848M18.2381 28.8939C18.3113 28.8378 18.4008 28.8067 18.4933 28.8051C18.5858 28.8035 18.6764 28.8314 18.7516 28.8848M18.2381 28.8939L17.9832 28.4637C17.9764 28.4678 17.9695 28.4718 17.9627 28.4759M18.2381 28.8939L17.9344 28.4967C17.9437 28.4896 17.9531 28.4826 17.9627 28.4759M18.7516 28.8848L19.041 28.4771C19.0343 28.4723 19.0275 28.4676 19.0207 28.4631M18.7516 28.8848L19.0062 28.4545C19.0111 28.4574 19.0159 28.4602 19.0207 28.4631M19.0207 28.4631C21.2774 29.7987 23.5359 31.1316 25.796 32.4618L25.797 32.4624C26.9007 33.1156 28.0072 33.7645 29.1163 34.409L29.127 34.4152L29.1375 34.422C29.2076 34.4676 29.2917 34.4888 29.3762 34.4817C29.4607 34.4746 29.5396 34.4396 29.6005 34.3834L29.6125 34.3723L29.6251 34.3621C29.6933 34.3068 29.7427 34.2333 29.7678 34.1512C29.7928 34.0692 29.7926 33.9817 29.7672 33.8998L29.7633 33.8872L29.7601 33.8743C29.6764 33.5434 29.6023 33.2052 29.5303 32.8765C29.4983 32.7303 29.4666 32.586 29.4348 32.4451L29.4347 32.4446C28.8986 30.0624 28.3595 27.6795 27.8173 25.2959L27.8173 25.2958C27.6751 24.6698 27.5304 24.0453 27.3862 23.4225C27.2985 23.0437 27.2109 22.6655 27.1241 22.2881L27.0539 21.9823L27.2985 21.786C27.3563 21.7397 27.3969 21.7083 27.4301 21.6827C27.4712 21.6511 27.5007 21.6282 27.537 21.5969M19.0207 28.4631C18.8624 28.3568 18.6751 28.3018 18.4845 28.3052C18.2974 28.3085 18.1154 28.3679 17.9627 28.4759M27.537 21.5969L22.7434 9.55349C22.2594 8.46523 21.7771 7.37629 21.2965 6.28668L21.2766 6.24152L21.2659 6.19333L21.2313 6.03779C20.4829 4.29666 19.7281 2.56115 18.967 0.831256L18.9621 0.820221L18.9578 0.808965C18.9232 0.71869 18.8612 0.640232 18.7793 0.584692C18.6974 0.529111 18.5997 0.499355 18.4995 0.500011C18.3992 0.500666 18.302 0.531695 18.2208 0.58832C18.1397 0.644903 18.0788 0.724133 18.0454 0.814826L18.0402 0.828912L18.0342 0.842661C17.3322 2.44453 16.6323 4.05077 15.9344 5.66137L15.9344 5.66145C15.6465 6.32561 15.3589 6.99047 15.0713 7.65559C14.5166 8.93814 13.9615 10.2217 13.4022 11.5032L13.4008 11.5066C13.3556 11.608 13.2872 11.709 13.2087 11.7916C13.1464 11.8571 12.9987 11.9962 12.7799 12.0246M27.537 21.5969C30.1546 19.3265 32.7634 17.0483 35.3633 14.7625M27.537 21.5969L35.3633 14.7625M17.9627 28.4759C15.4722 29.9519 12.9783 31.4245 10.481 32.8938L10.4792 32.8949C10.4369 32.92 10.4052 32.9363 10.3641 32.9575C10.3327 32.9736 10.2959 32.9925 10.2447 33.0204L10.2371 33.0245L10.2296 33.0289C10.0016 33.1633 9.77592 33.2977 9.55137 33.4314C8.96537 33.7803 8.38707 34.1247 7.79519 34.4521L7.79509 34.4519L7.78311 34.459C7.72696 34.4921 7.66069 34.5059 7.59504 34.4977C7.52941 34.4894 7.46925 34.4597 7.42387 34.4143L7.39521 34.3856L7.36229 34.3619C7.29669 34.3147 7.24718 34.25 7.21914 34.1763C7.19117 34.1028 7.18556 34.023 7.20287 33.9466C7.70731 31.738 8.20801 29.5273 8.70499 27.3147M8.70499 27.3147L8.72139 27.2423C9.07874 25.666 9.43646 24.0881 9.78041 22.5069L9.78454 22.4879L9.78718 22.4687C9.80632 22.3295 9.79419 22.1878 9.75173 22.0539C9.70927 21.92 9.63762 21.7974 9.54222 21.6947L9.52582 21.6771L9.50779 21.6611C8.35906 20.6417 7.20161 19.6318 6.04569 18.6232C5.8922 18.4893 5.73874 18.3554 5.58533 18.2215M8.70499 27.3147L8.70477 27.3156L8.21758 27.2052L8.70499 27.3147ZM5.58533 18.2215C4.47749 17.2539 3.36762 16.2866 2.25571 15.3196M5.58533 18.2215C5.58528 18.2215 5.58523 18.2214 5.58518 18.2214L5.2564 18.5981M5.58533 18.2215L5.2564 18.5981M2.25571 15.3196C1.75773 14.8863 1.25737 14.455 0.754634 14.0257L0.746862 14.019L0.738825 14.0127C0.646795 13.9404 0.577408 13.8447 0.537742 13.7367C0.503255 13.6428 0.492271 13.5423 0.505333 13.4439M2.25571 15.3196L1.9276 15.6969M2.25571 15.3196C2.25575 15.3196 2.25579 15.3197 2.25582 15.3197L1.9276 15.6969M0.505333 13.4439C0.551467 13.35 0.622298 13.269 0.711432 13.2099C0.813186 13.1424 0.93374 13.1068 1.05712 13.1083L1.07985 13.1086L1.10251 13.1068C1.6519 13.0637 2.21563 13.0073 2.77284 12.9515C3.18447 12.9103 3.59254 12.8694 3.98866 12.8345L3.98911 12.8345C4.40062 12.7979 4.83959 12.7641 5.28215 12.7301C5.78748 12.6912 6.29749 12.652 6.77663 12.6078M0.505333 13.4439C0.498832 13.4571 0.492821 13.4706 0.487319 13.4843L0.0232502 13.2982L0.512822 13.3998C0.509785 13.4144 0.507289 13.4291 0.505333 13.4439ZM6.77663 12.6078C7.23288 12.5658 7.70891 12.5131 8.17946 12.4611C8.56126 12.4189 8.93944 12.3771 9.30053 12.3417M6.77663 12.6078L6.73069 12.1101L6.77653 12.6078C6.77657 12.6078 6.7766 12.6078 6.77663 12.6078ZM9.30053 12.3417C9.69747 12.3037 10.09 12.2723 10.488 12.2405C10.7314 12.2211 10.9769 12.2015 11.2267 12.1801L11.2274 12.18C11.2865 12.1749 11.346 12.1697 11.4057 12.1646C11.854 12.1259 12.3193 12.0857 12.7799 12.0246M9.30053 12.3417C9.30068 12.3417 9.30084 12.3417 9.301 12.3417L9.25219 11.8441L9.29984 12.3418C9.30007 12.3417 9.3003 12.3417 9.30053 12.3417ZM12.7799 12.0246C12.7802 12.0246 12.7806 12.0245 12.781 12.0245L12.7152 11.5288L12.7788 12.0248C12.7791 12.0247 12.7795 12.0247 12.7799 12.0246ZM1.9276 15.6969C3.03924 16.6636 4.14884 17.6307 5.2564 18.5981M1.9276 15.6969L9.17593 22.0351C8.02883 21.0172 6.873 20.0087 5.71686 18.9999C5.56337 18.866 5.40988 18.7321 5.2564 18.5981M35.7298 13.1039C35.8956 13.0771 36.0655 13.1051 36.2132 13.1833C36.3318 13.2461 36.4304 13.3383 36.5 13.4495V13.625C36.4034 13.7248 36.3103 13.8226 36.2191 13.9184C35.9342 14.2179 35.6673 14.4984 35.3656 14.7605L35.3633 14.7625M35.7298 13.1039L35.3633 14.7625" stroke="#FFD24B"/>
<path d="M79.7014 13.1085L79.6728 13.1098C79.5645 13.1148 79.4561 13.1115 79.3484 13.0999C78.9503 13.0644 78.5464 13.0255 78.1445 12.9868C77.8328 12.9568 77.5222 12.9269 77.2167 12.8988L77.2153 12.8987C76.911 12.8698 76.6057 12.8449 76.2966 12.8197L76.2948 12.8196C75.9874 12.7945 75.6761 12.7691 75.3648 12.7396L75.3635 12.7395C75.0448 12.7084 74.7469 12.6755 74.4536 12.6432C74.1206 12.6064 73.7934 12.5703 73.4482 12.5383C73.1392 12.5095 72.8286 12.4862 72.513 12.4626L72.488 12.4607C72.1819 12.4379 71.871 12.4146 71.5599 12.3863C71.5599 12.3863 71.5599 12.3863 71.5599 12.3863L71.6053 11.8883C71.2165 11.8529 70.8281 11.8146 70.4396 11.7762C69.8569 11.7187 69.2742 11.6612 68.6903 11.6134L79.7014 13.1085ZM79.7014 13.1085L79.7298 13.1039M79.7014 13.1085L79.7298 13.1039M62.2381 28.8939C59.7403 30.3742 57.2392 31.8511 54.7346 33.3247C54.6831 33.3553 54.6295 33.3831 54.576 33.4109C54.545 33.427 54.514 33.4431 54.4835 33.4597L72.8651 34.8413C71.7548 34.1961 70.6472 33.5466 69.5424 32.8927C67.2771 31.5594 65.0135 30.2234 62.7516 28.8848M62.2381 28.8939C62.3113 28.8378 62.4008 28.8067 62.4933 28.8051C62.5858 28.8035 62.6764 28.8314 62.7516 28.8848M62.2381 28.8939L61.9832 28.4637C61.9764 28.4678 61.9695 28.4718 61.9627 28.4759M62.2381 28.8939L61.9344 28.4967C61.9437 28.4896 61.9531 28.4826 61.9627 28.4759M62.7516 28.8848L63.041 28.4771C63.0343 28.4723 63.0275 28.4676 63.0207 28.4631M62.7516 28.8848L63.0062 28.4545C63.0111 28.4574 63.0159 28.4602 63.0207 28.4631M63.0207 28.4631C65.2774 29.7987 67.5359 31.1316 69.796 32.4618L69.797 32.4624C70.9007 33.1156 72.0072 33.7645 73.1163 34.409L73.127 34.4152L73.1375 34.422C73.2076 34.4676 73.2917 34.4888 73.3762 34.4817C73.4607 34.4746 73.5396 34.4396 73.6005 34.3834L73.6125 34.3723L73.6251 34.3621C73.6933 34.3068 73.7427 34.2333 73.7678 34.1512C73.7928 34.0692 73.7926 33.9817 73.7672 33.8998L73.7633 33.8872L73.7601 33.8743C73.6764 33.5434 73.6023 33.2052 73.5303 32.8765C73.4983 32.7303 73.4666 32.586 73.4348 32.4451L73.4347 32.4446C72.8986 30.0624 72.3595 27.6795 71.8173 25.2959L71.8173 25.2958C71.6751 24.6698 71.5304 24.0453 71.3862 23.4225C71.2985 23.0437 71.2109 22.6655 71.1241 22.2881L71.0539 21.9823L71.2985 21.786C71.3563 21.7397 71.3969 21.7083 71.4301 21.6827C71.4712 21.6511 71.5007 21.6282 71.537 21.5969M63.0207 28.4631C62.8624 28.3568 62.6751 28.3018 62.4845 28.3052C62.2974 28.3085 62.1154 28.3679 61.9627 28.4759M71.537 21.5969L66.7434 9.55349C66.2594 8.46523 65.7771 7.37629 65.2965 6.28668L65.2766 6.24152L65.2659 6.19333L65.2313 6.03779C64.4829 4.29666 63.7281 2.56115 62.967 0.831256L62.9621 0.820221L62.9578 0.808965C62.9232 0.71869 62.8612 0.640232 62.7793 0.584692C62.6974 0.529111 62.5997 0.499355 62.4995 0.500011C62.3992 0.500666 62.302 0.531695 62.2208 0.58832C62.1397 0.644903 62.0788 0.724133 62.0454 0.814826L62.0402 0.828912L62.0342 0.842661C61.3322 2.44453 60.6323 4.05077 59.9344 5.66137L59.9344 5.66145C59.6465 6.32561 59.3589 6.99047 59.0713 7.65559C58.5166 8.93814 57.9615 10.2217 57.4022 11.5032L57.4008 11.5066C57.3556 11.608 57.2872 11.709 57.2087 11.7916C57.1464 11.8571 56.9987 11.9962 56.7799 12.0246M71.537 21.5969C74.1546 19.3265 76.7634 17.0483 79.3633 14.7625M71.537 21.5969L79.3633 14.7625M61.9627 28.4759C59.4722 29.9519 56.9783 31.4245 54.481 32.8938L54.4792 32.8949C54.4369 32.92 54.4052 32.9363 54.3641 32.9575C54.3327 32.9736 54.2959 32.9925 54.2447 33.0204L54.2371 33.0245L54.2296 33.0289C54.0016 33.1633 53.7759 33.2977 53.5514 33.4314C52.9654 33.7803 52.3871 34.1247 51.7952 34.4521L51.7951 34.4519L51.7831 34.459C51.727 34.4921 51.6607 34.5059 51.595 34.4977C51.5294 34.4894 51.4693 34.4597 51.4239 34.4143L51.3952 34.3856L51.3623 34.3619C51.2967 34.3147 51.2472 34.25 51.2191 34.1763C51.1912 34.1028 51.1856 34.023 51.2029 33.9466C51.7073 31.738 52.208 29.5273 52.705 27.3147M52.705 27.3147L52.7214 27.2423C53.0787 25.666 53.4365 24.0881 53.7804 22.5069L53.7845 22.4879L53.7872 22.4687C53.8063 22.3295 53.7942 22.1878 53.7517 22.0539C53.7093 21.92 53.6376 21.7974 53.5422 21.6947L53.5258 21.6771L53.5078 21.6611C52.3591 20.6417 51.2016 19.6318 50.0457 18.6232C49.8922 18.4893 49.7387 18.3554 49.5853 18.2215M52.705 27.3147L52.7048 27.3156L52.2176 27.2052L52.705 27.3147ZM49.5853 18.2215C48.4775 17.2539 47.3676 16.2866 46.2557 15.3196M49.5853 18.2215C49.5853 18.2215 49.5852 18.2214 49.5852 18.2214L49.2564 18.5981M49.5853 18.2215L49.2564 18.5981M46.2557 15.3196C45.7577 14.8863 45.2574 14.455 44.7546 14.0257L44.7469 14.019L44.7388 14.0127C44.6468 13.9404 44.5774 13.8447 44.5377 13.7367C44.5033 13.6428 44.4923 13.5423 44.5053 13.4439M46.2557 15.3196L45.9276 15.6969M46.2557 15.3196C46.2557 15.3196 46.2558 15.3197 46.2558 15.3197L45.9276 15.6969M44.5053 13.4439C44.5515 13.35 44.6223 13.269 44.7114 13.2099C44.8132 13.1424 44.9337 13.1068 45.0571 13.1083L45.0799 13.1086L45.1025 13.1068C45.6519 13.0637 46.2156 13.0073 46.7728 12.9515C47.1845 12.9103 47.5925 12.8694 47.9887 12.8345L47.9891 12.8345C48.4006 12.7979 48.8396 12.7641 49.2821 12.7301C49.7875 12.6912 50.2975 12.652 50.7766 12.6078M44.5053 13.4439C44.4988 13.4571 44.4928 13.4706 44.4873 13.4843L44.0233 13.2982L44.5128 13.3998C44.5098 13.4144 44.5073 13.4291 44.5053 13.4439ZM50.7766 12.6078C51.2329 12.5658 51.7089 12.5131 52.1795 12.4611C52.5613 12.4189 52.9394 12.3771 53.3005 12.3417M50.7766 12.6078L50.7307 12.1101L50.7765 12.6078C50.7766 12.6078 50.7766 12.6078 50.7766 12.6078ZM53.3005 12.3417C53.6975 12.3037 54.09 12.2723 54.488 12.2405C54.7314 12.2211 54.9769 12.2015 55.2267 12.1801L55.2274 12.18C55.2865 12.1749 55.346 12.1697 55.4057 12.1646C55.854 12.1259 56.3193 12.0857 56.7799 12.0246M53.3005 12.3417C53.3007 12.3417 53.3008 12.3417 53.301 12.3417L53.2522 11.8441L53.2998 12.3418C53.3001 12.3417 53.3003 12.3417 53.3005 12.3417ZM56.7799 12.0246C56.7802 12.0246 56.7806 12.0245 56.781 12.0245L56.7152 11.5288L56.7788 12.0248C56.7791 12.0247 56.7795 12.0247 56.7799 12.0246ZM45.9276 15.6969C47.0392 16.6636 48.1488 17.6307 49.2564 18.5981M45.9276 15.6969L53.1759 22.0351C52.0288 21.0172 50.873 20.0087 49.7169 18.9999C49.5634 18.866 49.4099 18.7321 49.2564 18.5981M79.7298 13.1039C79.8956 13.0771 80.0655 13.1051 80.2132 13.1833C80.3318 13.2461 80.4304 13.3383 80.5 13.4495V13.625C80.4034 13.7248 80.3103 13.8226 80.2191 13.9184C79.9342 14.2179 79.6673 14.4984 79.3656 14.7605L79.3633 14.7625M79.7298 13.1039L79.3633 14.7625" stroke="#FFD24B"/>
<path d="M124.701 13.1085L124.673 13.1098C124.565 13.1148 124.456 13.1115 124.348 13.0999C123.95 13.0644 123.546 13.0255 123.145 12.9868C122.833 12.9568 122.522 12.9269 122.217 12.8988L122.215 12.8987C121.911 12.8698 121.606 12.8449 121.297 12.8197L121.295 12.8196C120.987 12.7945 120.676 12.7691 120.365 12.7396L120.363 12.7395C120.045 12.7084 119.747 12.6755 119.454 12.6432C119.121 12.6064 118.793 12.5703 118.448 12.5383C118.139 12.5095 117.829 12.4862 117.513 12.4626L117.488 12.4607C117.182 12.4379 116.871 12.4146 116.56 12.3863C116.56 12.3863 116.56 12.3863 116.56 12.3863L116.605 11.8883C116.217 11.8529 115.828 11.8146 115.44 11.7762C114.857 11.7187 114.274 11.6612 113.69 11.6134L124.701 13.1085ZM124.701 13.1085L124.73 13.1039M124.701 13.1085L124.73 13.1039M107.238 28.8939C104.74 30.3742 102.239 31.8511 99.7346 33.3247C99.6831 33.3553 99.6295 33.3831 99.576 33.4109C99.545 33.427 99.514 33.4431 99.4835 33.4597L117.865 34.8413C116.755 34.1961 115.647 33.5466 114.542 32.8927C112.277 31.5594 110.013 30.2234 107.752 28.8848M107.238 28.8939C107.311 28.8378 107.401 28.8067 107.493 28.8051C107.586 28.8035 107.676 28.8314 107.752 28.8848M107.238 28.8939L106.983 28.4637C106.976 28.4678 106.97 28.4718 106.963 28.4759M107.238 28.8939L106.934 28.4967C106.944 28.4896 106.953 28.4826 106.963 28.4759M107.752 28.8848L108.041 28.4771C108.034 28.4723 108.028 28.4676 108.021 28.4631M107.752 28.8848L108.006 28.4545C108.011 28.4574 108.016 28.4602 108.021 28.4631M108.021 28.4631C110.277 29.7987 112.536 31.1316 114.796 32.4618L114.797 32.4624C115.901 33.1156 117.007 33.7645 118.116 34.409L118.127 34.4152L118.137 34.422C118.208 34.4676 118.292 34.4888 118.376 34.4817C118.461 34.4746 118.54 34.4396 118.601 34.3834L118.612 34.3723L118.625 34.3621C118.693 34.3068 118.743 34.2333 118.768 34.1512C118.793 34.0692 118.793 33.9817 118.767 33.8998L118.763 33.8872L118.76 33.8743C118.676 33.5434 118.602 33.2052 118.53 32.8765C118.498 32.7303 118.467 32.586 118.435 32.4451L118.435 32.4446C117.899 30.0624 117.359 27.6795 116.817 25.2959L116.817 25.2958C116.675 24.6698 116.53 24.0453 116.386 23.4225C116.299 23.0437 116.211 22.6655 116.124 22.2881L116.054 21.9823L116.299 21.786C116.356 21.7397 116.397 21.7083 116.43 21.6827C116.471 21.6511 116.501 21.6282 116.537 21.5969M108.021 28.4631C107.862 28.3568 107.675 28.3018 107.485 28.3052C107.297 28.3085 107.115 28.3679 106.963 28.4759M116.537 21.5969L111.743 9.55349C111.259 8.46523 110.777 7.37629 110.297 6.28668L110.277 6.24152L110.266 6.19333L110.231 6.03779C109.483 4.29666 108.728 2.56115 107.967 0.831256L107.962 0.820221L107.958 0.808965C107.923 0.71869 107.861 0.640232 107.779 0.584692C107.697 0.529111 107.6 0.499355 107.499 0.500011C107.399 0.500666 107.302 0.531695 107.221 0.58832C107.14 0.644903 107.079 0.724133 107.045 0.814826L107.04 0.828912L107.034 0.842661C106.332 2.44453 105.632 4.05077 104.934 5.66137L104.934 5.66145C104.646 6.32561 104.359 6.99047 104.071 7.65559C103.517 8.93814 102.961 10.2217 102.402 11.5032L102.401 11.5066C102.356 11.608 102.287 11.709 102.209 11.7916C102.146 11.8571 101.999 11.9962 101.78 12.0246M116.537 21.5969C119.155 19.3265 121.763 17.0483 124.363 14.7625M116.537 21.5969L124.363 14.7625M106.963 28.4759C104.472 29.9519 101.978 31.4245 99.481 32.8938L99.4792 32.8949C99.4369 32.92 99.4052 32.9363 99.3641 32.9575C99.3327 32.9736 99.2959 32.9925 99.2447 33.0204L99.2371 33.0245L99.2296 33.0289C99.0016 33.1633 98.7759 33.2977 98.5514 33.4314C97.9654 33.7803 97.3871 34.1247 96.7952 34.4521L96.7951 34.4519L96.7831 34.459C96.727 34.4921 96.6607 34.5059 96.595 34.4977C96.5294 34.4894 96.4693 34.4597 96.4239 34.4143L96.3952 34.3856L96.3623 34.3619C96.2967 34.3147 96.2472 34.25 96.2191 34.1763C96.1912 34.1028 96.1856 34.023 96.2029 33.9466C96.7073 31.738 97.208 29.5273 97.705 27.3147M97.705 27.3147L97.7214 27.2423C98.0787 25.666 98.4365 24.0881 98.7804 22.5069L98.7845 22.4879L98.7872 22.4687C98.8063 22.3295 98.7942 22.1878 98.7517 22.0539C98.7093 21.92 98.6376 21.7974 98.5422 21.6947L98.5258 21.6771L98.5078 21.6611C97.3591 20.6417 96.2016 19.6318 95.0457 18.6232C94.8922 18.4893 94.7387 18.3554 94.5853 18.2215M97.705 27.3147L97.7048 27.3156L97.2176 27.2052L97.705 27.3147ZM94.5853 18.2215C93.4775 17.2539 92.3676 16.2866 91.2557 15.3196M94.5853 18.2215C94.5853 18.2215 94.5852 18.2214 94.5852 18.2214L94.2564 18.5981M94.5853 18.2215L94.2564 18.5981M91.2557 15.3196C90.7577 14.8863 90.2574 14.455 89.7546 14.0257L89.7469 14.019L89.7388 14.0127C89.6468 13.9404 89.5774 13.8447 89.5377 13.7367C89.5033 13.6428 89.4923 13.5423 89.5053 13.4439M91.2557 15.3196L90.9276 15.6969M91.2557 15.3196C91.2557 15.3196 91.2558 15.3197 91.2558 15.3197L90.9276 15.6969M89.5053 13.4439C89.5515 13.35 89.6223 13.269 89.7114 13.2099C89.8132 13.1424 89.9337 13.1068 90.0571 13.1083L90.0799 13.1086L90.1025 13.1068C90.6519 13.0637 91.2156 13.0073 91.7728 12.9515C92.1845 12.9103 92.5925 12.8694 92.9887 12.8345L92.9891 12.8345C93.4006 12.7979 93.8396 12.7641 94.2821 12.7301C94.7875 12.6912 95.2975 12.652 95.7766 12.6078M89.5053 13.4439C89.4988 13.4571 89.4928 13.4706 89.4873 13.4843L89.0233 13.2982L89.5128 13.3998C89.5098 13.4144 89.5073 13.4291 89.5053 13.4439ZM95.7766 12.6078C96.2329 12.5658 96.7089 12.5131 97.1795 12.4611C97.5613 12.4189 97.9394 12.3771 98.3005 12.3417M95.7766 12.6078L95.7307 12.1101L95.7765 12.6078C95.7766 12.6078 95.7766 12.6078 95.7766 12.6078ZM98.3005 12.3417C98.6975 12.3037 99.09 12.2723 99.488 12.2405C99.7314 12.2211 99.9769 12.2015 100.227 12.1801L100.227 12.18C100.287 12.1749 100.346 12.1697 100.406 12.1646C100.854 12.1259 101.319 12.0857 101.78 12.0246M98.3005 12.3417C98.3007 12.3417 98.3008 12.3417 98.301 12.3417L98.2522 11.8441L98.2998 12.3418C98.3001 12.3417 98.3003 12.3417 98.3005 12.3417ZM101.78 12.0246C101.78 12.0246 101.781 12.0245 101.781 12.0245L101.715 11.5288L101.779 12.0248C101.779 12.0247 101.78 12.0247 101.78 12.0246ZM90.9276 15.6969C92.0392 16.6636 93.1488 17.6307 94.2564 18.5981M90.9276 15.6969L98.1759 22.0351C97.0288 21.0172 95.873 20.0087 94.7169 18.9999C94.5634 18.866 94.4099 18.7321 94.2564 18.5981M124.73 13.1039C124.896 13.0771 125.066 13.1051 125.213 13.1833C125.332 13.2461 125.43 13.3383 125.5 13.4495V13.625C125.403 13.7248 125.31 13.8226 125.219 13.9184C124.934 14.2179 124.667 14.4984 124.366 14.7605L124.363 14.7625M124.73 13.1039L124.363 14.7625" stroke="#FFD24B"/>
<path d="M168.701 13.1085L168.673 13.1098C168.565 13.1148 168.456 13.1115 168.348 13.0999C167.95 13.0644 167.546 13.0255 167.145 12.9868C166.833 12.9568 166.522 12.9269 166.217 12.8988L166.215 12.8987C165.911 12.8698 165.606 12.8449 165.297 12.8197L165.295 12.8196C164.987 12.7945 164.676 12.7691 164.365 12.7396L164.363 12.7395C164.045 12.7084 163.747 12.6755 163.454 12.6432C163.121 12.6064 162.793 12.5703 162.448 12.5383C162.139 12.5095 161.829 12.4862 161.513 12.4626L161.488 12.4607C161.182 12.4379 160.871 12.4146 160.56 12.3863C160.56 12.3863 160.56 12.3863 160.56 12.3863L160.605 11.8883C160.217 11.8529 159.828 11.8146 159.44 11.7762C158.857 11.7187 158.274 11.6612 157.69 11.6134L168.701 13.1085ZM168.701 13.1085L168.73 13.1039M168.701 13.1085L168.73 13.1039M151.238 28.8939C148.74 30.3742 146.239 31.8511 143.735 33.3247C143.683 33.3553 143.63 33.3831 143.576 33.4109C143.545 33.427 143.514 33.4431 143.483 33.4597L161.865 34.8413C160.755 34.1961 159.647 33.5466 158.542 32.8927C156.277 31.5594 154.013 30.2234 151.752 28.8848M151.238 28.8939C151.311 28.8378 151.401 28.8067 151.493 28.8051C151.586 28.8035 151.676 28.8314 151.752 28.8848M151.238 28.8939L150.983 28.4637C150.976 28.4678 150.97 28.4718 150.963 28.4759M151.238 28.8939L150.934 28.4967C150.944 28.4896 150.953 28.4826 150.963 28.4759M151.752 28.8848L152.041 28.4771C152.034 28.4723 152.028 28.4676 152.021 28.4631M151.752 28.8848L152.006 28.4545C152.011 28.4574 152.016 28.4602 152.021 28.4631M152.021 28.4631C154.277 29.7987 156.536 31.1316 158.796 32.4618L158.797 32.4624C159.901 33.1156 161.007 33.7645 162.116 34.409L162.127 34.4152L162.137 34.422C162.208 34.4676 162.292 34.4888 162.376 34.4817C162.461 34.4746 162.54 34.4396 162.601 34.3834L162.612 34.3723L162.625 34.3621C162.693 34.3068 162.743 34.2333 162.768 34.1512C162.793 34.0692 162.793 33.9817 162.767 33.8998L162.763 33.8872L162.76 33.8743C162.676 33.5434 162.602 33.2052 162.53 32.8765C162.498 32.7303 162.467 32.586 162.435 32.4451L162.435 32.4446C161.899 30.0624 161.359 27.6795 160.817 25.2959L160.817 25.2958C160.675 24.6698 160.53 24.0453 160.386 23.4225C160.299 23.0437 160.211 22.6655 160.124 22.2881L160.054 21.9823L160.299 21.786C160.356 21.7397 160.397 21.7083 160.43 21.6827C160.471 21.6511 160.501 21.6282 160.537 21.5969M152.021 28.4631C151.862 28.3568 151.675 28.3018 151.485 28.3052C151.297 28.3085 151.115 28.3679 150.963 28.4759M160.537 21.5969L155.743 9.55349C155.259 8.46523 154.777 7.37629 154.297 6.28668L154.277 6.24152L154.266 6.19333L154.231 6.03779C153.483 4.29666 152.728 2.56115 151.967 0.831256L151.962 0.820221L151.958 0.808965C151.923 0.71869 151.861 0.640232 151.779 0.584692C151.697 0.529111 151.6 0.499355 151.499 0.500011C151.399 0.500666 151.302 0.531695 151.221 0.58832C151.14 0.644903 151.079 0.724133 151.045 0.814826L151.04 0.828912L151.034 0.842661C150.332 2.44453 149.632 4.05077 148.934 5.66137L148.934 5.66145C148.646 6.32561 148.359 6.99047 148.071 7.65559C147.517 8.93814 146.961 10.2217 146.402 11.5032L146.401 11.5066C146.356 11.608 146.287 11.709 146.209 11.7916C146.146 11.8571 145.999 11.9962 145.78 12.0246M160.537 21.5969C163.155 19.3265 165.763 17.0483 168.363 14.7625M160.537 21.5969L168.363 14.7625M150.963 28.4759C148.472 29.9519 145.978 31.4245 143.481 32.8938L143.479 32.8949C143.437 32.92 143.405 32.9363 143.364 32.9575C143.333 32.9736 143.296 32.9925 143.245 33.0204L143.237 33.0245L143.23 33.0289C143.002 33.1633 142.776 33.2977 142.551 33.4314C141.965 33.7803 141.387 34.1247 140.795 34.4521L140.795 34.4519L140.783 34.459C140.727 34.4921 140.661 34.5059 140.595 34.4977C140.529 34.4894 140.469 34.4597 140.424 34.4143L140.395 34.3856L140.362 34.3619C140.297 34.3147 140.247 34.25 140.219 34.1763C140.191 34.1028 140.186 34.023 140.203 33.9466C140.707 31.738 141.208 29.5273 141.705 27.3147M141.705 27.3147L141.721 27.2423C142.079 25.666 142.436 24.0881 142.78 22.5069L142.785 22.4879L142.787 22.4687C142.806 22.3295 142.794 22.1878 142.752 22.0539C142.709 21.92 142.638 21.7974 142.542 21.6947L142.526 21.6771L142.508 21.6611C141.359 20.6417 140.202 19.6318 139.046 18.6232C138.892 18.4893 138.739 18.3554 138.585 18.2215M141.705 27.3147L141.705 27.3156L141.218 27.2052L141.705 27.3147ZM138.585 18.2215C137.477 17.2539 136.368 16.2866 135.256 15.3196M138.585 18.2215C138.585 18.2215 138.585 18.2214 138.585 18.2214L138.256 18.5981M138.585 18.2215L138.256 18.5981M135.256 15.3196C134.758 14.8863 134.257 14.455 133.755 14.0257L133.747 14.019L133.739 14.0127C133.647 13.9404 133.577 13.8447 133.538 13.7367C133.503 13.6428 133.492 13.5423 133.505 13.4439M135.256 15.3196L134.928 15.6969M135.256 15.3196C135.256 15.3196 135.256 15.3197 135.256 15.3197L134.928 15.6969M133.505 13.4439C133.551 13.35 133.622 13.269 133.711 13.2099C133.813 13.1424 133.934 13.1068 134.057 13.1083L134.08 13.1086L134.103 13.1068C134.652 13.0637 135.216 13.0073 135.773 12.9515C136.184 12.9103 136.593 12.8694 136.989 12.8345L136.989 12.8345C137.401 12.7979 137.84 12.7641 138.282 12.7301C138.787 12.6912 139.297 12.652 139.777 12.6078M133.505 13.4439C133.499 13.4571 133.493 13.4706 133.487 13.4843L133.023 13.2982L133.513 13.3998C133.51 13.4144 133.507 13.4291 133.505 13.4439ZM139.777 12.6078C140.233 12.5658 140.709 12.5131 141.179 12.4611C141.561 12.4189 141.939 12.3771 142.301 12.3417M139.777 12.6078L139.731 12.1101L139.777 12.6078C139.777 12.6078 139.777 12.6078 139.777 12.6078ZM142.301 12.3417C142.697 12.3037 143.09 12.2723 143.488 12.2405C143.731 12.2211 143.977 12.2015 144.227 12.1801L144.227 12.18C144.287 12.1749 144.346 12.1697 144.406 12.1646C144.854 12.1259 145.319 12.0857 145.78 12.0246M142.301 12.3417C142.301 12.3417 142.301 12.3417 142.301 12.3417L142.252 11.8441L142.3 12.3418C142.3 12.3417 142.3 12.3417 142.301 12.3417ZM145.78 12.0246C145.78 12.0246 145.781 12.0245 145.781 12.0245L145.715 11.5288L145.779 12.0248C145.779 12.0247 145.78 12.0247 145.78 12.0246ZM134.928 15.6969C136.039 16.6636 137.149 17.6307 138.256 18.5981M134.928 15.6969L142.176 22.0351C141.029 21.0172 139.873 20.0087 138.717 18.9999C138.563 18.866 138.41 18.7321 138.256 18.5981M168.73 13.1039C168.896 13.0771 169.066 13.1051 169.213 13.1833C169.332 13.2461 169.43 13.3383 169.5 13.4495V13.625C169.403 13.7248 169.31 13.8226 169.219 13.9184C168.934 14.2179 168.667 14.4984 168.366 14.7605L168.363 14.7625M168.73 13.1039L168.363 14.7625" stroke="#FFD24B"/>
<path d="M212.701 13.1085L212.673 13.1098C212.565 13.1148 212.456 13.1115 212.348 13.0999C211.95 13.0644 211.546 13.0255 211.145 12.9868C210.833 12.9568 210.522 12.9269 210.217 12.8988L210.215 12.8987C209.911 12.8698 209.606 12.8449 209.297 12.8197L209.295 12.8196C208.987 12.7945 208.676 12.7691 208.365 12.7396L208.363 12.7395C208.045 12.7084 207.747 12.6755 207.454 12.6432C207.121 12.6064 206.793 12.5703 206.448 12.5383C206.139 12.5095 205.829 12.4862 205.513 12.4626L205.488 12.4607C205.182 12.4379 204.871 12.4146 204.56 12.3863C204.56 12.3863 204.56 12.3863 204.56 12.3863L204.605 11.8883C204.217 11.8529 203.828 11.8146 203.44 11.7762C202.857 11.7187 202.274 11.6612 201.69 11.6134L212.701 13.1085ZM212.701 13.1085L212.73 13.1039M212.701 13.1085L212.73 13.1039M195.238 28.8939C192.74 30.3742 190.239 31.8511 187.735 33.3247C187.683 33.3553 187.63 33.3831 187.576 33.4109C187.545 33.427 187.514 33.4431 187.483 33.4597L205.865 34.8413C204.755 34.1961 203.647 33.5466 202.542 32.8927C200.277 31.5594 198.013 30.2234 195.752 28.8848M195.238 28.8939C195.311 28.8378 195.401 28.8067 195.493 28.8051C195.586 28.8035 195.676 28.8314 195.752 28.8848M195.238 28.8939L194.983 28.4637C194.976 28.4678 194.97 28.4718 194.963 28.4759M195.238 28.8939L194.934 28.4967C194.944 28.4896 194.953 28.4826 194.963 28.4759M195.752 28.8848L196.041 28.4771C196.034 28.4723 196.028 28.4676 196.021 28.4631M195.752 28.8848L196.006 28.4545C196.011 28.4574 196.016 28.4602 196.021 28.4631M196.021 28.4631C198.277 29.7987 200.536 31.1316 202.796 32.4618L202.797 32.4624C203.901 33.1156 205.007 33.7645 206.116 34.409L206.127 34.4152L206.137 34.422C206.208 34.4676 206.292 34.4888 206.376 34.4817C206.461 34.4746 206.54 34.4396 206.601 34.3834L206.612 34.3723L206.625 34.3621C206.693 34.3068 206.743 34.2333 206.768 34.1512C206.793 34.0692 206.793 33.9817 206.767 33.8998L206.763 33.8872L206.76 33.8743C206.676 33.5434 206.602 33.2052 206.53 32.8765C206.498 32.7303 206.467 32.586 206.435 32.4451L206.435 32.4446C205.899 30.0624 205.359 27.6795 204.817 25.2959L204.817 25.2958C204.675 24.6698 204.53 24.0453 204.386 23.4225C204.299 23.0437 204.211 22.6655 204.124 22.2881L204.054 21.9823L204.299 21.786C204.356 21.7397 204.397 21.7083 204.43 21.6827C204.471 21.6511 204.501 21.6282 204.537 21.5969M196.021 28.4631C195.862 28.3568 195.675 28.3018 195.485 28.3052C195.297 28.3085 195.115 28.3679 194.963 28.4759M204.537 21.5969L199.743 9.55349C199.259 8.46523 198.777 7.37629 198.297 6.28668L198.277 6.24152L198.266 6.19333L198.231 6.03779C197.483 4.29666 196.728 2.56115 195.967 0.831256L195.962 0.820221L195.958 0.808965C195.923 0.71869 195.861 0.640232 195.779 0.584692C195.697 0.529111 195.6 0.499355 195.499 0.500011C195.399 0.500666 195.302 0.531695 195.221 0.58832C195.14 0.644903 195.079 0.724133 195.045 0.814826L195.04 0.828912L195.034 0.842661C194.332 2.44453 193.632 4.05077 192.934 5.66137L192.934 5.66145C192.646 6.32561 192.359 6.99047 192.071 7.65559C191.517 8.93814 190.961 10.2217 190.402 11.5032L190.401 11.5066C190.356 11.608 190.287 11.709 190.209 11.7916C190.146 11.8571 189.999 11.9962 189.78 12.0246M204.537 21.5969C207.155 19.3265 209.763 17.0483 212.363 14.7625M204.537 21.5969L212.363 14.7625M194.963 28.4759C192.472 29.9519 189.978 31.4245 187.481 32.8938L187.479 32.8949C187.437 32.92 187.405 32.9363 187.364 32.9575C187.333 32.9736 187.296 32.9925 187.245 33.0204L187.237 33.0245L187.23 33.0289C187.002 33.1633 186.776 33.2977 186.551 33.4314C185.965 33.7803 185.387 34.1247 184.795 34.4521L184.795 34.4519L184.783 34.459C184.727 34.4921 184.661 34.5059 184.595 34.4977C184.529 34.4894 184.469 34.4597 184.424 34.4143L184.395 34.3856L184.362 34.3619C184.297 34.3147 184.247 34.25 184.219 34.1763C184.191 34.1028 184.186 34.023 184.203 33.9466C184.707 31.738 185.208 29.5273 185.705 27.3147M185.705 27.3147L185.721 27.2423C186.079 25.666 186.436 24.0881 186.78 22.5069L186.785 22.4879L186.787 22.4687C186.806 22.3295 186.794 22.1878 186.752 22.0539C186.709 21.92 186.638 21.7974 186.542 21.6947L186.526 21.6771L186.508 21.6611C185.359 20.6417 184.202 19.6318 183.046 18.6232C182.892 18.4893 182.739 18.3554 182.585 18.2215M185.705 27.3147L185.705 27.3156L185.218 27.2052L185.705 27.3147ZM182.585 18.2215C181.477 17.2539 180.368 16.2866 179.256 15.3196M182.585 18.2215C182.585 18.2215 182.585 18.2214 182.585 18.2214L182.256 18.5981M182.585 18.2215L182.256 18.5981M179.256 15.3196C178.758 14.8863 178.257 14.455 177.755 14.0257L177.747 14.019L177.739 14.0127C177.647 13.9404 177.577 13.8447 177.538 13.7367C177.503 13.6428 177.492 13.5423 177.505 13.4439M179.256 15.3196L178.928 15.6969M179.256 15.3196C179.256 15.3196 179.256 15.3197 179.256 15.3197L178.928 15.6969M177.505 13.4439C177.551 13.35 177.622 13.269 177.711 13.2099C177.813 13.1424 177.934 13.1068 178.057 13.1083L178.08 13.1086L178.103 13.1068C178.652 13.0637 179.216 13.0073 179.773 12.9515C180.184 12.9103 180.593 12.8694 180.989 12.8345L180.989 12.8345C181.401 12.7979 181.84 12.7641 182.282 12.7301C182.787 12.6912 183.297 12.652 183.777 12.6078M177.505 13.4439C177.499 13.4571 177.493 13.4706 177.487 13.4843L177.023 13.2982L177.513 13.3998C177.51 13.4144 177.507 13.4291 177.505 13.4439ZM183.777 12.6078C184.233 12.5658 184.709 12.5131 185.179 12.4611C185.561 12.4189 185.939 12.3771 186.301 12.3417M183.777 12.6078L183.731 12.1101L183.777 12.6078C183.777 12.6078 183.777 12.6078 183.777 12.6078ZM186.301 12.3417C186.697 12.3037 187.09 12.2723 187.488 12.2405C187.731 12.2211 187.977 12.2015 188.227 12.1801L188.227 12.18C188.287 12.1749 188.346 12.1697 188.406 12.1646C188.854 12.1259 189.319 12.0857 189.78 12.0246M186.301 12.3417C186.301 12.3417 186.301 12.3417 186.301 12.3417L186.252 11.8441L186.3 12.3418C186.3 12.3417 186.3 12.3417 186.301 12.3417ZM189.78 12.0246C189.78 12.0246 189.781 12.0245 189.781 12.0245L189.715 11.5288L189.779 12.0248C189.779 12.0247 189.78 12.0247 189.78 12.0246ZM178.928 15.6969C180.039 16.6636 181.149 17.6307 182.256 18.5981M178.928 15.6969L186.176 22.0351C185.029 21.0172 183.873 20.0087 182.717 18.9999C182.563 18.866 182.41 18.7321 182.256 18.5981M212.73 13.1039C212.896 13.0771 213.066 13.1051 213.213 13.1833C213.332 13.2461 213.43 13.3383 213.5 13.4495V13.625C213.403 13.7248 213.31 13.8226 213.219 13.9184C212.934 14.2179 212.667 14.4984 212.366 14.7605L212.363 14.7625M212.73 13.1039L212.363 14.7625" stroke="#FFD24B"/>
</g>
<defs>
<clipPath id="clip0_1_2">
<rect width="214" height="35" fill="white"/>
</clipPath>
</defs>
</svg>
