<svg id="Group_660" data-name="Group 660" xmlns="http://www.w3.org/2000/svg" xmlns:xlink="http://www.w3.org/1999/xlink" width="70.053" height="71.378" viewBox="0 0 70.053 71.378">
  <defs>
    <clipPath id="clip-path">
      <rect id="Rectangle_633" data-name="Rectangle 633" width="70.053" height="71.378" fill="none"/>
    </clipPath>
  </defs>
  <g id="Group_659" data-name="Group 659" clip-path="url(#clip-path)">
    <path id="Path_367" data-name="Path 367" d="M135.282,7.371H130.1a16.248,16.248,0,0,0-.369-5.586c-.51-1.517-1.45-1.77-1.965-1.786h-.056c-1.229,0-2.176,1.23-2.786,2.162a33.8,33.8,0,0,0-2.592,5.211h-2.877a16.247,16.247,0,0,0-.369-5.586c-.51-1.518-1.45-1.77-1.965-1.786h-.056c-1.229,0-2.176,1.23-2.785,2.162a33.8,33.8,0,0,0-2.593,5.211h-2.877a16.245,16.245,0,0,0-.369-5.586c-.51-1.517-1.45-1.77-1.965-1.786-1.255-.038-2.223,1.215-2.841,2.161a33.788,33.788,0,0,0-2.592,5.211H98.16a16.248,16.248,0,0,0-.369-5.586C97.281.268,96.341.015,95.826,0,94.571-.038,93.6,1.215,92.985,2.161a33.8,33.8,0,0,0-2.593,5.211h-5.5A6,6,0,0,0,78.9,13.364V34.327a1.176,1.176,0,1,0,2.353,0V13.364a3.644,3.644,0,0,1,3.64-3.64H95.519c-.1.575-.207,1.115-.331,1.6a4.51,4.51,0,0,1-.7,1.783,1.176,1.176,0,0,0,1.483,1.826,4.971,4.971,0,0,0,1.364-2.54A20.744,20.744,0,0,0,97.9,9.724h8.263c-.1.575-.207,1.115-.331,1.6a4.508,4.508,0,0,1-.7,1.783,1.176,1.176,0,0,0,1.483,1.826,4.972,4.972,0,0,0,1.364-2.54,20.742,20.742,0,0,0,.567-2.665h8.263c-.1.575-.207,1.115-.331,1.6a4.507,4.507,0,0,1-.7,1.783,1.176,1.176,0,0,0,1.483,1.826,4.971,4.971,0,0,0,1.364-2.54,20.741,20.741,0,0,0,.567-2.665h8.263c-.1.575-.207,1.115-.331,1.6a4.506,4.506,0,0,1-.7,1.783,1.176,1.176,0,0,0,1.483,1.826,4.971,4.971,0,0,0,1.364-2.54,20.746,20.746,0,0,0,.567-2.665h5.445a3.644,3.644,0,0,1,3.64,3.64V59.9a3.644,3.644,0,0,1-3.64,3.64h-27.3a1.176,1.176,0,0,0,0,2.353h27.3a6,6,0,0,0,5.993-5.993V13.364a6,6,0,0,0-5.993-5.993m-8.656-3.5a7.719,7.719,0,0,1,.9-1.26,6.959,6.959,0,0,1,.241,1.427,21.5,21.5,0,0,1-.024,3.334h-2.853a31.456,31.456,0,0,1,1.74-3.5m-10.645,0a7.733,7.733,0,0,1,.9-1.26,6.944,6.944,0,0,1,.241,1.427,21.515,21.515,0,0,1-.023,3.334H114.24a31.456,31.456,0,0,1,1.74-3.5m-10.645,0a7.721,7.721,0,0,1,.9-1.26,6.958,6.958,0,0,1,.241,1.427,21.529,21.529,0,0,1-.024,3.334h-2.853a31.455,31.455,0,0,1,1.74-3.5m-10.645,0a7.721,7.721,0,0,1,.9-1.26,6.945,6.945,0,0,1,.241,1.427A21.5,21.5,0,0,1,95.8,7.371H92.95a31.459,31.459,0,0,1,1.74-3.5" transform="translate(-71.222 0.001)" fill="#231f20"/>
    <path id="Path_368" data-name="Path 368" d="M28.826,391.43a16.838,16.838,0,1,0,3.618,5.367,16.83,16.83,0,0,0-3.618-5.367M16.886,417.9A14.533,14.533,0,1,1,31.419,403.37,14.55,14.55,0,0,1,16.886,417.9" transform="translate(0 -348.878)" fill="#231f20"/>
    <path id="Path_369" data-name="Path 369" d="M74.358,450.15a10.691,10.691,0,1,0,0,21.382,1.176,1.176,0,0,0,0-2.353,8.338,8.338,0,1,1,7.18-12.581l-1.386.335,3.721,3.908,1.525-5.176-1.492.361a10.694,10.694,0,0,0-9.548-5.876" transform="translate(-57.472 -406.349)" fill="#231f20"/>
    <path id="Path_370" data-name="Path 370" d="M287.731,200.354a1.176,1.176,0,0,0-1.176-1.176H261.919a1.176,1.176,0,1,0,0,2.353h24.635a1.176,1.176,0,0,0,1.176-1.176" transform="translate(-235.372 -179.797)" fill="#231f20"/>
    <path id="Path_371" data-name="Path 371" d="M544.769,269.219h7.118a1.556,1.556,0,0,0,1.554-1.554v-7.118a1.556,1.556,0,0,0-1.554-1.554h-7.118a1.556,1.556,0,0,0-1.554,1.554v7.118a1.556,1.556,0,0,0,1.554,1.554m.8-7.873h5.521v5.521h-5.521Z" transform="translate(-490.359 -233.792)" fill="#231f20"/>
    <path id="Path_372" data-name="Path 372" d="M422.066,260.547a1.556,1.556,0,0,0-1.554-1.554h-7.118a1.556,1.556,0,0,0-1.554,1.554v7.118a1.556,1.556,0,0,0,1.554,1.554h7.118a1.556,1.556,0,0,0,1.554-1.554Zm-2.353,6.319h-5.521v-5.521h5.521Z" transform="translate(-371.767 -233.792)" fill="#231f20"/>
    <path id="Path_373" data-name="Path 373" d="M543.215,394.3a1.556,1.556,0,0,0,1.554,1.554h7.118a1.556,1.556,0,0,0,1.554-1.554v-7.118a1.556,1.556,0,0,0-1.554-1.554h-7.118a1.556,1.556,0,0,0-1.554,1.554Zm2.353-6.319h5.521V393.5h-5.521Z" transform="translate(-490.359 -348.107)" fill="#231f20"/>
    <path id="Path_374" data-name="Path 374" d="M422.066,387.184a1.556,1.556,0,0,0-1.554-1.554h-7.118a1.556,1.556,0,0,0-1.554,1.554V394.3a1.556,1.556,0,0,0,1.554,1.554h7.118a1.556,1.556,0,0,0,1.554-1.554Zm-2.353,6.319h-5.521v-5.521h5.521Z" transform="translate(-371.767 -348.107)" fill="#231f20"/>
    <path id="Path_375" data-name="Path 375" d="M543.215,520.94a1.556,1.556,0,0,0,1.554,1.554h7.118a1.556,1.556,0,0,0,1.554-1.554v-7.118a1.556,1.556,0,0,0-1.554-1.554h-7.118a1.556,1.556,0,0,0-1.554,1.554Zm2.353-6.319h5.521v5.521h-5.521Z" transform="translate(-490.359 -462.423)" fill="#231f20"/>
    <path id="Path_376" data-name="Path 376" d="M420.512,512.268h-7.118a1.556,1.556,0,0,0-1.554,1.554v7.118a1.556,1.556,0,0,0,1.554,1.554h7.118a1.556,1.556,0,0,0,1.554-1.554v-7.118a1.556,1.556,0,0,0-1.554-1.554m-.8,7.873h-5.521v-5.521h5.521Z" transform="translate(-371.767 -462.423)" fill="#231f20"/>
    <path id="Path_377" data-name="Path 377" d="M282.019,258.993a1.556,1.556,0,0,0-1.554,1.554v7.118a1.556,1.556,0,0,0,1.554,1.554h7.118a1.556,1.556,0,0,0,1.554-1.554v-7.118a1.556,1.556,0,0,0-1.554-1.554Zm6.319,7.873h-5.521v-5.521h5.521Z" transform="translate(-253.175 -233.792)" fill="#231f20"/>
    <path id="Path_378" data-name="Path 378" d="M157.763,269.219a1.556,1.556,0,0,0,1.554-1.554v-7.118a1.556,1.556,0,0,0-1.554-1.554h-7.118a1.556,1.556,0,0,0-1.554,1.554v7.118a1.556,1.556,0,0,0,1.554,1.554Zm-6.319-7.873h5.521v5.521h-5.521Z" transform="translate(-134.584 -233.792)" fill="#231f20"/>
  </g>
</svg>
