<svg id="Capa_1" data-name="Capa 1" xmlns="http://www.w3.org/2000/svg" xmlns:xlink="http://www.w3.org/1999/xlink" viewBox="0 0 338.68 381.76"><defs><style>.cls-1{fill:none;}.cls-2{clip-path:url(#clip-path);}.cls-3{fill:#0b050c;}</style><clipPath id="clip-path" transform="translate(-30.66 -9.12)"><rect class="cls-1" x="30.66" y="9.12" width="338.68" height="381.76"/></clipPath></defs><g class="cls-2"><path class="cls-3" d="M293,345.85a28.39,28.39,0,0,1-29.36,25.45H140.29a27.91,27.91,0,0,1-28.88-25l-24.47-210H313.06L293,345.85Zm30.83-229H76.18a9.83,9.83,0,0,0-7.35,2.44,8.35,8.35,0,0,0-2.44,7.35l25.45,221.7a48.44,48.44,0,0,0,48.45,42.58H263.63a48.45,48.45,0,0,0,48.94-44l21-221.22a8.36,8.36,0,0,0-2.44-6.37,9.83,9.83,0,0,0-7.35-2.44Z" transform="translate(-30.66 -9.12)"/><path class="cls-3" d="M160.85,53.17V37.51a7.82,7.82,0,0,1,6.76-8.76,7.41,7.41,0,0,1,1.56-.05h61.66A7.84,7.84,0,0,1,239.2,36a7.29,7.29,0,0,1,0,1.55V53.17Zm198.7,0H258.73V37.51A27.4,27.4,0,0,0,232.32,9.14c-.49,0-1,0-1.49,0H169.17A27.41,27.41,0,0,0,141.26,36c0,.5,0,1,0,1.49V53.17H40.45a9.79,9.79,0,0,0,0,19.58h319.1a9.79,9.79,0,0,0,0-19.58Z" transform="translate(-30.66 -9.12)"/></g></svg>